{"glyphs":{"0":{"ha":613,"x_min":41,"x_max":567,"o":"m 426 977 l 445 977 q 477 941 468 977 q 475 933 475 936 l 480 930 q 464 876 480 911 q 461 865 464 870 q 537 827 537 840 q 567 741 567 755 l 567 738 l 551 727 l 551 716 l 553 700 q 515 665 553 694 q 524 651 522 665 q 518 646 518 650 q 540 515 531 622 l 551 448 l 543 442 l 529 442 q 532 385 532 401 l 513 290 q 537 250 524 280 q 545 241 541 250 l 545 228 q 529 220 543 220 l 526 220 q 494 241 505 220 q 472 255 472 241 q 488 298 479 298 l 486 304 l 486 334 q 477 382 477 370 q 480 420 477 387 q 439 521 463 430 l 437 521 q 434 513 437 513 l 437 499 l 437 496 q 418 404 423 463 q 404 380 415 404 l 407 366 q 404 363 407 363 q 410 328 407 328 l 407 315 l 407 290 q 412 252 407 281 l 415 252 q 420 271 415 260 q 439 263 439 269 q 426 258 439 258 l 426 244 l 429 231 l 431 231 q 450 252 431 252 q 461 241 454 252 l 461 212 q 445 160 460 165 l 437 160 q 426 206 426 160 l 423 206 q 418 195 423 195 l 404 195 l 404 209 q 350 214 364 212 q 347 201 350 205 l 350 184 l 350 174 q 347 171 350 171 l 350 165 q 339 127 339 153 l 339 114 q 363 76 358 77 l 363 71 q 355 65 363 65 l 358 52 l 358 49 q 307 0 358 7 l 304 0 q 258 41 258 8 l 258 52 q 260 62 258 58 q 258 73 258 67 l 258 79 q 301 125 262 125 q 304 127 301 127 q 323 122 309 127 l 323 141 q 274 136 296 136 q 217 152 248 136 l 209 152 q 179 146 183 149 q 125 165 125 153 l 122 165 l 122 160 q 157 111 157 140 q 117 71 157 80 q 84 49 101 49 q 41 100 52 49 l 41 111 q 73 141 41 138 l 76 141 l 81 138 q 106 163 81 151 q 103 193 106 169 q 119 279 119 245 l 119 285 l 114 304 q 117 312 117 309 q 111 317 111 312 q 138 361 130 330 l 138 363 q 125 399 125 391 l 125 404 q 133 420 127 420 l 163 420 q 198 450 191 420 q 179 491 179 469 q 171 505 175 505 l 174 518 l 174 543 q 176 567 174 552 q 174 578 174 572 q 244 667 200 646 q 285 711 285 667 q 307 741 295 720 q 298 746 298 741 l 298 749 q 339 822 317 770 q 396 852 339 839 q 410 863 410 860 l 410 873 q 396 917 410 882 l 396 925 q 404 960 401 930 l 426 977 m 312 673 l 312 670 q 339 659 324 670 q 361 694 357 659 l 361 738 l 358 738 q 315 675 344 733 q 312 673 312 675 m 136 274 l 136 271 q 130 225 136 259 q 165 179 130 179 q 209 165 205 179 q 231 160 217 165 l 244 168 l 255 168 q 304 160 273 168 q 334 201 311 160 l 334 209 l 323 209 q 239 217 292 209 q 222 190 230 190 l 209 190 q 193 231 197 190 q 179 260 180 239 l 171 260 q 136 274 167 260 m 382 247 l 382 244 l 396 244 l 396 252 q 382 247 387 247 m 372 239 l 372 236 l 396 236 l 396 239 l 372 239 m 355 220 q 404 214 387 214 l 404 217 l 401 228 l 372 228 q 355 220 355 227 z "},"1":{"ha":945,"x_min":56,"x_max":914,"o":"m 435 968 l 438 964 l 438 636 l 405 617 l 389 591 l 61 591 q 56 599 56 591 q 229 907 56 777 q 435 968 333 968 m 902 730 q 914 688 914 694 q 825 660 825 663 q 791 478 798 566 q 692 318 767 382 q 622 278 633 278 q 648 205 638 205 q 747 127 720 205 q 749 104 749 115 l 749 99 q 669 2 749 29 q 650 0 660 0 l 643 0 q 547 78 575 0 l 547 80 l 344 80 l 323 40 q 240 0 286 0 q 139 85 161 0 q 136 106 136 94 q 216 203 136 175 q 235 205 226 205 l 245 205 q 264 267 250 205 q 56 558 56 359 l 61 561 l 389 561 q 443 521 412 521 q 494 549 479 521 q 504 561 499 559 l 749 561 q 780 676 755 561 q 810 707 784 707 q 902 730 888 730 m 445 608 q 475 575 472 608 q 443 547 475 550 q 417 572 417 554 l 417 582 q 445 608 417 602 m 419 235 q 309 250 376 235 l 309 248 q 292 191 296 203 q 339 127 339 157 l 547 127 q 593 191 558 170 l 596 191 q 577 259 596 197 q 419 235 505 235 m 195 104 l 195 101 q 238 59 202 59 l 242 59 q 285 104 277 59 q 242 146 277 146 l 233 146 q 195 104 203 146 m 603 106 l 603 96 q 646 59 603 66 l 652 59 q 690 96 690 70 l 690 106 q 650 146 683 146 l 643 146 q 603 106 603 140 z "},"2":{"ha":987,"x_min":34,"x_max":951,"o":"m 677 968 q 761 939 698 968 l 802 939 q 904 943 848 939 q 951 918 935 943 l 951 895 q 929 819 930 842 q 904 782 924 819 l 907 774 l 907 768 l 889 716 q 892 702 892 710 q 886 694 892 694 q 900 614 892 669 q 852 519 900 549 q 856 505 856 513 q 834 373 844 505 q 852 321 852 328 l 860 321 q 874 358 864 358 q 904 347 901 358 l 904 344 l 878 329 l 878 311 l 886 311 q 897 326 887 326 l 911 326 q 937 292 937 326 l 937 289 q 904 197 937 229 l 892 197 q 860 237 866 197 q 863 252 863 244 l 863 260 q 849 252 854 252 q 831 274 844 252 q 732 296 752 296 q 710 281 732 290 q 688 289 704 281 q 663 164 688 267 l 663 161 q 695 110 687 146 q 666 40 695 100 q 608 0 648 0 q 531 77 531 18 q 560 135 531 98 q 615 176 581 176 l 641 176 q 644 197 641 192 q 604 190 612 193 q 516 227 516 197 l 498 230 q 469 227 472 227 l 432 234 q 447 176 447 197 q 410 139 443 139 q 378 157 382 153 q 345 117 375 117 q 297 201 309 117 l 297 205 q 319 237 297 229 l 330 237 q 363 216 347 237 q 374 260 374 258 q 366 292 374 269 q 389 336 378 310 l 355 336 q 319 351 345 336 q 312 326 319 336 q 326 278 326 283 q 294 248 326 255 q 257 285 257 255 l 228 373 q 195 387 228 385 q 140 373 178 380 q 144 361 144 366 q 129 318 144 360 l 129 281 q 144 201 129 260 l 144 197 q 121 172 125 172 l 125 153 l 125 142 q 85 121 114 121 q 49 142 49 121 l 45 168 q 63 216 63 205 l 60 241 q 78 245 66 245 l 78 248 q 41 402 78 279 q 34 446 41 435 q 60 519 44 505 q 49 537 51 519 q 81 705 49 626 q 195 797 104 797 q 187 829 187 821 l 187 840 q 202 899 193 849 q 246 924 232 924 l 271 924 q 326 866 326 905 l 326 826 q 319 786 326 800 q 444 690 368 786 q 527 643 484 656 q 549 621 527 638 q 560 640 557 640 q 538 669 538 664 l 542 676 q 520 753 520 722 l 520 768 q 524 804 520 785 q 520 829 520 819 q 677 968 572 968 m 779 913 q 849 866 795 880 q 867 855 857 855 q 878 859 874 859 l 882 852 l 882 844 l 874 844 l 874 840 q 892 815 889 815 q 918 881 892 838 q 926 910 926 894 q 915 918 915 913 l 907 913 l 904 913 q 874 918 888 913 q 863 913 871 918 q 805 918 826 918 l 798 918 l 779 913 m 323 508 q 330 500 330 507 q 341 505 334 500 q 392 479 376 505 q 436 515 436 479 q 444 526 439 515 q 418 577 432 555 q 444 607 418 597 q 399 625 444 618 q 395 629 399 629 q 345 592 345 629 q 323 508 338 592 m 418 329 l 418 303 q 484 271 418 271 q 520 241 507 241 q 524 237 520 237 l 545 245 q 618 227 578 241 l 626 227 q 666 292 666 273 l 623 300 q 600 278 623 294 l 582 278 q 557 321 557 294 q 494 380 512 321 l 494 384 l 487 384 q 461 369 461 384 q 418 329 449 329 m 790 336 l 790 332 l 827 329 q 820 351 820 341 l 816 351 q 790 336 800 336 m 779 326 l 779 321 l 790 321 l 790 326 l 779 326 m 794 321 l 794 318 l 802 318 l 802 321 l 794 321 m 747 307 l 747 303 q 834 281 798 292 l 838 303 q 827 300 831 300 q 765 314 808 300 q 747 307 753 307 z "},"3":{"ha":953,"x_min":41,"x_max":916,"o":"m 621 970 q 699 948 668 970 q 717 952 711 948 l 732 948 q 820 956 814 956 q 824 952 824 956 l 842 956 l 861 956 q 897 930 881 956 l 897 919 q 871 820 884 835 q 846 724 861 796 q 853 717 853 723 l 850 709 q 864 621 864 638 l 864 595 q 824 533 864 571 q 812 434 812 479 l 812 386 q 838 334 829 334 q 857 371 838 371 q 879 360 879 368 l 879 357 q 857 349 879 349 l 857 323 l 879 342 l 886 342 q 916 298 916 342 q 882 210 907 210 l 868 210 q 846 276 846 210 l 842 276 q 835 264 842 264 l 824 264 l 809 287 q 713 301 728 301 l 695 290 l 669 290 q 665 272 669 278 l 669 264 q 651 187 669 252 l 651 165 q 684 88 684 133 q 647 15 675 88 q 610 0 621 0 l 592 0 q 522 70 522 20 l 522 73 q 551 132 522 98 q 610 180 551 165 q 625 176 617 176 l 625 195 l 566 191 q 500 220 509 191 l 481 224 q 434 220 450 220 l 416 224 l 416 220 q 431 155 431 195 q 397 129 420 129 l 387 129 q 364 136 379 136 q 331 103 359 103 q 283 158 300 103 q 250 151 260 151 q 162 202 211 151 l 162 220 q 165 224 162 224 l 162 231 l 162 257 q 173 283 162 270 q 147 452 147 405 q 162 518 147 469 q 158 530 158 526 l 133 530 q 107 629 127 530 q 74 680 100 630 q 48 732 48 702 l 48 758 l 52 764 l 41 772 q 103 886 64 863 q 228 923 132 904 q 441 867 441 890 q 475 842 446 867 l 478 842 q 621 970 530 970 m 758 926 l 728 926 q 794 878 742 892 q 835 860 835 865 q 827 853 827 859 q 838 827 838 840 l 846 827 l 850 842 l 846 849 q 875 916 861 870 l 868 930 q 758 926 794 926 m 452 699 l 416 644 l 419 618 l 416 600 q 423 595 423 600 q 522 644 522 595 q 500 665 517 644 l 500 676 q 452 699 481 678 m 291 581 q 305 570 291 575 l 305 574 q 298 581 305 581 l 291 581 m 243 541 q 247 530 247 533 q 221 309 231 489 l 221 279 q 247 231 241 258 l 279 202 q 298 224 285 217 l 320 224 q 346 202 344 202 q 353 246 346 221 q 346 276 353 262 q 349 290 349 282 q 335 298 344 290 q 353 368 346 359 l 353 371 q 323 486 342 423 l 323 511 q 243 541 251 541 m 405 375 l 405 368 q 467 323 412 368 q 504 298 485 323 l 504 294 q 471 276 504 283 l 456 276 l 397 287 l 397 283 q 475 257 397 269 q 511 231 475 241 q 519 239 513 239 l 548 239 q 603 224 559 239 q 647 294 620 224 q 600 301 608 301 q 577 276 600 290 l 559 276 q 530 320 545 282 q 471 371 488 320 l 471 375 l 467 375 q 416 371 447 375 q 405 375 408 375 m 791 360 q 772 342 772 345 q 805 338 791 342 q 791 360 797 360 m 754 334 l 754 331 q 802 323 798 323 l 805 323 l 805 327 q 761 334 768 334 l 754 334 m 724 313 l 724 309 l 812 294 l 812 313 q 809 309 809 313 q 747 323 771 313 q 724 313 730 313 z "},"4":{"ha":1168,"x_min":34,"x_max":1135,"o":"m 341 970 q 500 938 373 970 q 550 966 500 953 l 587 966 q 652 884 634 966 l 652 868 q 636 831 652 853 l 640 831 q 713 897 659 831 l 726 897 q 980 815 811 849 l 1000 815 q 1049 864 1004 815 q 1095 901 1089 901 q 1135 884 1135 897 q 1049 782 1135 845 q 1025 749 1049 777 q 1021 741 1025 741 l 1078 471 l 1078 450 q 992 393 1078 420 l 968 287 q 1008 225 1008 275 q 964 164 1008 197 l 964 155 q 1000 135 968 151 q 1033 62 1033 111 q 964 0 1016 0 l 947 0 q 869 70 869 19 l 869 86 q 882 119 869 98 l 878 127 l 882 135 q 812 221 882 166 l 730 221 q 713 225 721 221 q 701 221 706 221 q 619 254 635 221 l 566 344 l 562 344 q 538 279 561 306 q 542 275 542 279 l 562 279 l 566 279 q 619 229 619 264 l 619 209 l 587 151 l 562 147 q 570 102 570 119 q 558 86 564 86 q 562 82 558 82 q 500 20 550 20 l 488 20 q 431 90 441 20 l 435 98 q 431 115 431 105 q 444 127 437 115 q 370 143 380 143 q 423 111 372 132 l 427 90 q 374 70 399 70 l 357 70 q 231 111 231 83 q 239 147 239 137 l 239 172 q 251 184 239 175 q 202 352 221 242 q 206 434 206 408 l 202 434 q 149 422 193 434 q 104 549 131 454 q 83 602 92 549 q 46 700 75 606 q 34 709 34 700 l 34 721 q 50 745 50 737 l 46 782 q 202 930 111 892 q 341 970 250 970 m 1062 840 l 1053 827 l 1057 827 l 1066 840 l 1062 840 m 595 770 q 587 778 587 770 q 558 770 578 778 q 652 635 558 745 q 722 557 662 600 q 755 553 738 553 l 767 553 l 767 557 q 726 623 751 557 q 681 741 707 741 q 628 798 681 749 q 623 815 623 806 q 599 770 614 815 l 595 770 m 1013 786 l 1017 786 q 1037 806 1022 786 l 1033 806 q 1013 786 1029 806 m 353 667 l 349 667 q 345 671 345 667 q 321 663 332 663 l 309 663 l 309 651 l 329 618 l 329 606 q 341 463 341 505 q 337 438 337 441 q 357 245 347 410 q 402 213 361 235 q 452 184 433 184 q 460 217 452 191 l 448 209 l 444 217 q 480 271 444 227 l 513 364 l 505 364 q 448 393 481 364 q 419 414 429 393 q 496 483 443 414 l 517 483 q 513 496 517 488 q 534 565 517 550 l 534 569 q 423 692 478 599 l 423 696 l 419 696 l 353 667 m 522 688 l 522 684 q 534 671 522 678 q 522 688 528 688 m 562 541 q 546 520 546 522 l 546 516 q 570 492 546 510 l 578 492 q 607 520 591 496 q 562 541 607 530 m 288 283 l 288 279 q 296 221 296 227 q 304 229 304 221 l 292 283 l 288 283 m 857 221 q 898 172 863 214 l 898 180 q 878 221 878 207 l 857 221 m 480 197 l 480 172 q 505 176 486 176 l 500 197 l 500 213 l 496 213 q 480 197 490 213 m 914 176 l 914 155 l 935 151 l 935 164 q 914 176 935 171 z "},"5":{"ha":1015,"x_min":22,"x_max":1000,"o":"m 197 66 q 288 98 254 61 q 319 178 319 130 q 290 260 320 227 q 201 290 257 296 q 125 251 152 286 q 100 178 100 220 q 126 104 101 135 q 197 66 153 71 m 633 785 q 430 580 568 718 q 229 376 292 442 q 222 372 228 375 q 215 368 217 370 q 213 353 206 361 q 336 304 290 351 q 386 172 385 256 q 818 604 618 393 q 802 769 780 689 q 633 785 732 748 m 763 958 q 901 898 842 949 q 977 779 956 850 q 981 641 1000 709 q 897 518 960 567 q 871 535 886 519 q 849 545 858 549 q 456 149 505 197 q 315 23 347 39 q 191 3 254 -7 q 88 53 132 12 q 34 153 45 95 q 52 279 22 216 q 178 416 63 301 l 578 817 q 564 842 578 827 q 555 867 552 855 q 625 925 561 892 q 724 958 688 957 l 763 958 z "},"6":{"ha":1093,"x_min":26,"x_max":1080,"o":"m 795 217 q 831 218 787 218 q 859 210 853 218 l 859 193 q 835 177 857 178 q 815 177 829 176 q 795 177 801 178 l 795 217 m 795 306 q 851 298 837 308 l 851 274 q 795 266 843 266 l 795 306 m 722 125 q 873 129 848 124 q 932 214 951 144 q 916 233 928 224 q 892 250 888 253 q 924 298 925 259 q 855 353 922 344 q 726 355 849 354 q 722 242 721 315 q 722 125 723 144 m 262 282 q 286 214 276 268 l 241 214 q 262 282 259 260 m 306 161 q 310 142 306 153 q 314 125 315 132 l 387 125 q 350 238 378 165 q 306 355 315 326 l 229 355 q 144 125 153 153 l 217 125 q 229 161 220 147 l 306 161 m 1004 64 l 653 64 q 653 242 654 96 q 657 415 652 352 l 1004 415 l 1004 64 m 1057 468 q 601 468 829 490 q 593 229 593 446 q 601 7 593 33 q 1057 7 829 -3 q 1057 468 1080 239 m 444 64 l 92 64 q 92 242 93 96 q 96 415 91 352 l 444 415 l 444 64 m 40 468 q 36 12 26 351 q 496 12 267 -12 q 496 468 519 239 q 40 468 267 490 m 407 617 q 499 624 462 606 q 549 694 540 644 q 488 714 538 701 q 463 675 485 688 q 415 677 439 663 q 404 756 395 713 q 460 795 412 806 q 475 781 468 793 q 492 766 483 768 q 549 779 507 768 q 469 849 542 836 q 359 823 398 861 q 332 704 313 779 q 407 617 349 629 m 617 908 l 617 557 l 266 557 q 265 734 267 588 q 270 908 264 844 l 617 908 m 210 504 q 669 504 440 481 q 669 964 692 734 q 217 968 551 979 q 199 865 199 932 q 200 804 199 844 q 201 742 201 760 q 210 504 201 543 z "},"7":{"ha":1324,"x_min":26,"x_max":1301,"o":"m 859 331 q 801 273 820 315 q 791 189 784 235 q 828 115 799 143 q 911 85 861 83 q 876 186 886 120 q 890 309 863 262 q 875 321 885 311 q 859 331 867 329 m 1218 252 q 1138 342 1206 314 q 1008 327 1067 370 q 1072 298 1019 315 q 1117 256 1114 283 q 1053 217 1124 197 q 996 239 1031 223 q 955 256 960 255 q 981 131 938 178 q 1084 90 1020 90 q 1188 131 1148 90 q 1218 252 1233 177 m 281 484 q 145 410 193 472 q 104 279 102 355 q 151 152 106 206 q 276 85 199 94 q 421 127 362 77 q 490 245 475 172 q 475 379 505 318 q 368 467 441 446 q 351 330 369 468 q 298 243 340 242 q 263 273 269 244 q 267 341 258 296 q 285 484 290 468 l 281 484 m 404 677 q 793 497 666 623 q 854 559 827 525 q 785 561 800 557 q 753 593 755 567 q 1043 682 749 661 q 1057 621 1059 663 q 1038 563 1054 580 q 928 520 974 566 q 892 479 919 511 q 854 440 871 453 q 914 422 866 422 q 986 410 968 421 q 1051 432 1047 431 q 1230 381 1162 446 q 1296 231 1291 323 q 1247 73 1301 138 q 1082 3 1187 1 q 999 20 1069 3 q 841 15 917 -18 q 734 117 772 44 q 709 260 696 188 q 798 383 724 340 q 390 593 639 555 q 401 544 374 559 q 428 532 408 541 q 456 519 447 525 q 548 417 515 479 q 578 248 589 340 q 486 71 566 140 q 298 3 407 2 q 97 92 172 3 q 27 286 28 172 q 94 479 26 401 q 302 563 170 566 q 333 747 310 603 q 353 854 348 838 q 404 935 369 916 q 554 964 449 961 q 671 922 671 968 q 643 888 671 899 q 578 878 622 881 q 452 861 467 873 q 417 779 420 838 q 404 677 414 703 z "},"8":{"ha":1282,"x_min":34,"x_max":1247,"o":"m 789 974 l 798 974 q 1104 882 913 911 q 1197 974 1114 904 l 1201 974 q 1247 961 1247 974 l 1247 953 q 1130 819 1247 926 l 1125 798 l 1125 777 q 1163 600 1137 759 q 1188 487 1184 548 q 1113 433 1188 465 l 1113 437 q 1075 345 1082 437 q 1062 315 1069 345 q 1109 248 1109 294 q 1058 180 1109 206 l 1058 168 l 1096 147 q 1134 84 1134 122 l 1134 71 q 1062 0 1122 0 l 1033 0 q 958 80 958 26 l 958 84 q 970 130 958 95 l 966 138 q 970 142 966 142 q 899 239 970 180 l 895 239 q 714 243 732 243 q 630 374 666 304 l 622 374 l 622 370 q 601 311 622 329 l 601 298 l 630 302 q 689 239 689 288 q 626 155 663 155 q 634 122 634 129 q 563 21 614 21 l 559 21 q 483 96 483 29 l 483 101 q 487 105 483 105 l 483 113 l 483 122 q 513 235 500 134 l 500 227 l 496 235 q 555 349 555 324 q 567 395 567 384 q 559 399 559 395 l 550 395 q 529 399 545 399 q 479 357 529 378 q 425 328 479 346 q 336 239 408 239 q 391 201 336 227 l 391 197 q 340 172 384 172 q 223 201 328 172 l 223 197 q 281 117 223 159 l 290 105 l 290 92 q 235 71 290 80 q 135 138 181 71 q 114 159 123 138 q 143 235 123 235 l 143 239 q 76 277 116 241 q 63 273 68 273 l 38 349 l 38 366 l 34 407 q 72 487 52 426 q 105 554 83 487 q 235 718 166 671 q 286 751 241 718 q 277 819 277 795 q 340 894 293 894 l 370 894 q 454 777 454 894 q 462 755 462 777 q 441 718 452 755 q 420 692 437 718 l 408 692 q 462 533 439 533 q 563 609 512 544 q 617 629 565 609 l 622 629 l 634 621 l 651 629 q 705 600 683 618 l 840 600 q 772 793 810 631 q 693 873 762 793 l 693 890 q 735 911 693 899 l 789 974 m 1176 920 q 1113 852 1176 916 l 1113 848 q 1180 920 1136 865 l 1176 920 m 609 588 q 605 571 609 571 q 651 533 606 557 l 655 533 q 672 567 655 546 q 630 588 645 588 l 609 588 m 559 529 l 559 525 q 567 516 560 516 l 584 516 l 571 533 q 559 529 563 529 m 361 483 q 399 470 395 470 l 404 479 q 382 516 391 479 l 378 516 q 361 483 361 511 m 504 470 l 508 470 q 517 479 517 470 l 517 483 q 504 470 511 483 m 945 239 q 983 189 983 198 l 991 189 l 991 197 q 966 239 966 222 l 945 239 m 534 184 q 563 193 546 193 q 559 235 559 194 q 534 184 534 227 m 1004 189 l 1008 180 l 1008 168 q 1025 163 1015 163 l 1029 163 l 1029 176 q 1004 189 1025 189 z "},"9":{"ha":1091,"x_min":32,"x_max":1065,"o":"m 549 326 q 510 353 534 349 q 469 342 488 356 q 445 307 450 328 q 456 258 439 282 q 511 214 468 241 q 553 173 549 191 q 575 204 555 189 q 615 233 572 201 q 658 314 667 271 q 608 351 651 346 q 549 326 564 357 m 557 648 q 578 664 570 650 q 584 692 585 677 q 572 715 583 707 q 541 717 561 724 q 519 675 509 706 q 533 655 523 663 q 557 648 545 646 m 1032 113 q 1009 83 1027 96 q 984 73 994 73 q 935 104 954 70 q 917 183 919 136 q 930 264 916 229 q 972 306 945 302 q 1024 286 1008 311 q 1038 205 1036 269 q 1032 113 1041 143 m 521 44 q 425 125 459 60 q 394 264 393 185 q 427 402 395 344 q 525 479 463 467 q 665 425 614 497 q 709 259 711 361 q 660 94 707 158 q 521 44 606 23 m 525 741 q 614 728 576 752 q 658 665 650 707 q 632 564 670 599 q 545 536 599 532 q 463 576 492 541 q 448 677 429 617 q 475 714 455 696 q 525 741 498 735 m 682 793 q 674 757 687 774 q 644 763 653 753 q 641 785 637 772 q 656 802 646 798 q 682 793 669 806 m 171 96 q 122 73 155 71 q 79 109 96 73 q 64 186 64 140 q 77 265 63 232 q 119 306 92 302 q 171 286 155 311 q 184 195 183 266 q 171 96 186 121 m 134 451 q 92 493 98 454 q 122 544 85 532 q 168 539 151 553 q 184 505 183 528 q 173 467 186 483 q 134 451 159 449 m 948 544 q 991 540 975 552 q 1009 509 1006 530 q 1002 472 1012 488 q 972 451 991 454 q 938 460 954 448 q 918 488 924 471 q 919 521 912 506 q 948 544 927 537 m 779 189 q 766 301 775 233 q 751 411 753 386 q 849 410 779 412 q 943 411 913 408 q 1044 495 1042 420 q 1017 564 1046 541 q 940 588 991 583 q 837 589 907 591 q 730 588 762 586 q 743 625 730 601 q 763 677 758 654 q 761 720 765 687 q 763 765 758 751 q 785 787 766 775 q 811 806 808 802 q 835 866 835 831 q 814 927 835 899 q 762 962 794 955 q 690 946 727 970 q 675 927 686 944 q 654 914 666 914 q 553 937 612 936 q 452 914 492 937 q 428 926 440 915 q 408 942 408 943 q 312 947 361 972 q 263 862 260 921 q 289 806 265 829 q 340 769 297 798 q 345 665 328 722 q 376 588 351 646 q 273 588 342 585 q 170 589 200 591 q 91 568 117 585 q 58 503 59 547 q 154 412 56 425 q 250 410 187 408 q 352 411 332 411 q 337 300 349 380 q 323 189 328 231 l 211 189 q 209 281 226 241 q 160 331 194 315 q 95 336 127 347 q 46 290 61 325 q 33 182 32 257 q 46 73 33 109 q 146 2 67 13 q 323 0 159 0 l 766 0 q 962 2 948 0 q 1065 96 1048 17 l 1065 266 q 1021 327 1057 309 q 951 330 989 343 q 895 283 913 318 q 892 189 875 243 l 779 189 m 475 793 q 467 757 480 774 q 437 763 446 753 q 434 785 430 772 q 450 802 439 798 q 475 793 463 806 z "}," ":{"ha":345,"x_min":0,"x_max":0,"o":""},"!":{"ha":2283,"x_min":30,"x_max":2239,"o":"m 1728 68 q 1712 76 1721 76 q 1696 68 1702 76 q 1689 47 1689 62 q 1696 27 1689 35 q 1712 19 1703 19 q 1721 22 1716 19 q 1729 28 1726 24 l 1729 20 l 1742 20 l 1742 95 l 1728 95 l 1728 68 m 1674 68 q 1655 76 1668 76 q 1638 68 1645 76 q 1631 47 1631 60 q 1636 28 1631 36 q 1657 19 1643 19 q 1672 24 1666 19 q 1681 35 1678 28 l 1666 38 q 1663 32 1665 34 q 1657 30 1660 30 q 1649 33 1652 30 q 1645 43 1645 37 l 1681 43 q 1674 68 1681 60 m 1603 41 l 1624 64 l 1624 75 l 1579 75 l 1579 62 l 1598 63 q 1605 63 1603 63 q 1597 55 1603 60 l 1577 32 l 1577 20 l 1626 20 l 1626 33 l 1603 33 q 1596 33 1602 33 l 1603 41 m 1554 20 l 1569 20 l 1569 75 l 1554 75 l 1554 20 m 1554 82 l 1569 82 l 1569 95 l 1554 95 l 1554 82 m 1532 74 q 1526 67 1529 73 l 1526 75 l 1513 75 l 1513 20 l 1527 20 l 1527 37 q 1529 56 1527 51 q 1532 61 1529 60 q 1537 63 1534 63 q 1544 60 1540 63 l 1548 73 q 1539 76 1544 76 q 1532 74 1535 76 m 1474 76 q 1460 72 1466 76 q 1450 62 1454 68 q 1447 48 1447 56 q 1450 33 1447 39 q 1460 22 1454 26 q 1474 19 1467 19 q 1495 27 1487 19 q 1502 47 1502 35 q 1495 68 1502 60 q 1474 76 1487 76 m 1434 31 q 1432 32 1433 31 q 1430 34 1431 33 q 1430 41 1430 35 l 1430 63 l 1440 63 l 1440 75 l 1430 75 l 1430 94 l 1416 85 l 1416 75 l 1409 75 l 1409 63 l 1416 63 l 1416 39 q 1417 30 1416 32 q 1419 24 1417 26 q 1423 20 1420 22 q 1430 19 1426 19 q 1441 22 1436 19 l 1440 33 q 1434 31 1436 31 m 1388 33 q 1381 31 1385 31 q 1372 35 1375 31 q 1369 48 1369 39 q 1372 61 1369 57 q 1381 64 1375 64 q 1387 62 1385 64 q 1390 56 1390 60 l 1404 58 q 1396 71 1402 67 q 1381 76 1390 76 q 1361 68 1369 76 q 1354 47 1354 61 q 1361 26 1354 34 q 1380 19 1369 19 q 1397 24 1391 19 q 1405 39 1403 29 l 1391 41 q 1388 33 1390 35 m 1339 68 q 1320 76 1332 76 q 1302 68 1310 76 q 1295 47 1295 60 q 1301 28 1295 36 q 1322 19 1308 19 q 1337 24 1331 19 q 1345 35 1342 28 l 1331 38 q 1327 32 1330 34 q 1322 30 1325 30 q 1314 33 1317 30 q 1310 43 1310 37 l 1345 43 q 1339 68 1346 60 m 1282 95 l 1263 40 l 1244 95 l 1228 95 l 1255 20 l 1271 20 l 1298 95 l 1282 95 m 1179 68 q 1163 76 1172 76 q 1147 68 1153 76 q 1140 47 1140 62 q 1147 27 1140 35 q 1163 19 1154 19 q 1172 22 1167 19 q 1179 28 1177 24 l 1179 20 l 1193 20 l 1193 95 l 1179 95 l 1179 68 m 1125 70 q 1120 74 1123 73 q 1111 76 1116 76 q 1093 66 1100 76 l 1093 75 l 1080 75 l 1080 20 l 1094 20 l 1094 45 q 1095 58 1094 54 q 1099 63 1097 61 q 1106 65 1102 65 q 1111 63 1109 65 q 1114 60 1113 62 q 1115 48 1115 57 l 1115 20 l 1129 20 l 1129 54 q 1128 64 1129 60 q 1125 70 1127 67 m 1066 55 q 1064 68 1066 64 q 1057 73 1062 71 q 1043 76 1053 76 q 1027 72 1033 76 q 1020 60 1022 68 l 1033 58 q 1036 63 1034 62 q 1042 65 1038 65 q 1050 63 1048 65 q 1052 57 1052 61 l 1052 56 q 1038 52 1048 54 q 1027 49 1031 51 q 1021 43 1023 47 q 1018 35 1018 40 q 1023 24 1018 28 q 1036 19 1028 19 q 1045 21 1041 19 q 1053 26 1049 23 q 1053 24 1053 26 q 1055 20 1055 22 l 1069 20 q 1066 28 1067 24 q 1065 38 1065 31 l 1066 55 m 965 68 q 949 76 958 76 q 932 68 939 76 q 926 47 926 62 q 933 27 926 35 q 949 19 940 19 q 958 22 954 19 q 966 28 962 24 l 966 20 l 979 20 l 979 95 l 965 95 l 965 68 m 911 68 q 892 76 904 76 q 875 68 882 76 q 867 47 867 60 q 873 28 867 36 q 894 19 880 19 q 909 24 903 19 q 917 35 914 28 l 903 38 q 899 32 902 34 q 894 30 897 30 q 886 33 889 30 q 882 43 882 37 l 918 43 q 911 68 918 60 m 843 20 l 857 20 l 857 95 l 843 95 l 843 20 m 814 82 l 828 82 l 828 95 l 814 95 l 814 82 m 814 20 l 828 20 l 828 75 l 814 75 l 814 20 m 780 76 q 770 73 774 76 q 763 66 766 71 l 763 75 l 750 75 l 750 0 l 764 0 l 764 27 q 772 21 768 23 q 780 19 775 19 q 796 27 789 19 q 802 47 802 35 q 796 68 802 61 q 780 76 789 76 m 728 73 q 718 76 724 76 q 709 73 713 76 q 702 67 705 71 q 696 73 699 71 q 687 76 692 76 q 670 67 677 76 l 670 75 l 656 75 l 656 20 l 671 20 l 671 47 q 672 58 671 54 q 676 63 673 61 q 682 65 679 65 q 686 64 685 65 q 688 60 688 62 q 689 50 689 58 l 689 20 l 704 20 l 704 46 q 705 58 704 54 q 709 63 706 61 q 714 65 711 65 q 720 62 718 65 q 722 52 722 60 l 722 20 l 736 20 l 736 55 q 734 66 736 63 q 728 73 732 71 m 618 76 q 604 72 611 76 q 595 62 598 68 q 591 48 591 56 q 595 33 591 39 q 605 22 598 26 q 619 19 612 19 q 639 27 631 19 q 646 47 646 35 q 639 68 646 60 q 618 76 631 76 m 561 36 q 551 32 556 32 q 537 38 543 32 q 532 58 532 44 q 537 77 532 71 q 551 83 543 83 q 561 80 557 83 q 566 71 565 77 l 581 75 q 574 88 578 83 q 551 96 565 96 q 526 86 536 96 q 517 57 517 76 q 526 29 517 39 q 551 19 536 19 q 570 25 562 19 q 581 43 578 31 l 567 48 q 561 36 565 40 m 1466 134 l 1466 278 l 1518 278 l 1518 308 l 1379 308 l 1379 278 l 1431 278 l 1431 134 l 1466 134 m 1669 278 l 1669 308 l 1540 308 l 1540 134 l 1672 134 l 1672 163 l 1575 163 l 1575 210 l 1662 210 l 1662 240 l 1575 240 l 1575 278 l 1669 278 m 1171 212 q 1170 182 1171 191 q 1161 167 1168 173 q 1138 161 1153 161 q 1115 168 1124 161 q 1104 184 1107 174 q 1103 214 1103 191 l 1103 308 l 1068 308 l 1068 215 q 1072 171 1068 186 q 1081 152 1074 161 q 1101 137 1088 142 q 1139 131 1114 131 q 1173 136 1160 131 q 1193 151 1185 142 q 1204 172 1201 159 q 1206 216 1206 185 l 1206 308 l 1171 308 l 1171 212 m 1282 134 l 1318 134 l 1318 278 l 1369 278 l 1369 308 l 1231 308 l 1231 278 l 1282 278 l 1282 134 m 1980 210 l 2067 210 l 2067 240 l 1980 240 l 1980 278 l 2074 278 l 2074 308 l 1945 308 l 1945 134 l 2077 134 l 2077 163 l 1980 163 l 1980 210 m 2233 212 q 2213 230 2225 224 q 2175 242 2201 237 q 2143 254 2150 248 q 2138 264 2138 258 q 2143 275 2138 271 q 2167 281 2152 281 q 2190 276 2182 281 q 2199 256 2197 270 l 2235 258 q 2217 296 2233 282 q 2167 311 2201 311 q 2134 304 2148 311 q 2112 287 2119 298 q 2104 262 2104 275 q 2120 227 2104 241 q 2160 210 2131 217 q 2188 203 2182 205 q 2201 195 2197 199 q 2204 184 2204 191 q 2195 168 2204 175 q 2170 161 2187 161 q 2144 169 2154 161 q 2132 194 2135 176 l 2098 191 q 2119 146 2102 161 q 2169 131 2137 131 q 2207 137 2193 131 q 2231 157 2222 144 q 2239 184 2239 170 q 2233 212 2239 201 m 1877 134 l 1910 134 l 1910 168 l 1877 168 l 1877 134 m 1817 196 q 1799 211 1810 204 q 1833 227 1822 214 q 1845 259 1845 239 q 1836 286 1845 275 q 1817 303 1829 298 q 1776 308 1804 308 l 1702 308 l 1702 134 l 1737 134 l 1737 206 l 1744 206 q 1762 205 1756 206 q 1773 197 1767 203 q 1791 172 1777 192 l 1816 134 l 1858 134 l 1837 168 q 1817 196 1825 188 m 1004 198 q 989 170 1000 179 q 966 161 979 161 q 935 175 947 161 q 923 222 923 189 q 935 267 923 253 q 966 281 947 281 q 990 273 980 281 q 1003 252 1000 265 l 1038 260 q 1020 292 1031 281 q 968 311 1000 311 q 909 287 932 311 q 887 219 887 262 q 909 155 887 178 q 966 131 931 131 q 1012 144 994 131 q 1038 187 1030 159 l 1004 198 m 260 186 l 229 308 l 188 308 l 156 189 l 130 308 l 94 308 l 136 134 l 174 134 l 208 264 l 243 134 l 280 134 l 322 308 l 287 308 l 260 186 m 417 311 q 379 304 395 311 q 357 288 367 298 q 340 264 347 277 q 333 220 333 246 q 355 155 333 178 q 417 131 378 131 q 479 155 456 131 q 501 220 501 178 q 478 287 501 263 q 417 311 455 311 m 568 304 q 546 288 556 298 q 530 264 536 277 q 522 220 522 246 q 545 155 522 178 q 606 131 568 131 q 667 155 644 131 q 690 220 690 178 q 667 287 690 263 q 606 311 644 311 q 568 304 585 311 m 841 288 q 814 304 830 300 q 781 308 803 308 l 718 308 l 718 134 l 783 134 q 814 138 803 134 q 839 151 830 142 q 858 182 851 163 q 863 219 863 198 q 857 260 863 243 q 841 288 852 277 m 1282 336 q 1413 406 1335 330 q 1519 559 1457 448 q 1622 721 1589 682 q 1663 728 1648 713 q 1676 761 1676 740 q 1663 789 1675 781 q 1631 781 1650 798 q 1636 761 1627 770 q 1643 755 1643 755 q 1643 748 1645 751 q 1602 749 1630 747 q 1565 748 1578 751 q 1550 715 1553 736 q 1511 656 1539 700 q 1469 593 1486 616 q 1432 547 1439 554 q 1382 536 1407 524 q 1491 718 1396 575 q 1518 724 1506 715 q 1531 746 1529 732 q 1528 768 1535 760 q 1506 775 1522 778 q 1506 760 1499 770 q 1510 752 1509 754 q 1506 745 1510 748 q 1453 753 1501 745 q 1413 739 1420 759 q 1426 729 1415 729 q 1435 730 1430 728 q 1441 730 1440 730 q 1404 683 1429 711 q 1368 636 1378 650 q 1323 515 1327 578 q 1391 463 1352 469 q 1367 435 1380 454 q 1346 404 1350 408 q 1273 372 1319 369 q 1260 430 1258 385 q 1271 422 1261 430 q 1285 418 1277 417 q 1305 431 1298 420 q 1313 452 1312 439 q 1308 472 1313 463 q 1292 485 1301 481 q 1247 471 1263 492 q 1233 421 1233 454 q 1245 366 1233 390 q 1282 336 1259 339 m 1011 739 q 1046 749 1033 739 q 1065 775 1057 758 q 1071 790 1065 778 q 1078 804 1075 799 q 1098 825 1086 819 q 1071 711 1088 781 q 1043 597 1048 615 q 1005 361 1011 462 q 1050 363 1023 353 q 1096 384 1052 363 q 1194 472 1157 413 q 1230 587 1227 526 q 1213 667 1232 637 q 1163 684 1197 694 q 1116 655 1138 677 q 1143 762 1118 667 q 1154 873 1161 828 q 1074 834 1105 869 q 1051 802 1064 823 q 1030 771 1036 778 q 1011 808 1026 805 q 988 792 999 810 q 981 758 977 774 q 1011 739 986 739 m 886 441 q 901 458 897 454 q 935 486 918 478 q 945 470 944 482 q 930 462 945 469 q 918 450 920 457 q 925 426 922 433 q 937 414 929 418 q 967 425 956 407 q 976 468 977 441 q 961 511 974 495 q 920 523 945 530 q 897 498 910 520 q 876 465 878 467 q 849 436 858 444 q 818 422 833 425 q 866 524 831 468 q 924 617 918 608 q 954 635 943 623 q 960 667 964 649 q 942 685 955 683 q 921 678 931 686 q 911 660 910 670 q 932 642 913 648 q 881 633 913 632 q 826 631 841 635 q 715 564 770 617 q 651 450 656 507 q 662 398 647 412 q 699 395 675 387 q 743 416 720 401 q 770 442 762 431 q 770 416 766 429 q 781 395 773 403 q 836 397 812 387 q 871 423 854 404 q 886 441 878 429 m 589 460 q 627 541 621 496 q 614 627 634 587 q 543 689 591 669 q 610 726 582 697 q 648 791 637 753 q 648 865 658 829 q 607 928 638 903 q 418 954 540 983 q 235 854 306 927 q 210 817 223 843 q 190 783 197 791 q 132 744 167 758 q 63 744 91 728 q 64 755 64 747 q 65 767 64 763 q 76 785 67 781 q 78 757 69 771 q 99 742 87 743 q 133 756 121 741 q 142 788 144 769 q 127 819 140 807 q 89 827 112 832 q 43 787 58 822 q 44 726 30 754 q 79 703 52 710 q 122 699 101 695 q 195 736 161 706 q 254 799 210 749 q 321 863 290 842 q 422 901 365 893 q 391 797 406 865 q 363 693 372 718 q 314 526 322 573 q 314 508 313 521 q 313 490 314 496 q 254 397 300 438 q 142 373 198 349 q 146 422 144 429 q 121 441 142 435 q 83 431 98 448 q 80 382 69 414 q 107 342 90 353 q 163 336 125 331 q 284 381 224 342 q 367 454 335 413 q 427 413 389 425 q 506 412 465 402 q 589 460 556 423 m 1933 342 q 1940 338 1935 341 q 1946 334 1944 335 q 1960 337 1952 332 q 1933 370 1960 363 q 1879 376 1931 371 q 1862 440 1863 410 q 2026 551 1905 459 q 2124 389 2055 459 q 2123 370 2121 382 q 2121 352 2126 359 q 2138 355 2131 350 q 2148 364 2148 364 q 2195 359 2157 364 q 2235 364 2220 355 l 2235 372 q 2215 384 2230 379 q 2193 394 2198 389 q 2171 437 2181 404 q 2153 487 2160 477 q 2136 507 2149 494 q 2119 528 2124 520 q 2095 581 2108 548 q 2075 631 2080 621 q 2090 645 2074 630 q 2089 666 2098 652 q 2131 695 2085 665 q 2127 739 2121 713 q 2136 808 2138 799 q 2070 885 2129 854 q 1955 901 2011 916 q 1887 854 1911 890 q 1872 759 1859 813 q 1883 736 1873 753 q 1889 713 1890 723 q 1817 671 1868 696 q 1717 637 1761 643 q 1579 492 1605 620 q 1567 509 1573 495 q 1552 522 1563 521 q 1525 490 1539 522 q 1499 452 1510 456 l 1499 428 q 1518 389 1518 383 q 1527 388 1523 386 q 1535 391 1534 391 q 1544 374 1537 384 q 1552 359 1551 363 q 1600 348 1571 343 q 1625 355 1609 349 q 1651 361 1644 360 q 1663 383 1657 368 q 1673 406 1670 401 q 1701 389 1683 401 q 1730 371 1721 376 q 1801 367 1767 352 q 1836 336 1806 345 q 1889 320 1891 319 q 1893 335 1896 336 q 1930 330 1891 334 q 1933 334 1933 330 q 1933 342 1933 341 z "},"\"":{"ha":1298,"x_min":30,"x_max":1298,"o":"m 195 603 q 128 649 151 643 q 100 702 123 677 q 79 722 92 709 q 58 741 63 735 q 33 669 30 707 q 60 609 35 635 q 121 581 85 583 q 195 603 160 577 m 346 151 q 436 340 369 273 q 634 402 513 416 q 872 160 802 382 q 612 109 770 111 q 346 151 456 106 m 170 762 q 153 791 151 762 q 168 795 158 795 q 183 791 178 795 q 184 773 187 781 q 170 762 180 764 m 1061 816 q 958 773 1001 811 q 889 690 932 751 q 555 720 808 735 q 511 848 551 791 q 412 934 474 903 q 279 965 349 965 q 137 928 204 964 q 143 892 135 919 q 153 849 153 862 q 74 762 81 776 q 103 730 83 750 q 133 699 124 710 q 174 694 161 706 q 249 753 202 718 q 325 812 309 800 q 332 842 320 831 q 359 851 342 852 q 385 840 376 850 q 387 808 395 827 q 369 793 383 797 q 337 795 354 788 q 255 731 321 776 q 183 657 201 694 q 224 611 178 635 q 262 623 238 620 q 304 620 286 626 q 308 613 304 616 q 313 607 312 610 q 295 511 315 565 q 276 467 290 498 q 258 423 264 439 q 191 239 189 232 q 124 262 165 271 q 83 210 81 254 q 112 165 83 189 q 170 126 121 158 q 563 1 349 12 q 1031 126 814 -12 q 1087 162 1086 161 q 1119 214 1120 188 q 1088 259 1118 248 q 1023 256 1060 269 q 958 431 961 420 q 943 644 928 538 q 1002 673 971 673 q 1055 650 1031 673 q 1088 591 1078 627 q 1090 511 1099 552 q 1261 507 1143 513 q 1240 731 1298 639 q 1061 816 1181 825 z "},"#":{"ha":1093,"x_min":24,"x_max":1072,"o":"m 511 480 q 382 439 433 488 q 346 321 332 390 q 428 217 360 252 q 572 191 489 185 q 715 237 654 196 q 795 349 783 280 q 659 419 757 359 q 511 480 570 474 m 409 828 q 385 853 403 846 q 349 854 368 859 q 320 835 330 849 q 317 799 310 819 q 347 832 326 831 q 377 815 363 833 q 385 780 391 797 q 341 760 376 761 q 401 777 381 753 q 409 828 418 798 m 583 572 q 677 506 578 574 q 795 460 741 463 q 994 562 905 456 q 1056 456 1049 517 q 979 203 1072 319 q 749 41 895 98 q 463 5 604 -14 q 220 127 311 25 q 151 353 149 208 q 176 475 153 423 q 254 557 203 533 q 201 629 251 564 q 157 628 182 631 q 114 625 128 625 q 114 650 106 635 q 122 663 117 654 q 129 673 127 670 q 54 736 80 694 q 47 842 24 787 q 109 808 66 838 q 182 784 145 784 q 273 923 201 873 q 425 964 339 968 q 571 913 509 962 q 650 770 639 859 q 638 658 657 715 q 583 572 618 601 z "},"$":{"ha":920,"x_min":58,"x_max":897,"o":"m 448 136 q 439 151 445 144 q 448 136 442 143 m 448 136 q 437 82 458 104 q 387 81 416 58 q 390 149 370 109 q 371 131 385 146 q 347 115 357 116 q 313 125 325 113 q 305 155 303 138 q 321 184 307 174 q 363 191 338 196 q 345 199 357 195 q 326 205 329 204 q 303 231 305 213 q 332 271 298 266 q 382 252 363 276 q 384 296 370 278 q 417 313 395 313 q 447 296 439 313 q 439 241 456 275 q 460 260 444 243 q 490 275 475 275 q 519 260 510 275 q 524 231 528 248 q 505 203 520 214 q 466 195 489 191 q 486 190 472 193 q 503 184 498 186 q 526 165 522 178 q 502 119 536 127 q 448 136 469 111 m 865 844 q 888 881 882 859 q 869 923 897 911 q 852 901 857 921 q 842 870 846 874 q 738 836 821 843 q 619 814 644 827 q 569 764 582 793 q 571 668 551 720 q 589 629 574 660 q 602 594 600 606 q 562 448 618 512 q 429 381 508 387 q 286 430 348 376 q 227 587 218 490 q 242 627 228 602 q 253 664 255 649 q 205 710 251 687 q 150 753 157 734 q 152 814 142 774 q 160 880 163 858 q 134 935 156 913 q 90 947 112 958 q 103 911 87 930 q 123 873 121 888 q 115 799 126 852 q 120 730 106 756 q 163 693 131 709 q 214 657 199 674 q 108 529 129 564 q 60 345 58 448 q 157 109 64 207 q 373 2 247 13 q 651 86 537 -12 q 769 325 758 180 q 666 601 781 486 q 612 659 622 645 q 600 744 585 701 q 721 802 613 785 q 865 844 842 821 m 382 252 q 390 238 385 245 q 382 252 387 245 m 429 224 q 383 191 380 229 q 400 166 385 172 q 429 169 414 161 q 446 192 444 178 q 429 224 449 209 z "},"%":{"ha":713,"x_min":31,"x_max":703,"o":"m 98 587 q 140 595 123 579 q 157 633 155 609 q 149 673 160 658 q 111 684 136 690 q 76 637 84 677 q 98 587 68 596 m 439 869 q 410 897 434 892 q 363 890 388 902 q 328 854 338 878 q 329 798 315 828 q 368 779 345 780 q 407 792 387 779 q 435 826 425 806 q 439 869 445 848 m 427 426 q 432 402 426 422 q 437 369 439 382 q 382 382 412 371 q 382 302 368 343 q 399 228 399 249 q 357 138 399 191 q 319 57 317 85 q 334 28 320 45 q 342 0 347 14 q 293 18 306 -1 q 286 63 283 32 q 296 178 297 172 q 261 230 291 195 q 235 295 235 260 q 214 293 228 296 q 192 292 201 290 q 205 335 196 321 q 75 412 123 341 q 32 564 31 476 q 77 711 33 652 q 212 774 127 777 q 337 713 287 772 q 393 581 382 661 q 374 438 403 503 q 272 345 341 368 q 285 329 272 345 q 296 302 296 315 q 275 300 286 303 q 256 298 262 298 q 297 213 256 270 q 313 117 330 167 q 330 137 317 123 q 349 159 343 151 q 376 214 373 189 q 363 286 378 237 q 353 362 347 332 q 414 477 399 407 q 413 613 429 543 q 355 732 397 683 q 245 795 309 784 q 331 918 278 872 q 470 972 392 971 q 616 913 553 974 q 688 764 678 853 q 630 530 703 623 q 427 426 558 438 z "},"&":{"ha":811,"x_min":25,"x_max":782,"o":"m 494 142 q 553 178 521 151 q 606 216 589 209 q 634 223 612 220 q 664 233 654 226 q 693 349 718 270 q 621 439 671 422 q 539 422 577 454 q 505 388 527 412 q 469 349 481 360 q 463 307 457 304 q 454 302 460 305 q 444 298 447 300 q 426 301 433 294 q 420 380 437 353 q 373 386 399 388 q 350 325 357 372 q 331 259 342 273 q 259 253 295 265 q 210 212 219 239 q 349 174 256 192 q 494 142 460 153 m 479 793 q 385 730 463 762 q 310 655 316 701 q 350 548 301 591 q 452 518 397 506 q 517 567 488 525 q 555 657 545 606 q 551 747 566 710 q 490 798 534 790 q 479 793 479 795 m 558 566 q 599 542 574 554 q 640 521 633 524 q 706 454 685 495 q 753 321 728 412 q 774 169 782 216 q 687 77 767 115 q 537 26 640 54 q 437 0 438 0 q 405 12 424 1 q 373 26 382 24 q 255 47 328 39 q 155 62 180 55 q 81 104 106 74 q 45 206 52 138 q 62 475 25 418 q 106 507 73 494 q 162 534 150 526 q 142 572 160 551 q 125 608 124 593 q 144 640 125 618 q 172 676 168 666 q 201 783 184 699 q 236 888 216 860 q 351 957 275 943 q 494 935 429 972 q 589 779 570 893 q 558 566 607 667 z "},"'":{"ha":1010,"x_min":26,"x_max":996,"o":"m 224 430 q 216 362 225 397 q 212 301 208 332 q 351 143 224 209 q 580 98 473 80 q 666 258 692 117 q 696 263 675 260 q 726 269 716 266 q 770 295 760 276 q 770 332 769 307 q 771 369 771 360 q 751 424 770 412 q 718 405 731 425 q 690 380 704 382 q 586 405 627 389 q 598 491 585 421 q 742 515 701 475 q 745 663 787 560 q 819 690 769 678 q 899 712 884 707 q 972 405 996 608 q 819 115 954 231 q 506 0 687 1 q 170 136 310 -1 q 27 473 28 274 q 87 699 26 591 q 245 871 145 804 q 469 949 349 939 q 721 897 598 959 q 825 804 828 842 q 804 774 824 786 q 759 755 792 766 q 678 700 690 732 q 678 633 666 667 q 703 559 701 570 q 653 553 683 555 q 610 549 618 551 q 549 509 566 543 q 541 429 543 497 q 506 362 538 378 q 512 415 507 380 q 518 465 517 450 q 481 522 521 517 q 443 507 455 526 q 427 467 435 498 q 410 430 420 439 q 365 424 395 415 q 399 457 372 437 q 427 497 421 475 q 420 650 445 579 q 359 714 404 697 q 267 718 319 728 q 180 679 218 707 q 132 614 140 649 q 153 503 117 550 q 189 465 164 488 q 224 430 214 441 z "},"(":{"ha":617,"x_min":16,"x_max":593,"o":"m 193 388 q 188 351 189 383 q 240 300 218 337 q 272 231 248 287 q 345 236 304 216 q 382 311 347 274 q 424 382 420 351 q 312 389 396 390 q 193 388 202 387 m 377 0 q 321 85 323 24 q 372 173 319 146 q 309 197 366 197 q 241 178 254 197 q 267 142 244 163 q 293 104 290 123 q 280 44 299 71 q 235 0 269 29 l 214 0 q 199 56 213 36 q 157 94 189 71 q 92 203 88 143 q 151 325 96 252 q 157 398 147 337 q 146 461 165 450 q 115 427 120 455 q 115 369 112 411 q 113 317 119 331 q 73 298 104 295 q 31 371 46 302 q 26 487 16 437 q 102 583 36 541 q 214 639 106 585 q 157 864 130 771 q 214 935 170 911 q 306 956 254 958 q 396 930 357 954 q 450 864 438 905 q 445 718 471 791 q 418 679 439 703 q 397 639 400 658 q 450 614 405 635 q 506 585 486 597 q 581 492 569 545 q 579 370 593 438 q 528 298 564 296 q 496 325 501 300 q 497 377 492 338 q 496 431 501 415 q 460 461 490 456 q 455 325 454 332 q 498 252 461 299 q 524 178 528 213 q 479 111 519 139 q 444 88 473 106 q 408 63 421 74 q 406 28 407 60 q 393 0 406 8 l 377 0 z "},")":{"ha":1545,"x_min":21,"x_max":1563,"o":"m 632 77 q 908 77 770 58 q 879 138 922 114 q 777 161 840 159 q 671 142 713 163 q 632 77 624 119 m 935 380 q 275 414 957 382 q 262 400 268 412 q 269 397 265 401 q 275 394 273 394 q 847 212 549 191 q 1190 347 1001 223 q 1214 361 1196 351 q 1238 376 1230 370 q 1272 414 1265 395 q 1103 404 1204 420 q 935 380 962 382 m 901 441 q 1150 488 994 440 q 1158 538 1157 508 q 1150 589 1159 573 q 1034 547 1103 545 q 922 595 964 550 q 910 519 916 570 q 901 441 905 462 m 1069 750 q 1120 705 1078 741 q 1167 656 1151 677 q 1204 501 1215 594 q 1441 490 1357 511 q 1487 367 1563 458 q 1263 326 1370 382 q 1097 212 1257 322 q 1116 170 1101 199 q 1137 126 1131 142 q 1143 24 1158 71 q 971 0 1081 1 q 873 1 938 0 q 773 3 804 3 q 403 17 461 3 q 401 117 382 58 q 444 205 411 147 q 279 325 334 296 q 53 367 172 381 q 28 410 35 380 q 33 468 21 441 q 148 497 66 492 q 282 508 273 507 q 290 664 268 597 q 383 750 315 741 q 420 743 395 752 q 471 730 451 732 q 530 724 488 728 q 577 718 562 722 q 632 663 619 708 q 661 709 663 680 q 642 769 660 728 q 620 833 623 812 q 639 892 614 868 q 713 880 684 901 q 755 821 735 863 q 770 785 758 814 q 787 749 780 762 q 834 696 807 710 q 888 794 844 747 q 925 832 895 802 q 962 871 949 855 q 946 924 962 878 q 955 972 937 953 q 1040 950 1002 972 q 1095 896 1077 930 q 1109 825 1114 862 q 1069 750 1103 785 z "},"*":{"ha":529,"x_min":27,"x_max":486,"o":"m 357 972 l 372 969 q 382 972 378 969 q 419 927 414 972 q 425 916 419 916 l 422 902 q 428 885 428 892 q 419 877 428 881 l 419 880 q 422 890 422 884 q 411 865 411 887 l 411 863 q 469 835 412 858 l 478 823 l 478 798 q 461 709 478 762 q 486 442 486 630 l 486 437 q 458 426 486 431 q 444 353 458 397 q 453 325 444 351 q 433 291 445 320 l 414 286 l 406 286 q 397 302 397 288 q 422 367 422 330 q 411 414 419 414 l 408 414 q 397 370 397 376 q 402 345 402 359 q 374 302 389 302 l 374 258 q 402 241 385 241 q 414 218 414 229 q 382 171 414 184 q 341 193 346 183 l 341 208 q 355 246 341 219 l 352 246 q 248 218 248 235 q 201 98 235 176 q 209 79 209 98 l 223 92 l 231 92 q 245 67 245 86 q 218 0 245 20 l 209 0 q 198 20 200 0 l 195 20 q 176 12 185 12 q 161 20 161 13 l 161 39 q 190 104 161 82 q 119 140 181 104 l 117 140 l 117 126 q 66 79 117 90 q 27 112 60 79 l 27 129 q 47 165 27 139 q 75 238 75 231 q 41 263 41 260 l 41 266 q 58 275 41 272 q 55 283 55 280 q 94 308 70 308 l 94 311 l 89 319 l 89 322 q 97 347 89 329 q 77 378 77 365 l 77 392 q 106 412 77 395 q 109 557 106 430 q 148 610 109 581 q 212 639 148 625 l 231 635 l 231 642 q 212 661 224 642 l 212 664 q 223 677 219 677 l 240 677 l 254 675 q 299 753 299 726 q 330 840 299 840 q 363 854 363 849 q 335 919 335 902 q 338 922 338 919 q 332 927 332 922 q 357 969 346 956 l 357 972 m 324 714 q 251 647 316 684 l 248 642 l 248 635 l 268 635 q 321 697 288 669 l 327 709 l 327 714 l 324 714 m 103 384 l 103 375 q 134 367 126 367 l 134 370 q 128 381 128 376 q 134 395 134 390 q 103 384 123 389 m 357 347 l 357 345 l 363 345 l 363 353 q 357 347 357 352 m 355 330 l 355 322 l 363 322 l 363 333 q 355 330 358 330 m 360 314 q 355 300 360 307 l 357 280 l 349 266 l 352 266 q 363 269 357 269 l 363 314 l 360 314 m 327 255 l 327 252 l 344 252 q 352 255 349 255 l 352 258 l 349 258 q 327 255 338 255 m 307 252 l 307 250 l 321 250 l 321 252 l 307 252 m 279 250 q 271 243 279 243 l 271 241 l 273 241 q 302 246 283 246 l 302 250 l 279 250 m 260 241 l 260 238 l 265 238 l 265 241 l 260 241 m 209 171 l 209 168 l 218 168 l 240 227 l 231 227 q 209 171 227 223 m 77 210 q 75 199 75 205 q 134 165 75 194 q 201 134 171 142 l 209 151 q 198 165 205 151 q 212 213 201 186 q 198 199 210 213 q 195 201 195 199 l 190 199 q 184 208 184 199 l 170 201 l 111 213 l 97 213 q 86 210 91 213 l 77 210 z "},"+":{"ha":558,"x_min":34,"x_max":517,"o":"m 239 968 l 243 968 q 282 917 282 968 l 279 917 l 286 905 q 257 843 257 848 q 300 817 288 829 q 354 846 304 831 q 328 903 354 851 q 362 966 328 966 l 376 966 q 411 934 411 963 q 420 917 413 934 l 420 891 q 408 857 414 884 q 496 791 496 831 q 517 709 506 787 q 505 705 512 705 l 505 683 l 508 663 q 479 637 494 656 l 488 626 l 488 623 q 482 617 488 617 q 486 614 482 614 l 482 600 q 500 503 500 518 q 494 457 500 499 q 503 408 494 435 q 508 400 508 408 q 491 382 508 391 l 494 357 q 468 248 491 332 q 479 191 473 239 q 454 163 479 163 l 442 163 q 428 174 429 170 q 434 226 434 207 l 431 231 q 442 274 442 250 l 442 283 q 437 351 437 347 q 439 374 437 354 q 414 414 420 382 l 394 469 l 391 469 q 368 391 382 411 q 376 346 374 382 q 371 303 371 319 l 371 277 q 385 223 380 272 q 342 209 372 214 l 342 205 l 345 200 q 331 149 338 149 l 328 149 q 319 157 324 149 l 319 189 q 314 194 319 194 l 311 174 l 311 123 q 305 100 305 102 l 305 68 l 302 63 q 308 54 308 63 l 311 54 l 311 85 q 317 92 312 92 l 328 92 q 337 75 337 89 l 337 26 q 317 0 337 0 q 308 43 308 9 l 305 43 q 302 28 305 28 l 305 23 l 305 20 q 300 14 305 14 l 294 14 q 286 43 286 14 l 279 43 l 279 26 q 268 0 279 4 l 262 0 q 251 45 253 0 l 251 92 l 237 89 q 194 103 223 89 q 174 106 182 106 q 148 94 170 94 l 137 94 l 117 97 l 117 94 q 123 66 117 87 q 111 17 117 17 l 100 17 q 91 43 91 17 l 94 57 l 91 57 q 79 26 86 57 l 71 26 q 65 57 65 26 l 62 57 q 54 17 60 17 l 39 17 q 34 23 34 17 l 34 60 q 45 109 34 109 l 54 109 q 62 71 62 109 q 71 117 71 71 q 65 140 65 136 q 83 271 73 153 q 79 280 79 277 l 85 294 q 83 303 83 300 l 85 303 q 79 320 79 312 l 79 349 q 105 420 105 379 q 88 437 95 420 q 91 454 91 452 q 88 477 88 470 q 100 517 94 477 l 91 511 l 79 511 q 65 526 76 511 l 65 534 q 85 566 85 554 l 85 583 q 83 697 85 625 q 140 846 103 821 q 199 860 149 852 l 205 869 l 205 877 q 194 900 194 889 l 194 917 q 239 968 202 968 m 311 648 l 308 634 l 314 634 l 314 648 l 311 648 m 111 643 l 111 620 q 117 614 112 614 q 123 643 117 626 l 111 643 m 288 623 l 288 597 q 305 580 288 593 q 311 614 305 596 l 300 623 l 288 623 m 388 477 l 388 471 l 391 471 l 391 477 l 388 477 m 328 323 q 322 260 328 278 l 322 257 l 326 257 q 340 269 326 266 q 331 323 334 295 l 328 323 m 282 220 l 282 200 q 268 165 282 178 l 254 165 q 220 163 235 165 q 117 191 117 170 q 109 200 109 191 l 105 200 q 91 163 105 163 q 117 129 97 129 l 151 129 q 177 114 177 129 l 197 114 l 225 123 q 268 117 268 122 q 291 149 291 129 q 300 157 295 149 l 300 197 l 302 203 q 294 212 298 203 l 300 220 l 300 231 l 297 231 q 282 220 283 224 m 85 111 l 83 106 l 83 77 q 88 66 88 70 l 94 66 q 97 77 94 72 l 94 94 l 94 97 l 100 106 l 85 111 m 277 97 q 279 75 279 77 l 277 54 l 279 54 q 294 100 291 54 q 277 97 290 97 z "},",":{"ha":831,"x_min":33,"x_max":802,"o":"m 34 299 q 139 163 38 212 q 229 127 153 157 q 313 85 285 105 q 349 52 319 82 q 391 31 369 33 q 399 7 390 16 q 418 0 406 -1 q 437 8 429 1 q 446 31 446 17 q 489 56 467 37 q 530 90 522 84 q 614 130 559 109 q 699 167 682 158 q 802 299 793 214 l 34 299 m 545 538 q 522 618 533 556 q 493 692 511 676 q 433 709 479 705 q 361 703 388 713 q 317 633 331 693 q 291 542 298 554 q 231 492 275 515 q 188 472 215 484 q 144 452 152 456 q 66 404 92 429 q 34 325 33 371 l 799 325 q 764 406 796 372 q 690 454 739 431 q 647 472 678 458 q 606 490 621 484 q 545 538 562 513 m 438 722 q 469 816 439 752 q 486 917 495 871 q 458 960 480 945 q 413 972 439 975 q 369 954 387 970 q 347 906 349 935 q 366 813 342 863 q 394 722 391 756 l 438 722 z "},"-":{"ha":856,"x_min":21,"x_max":833,"o":"m 314 495 q 305 332 271 419 q 412 236 338 244 q 490 253 455 231 q 543 313 524 273 q 543 495 587 400 q 429 469 500 469 q 314 495 356 468 m 378 640 q 395 613 380 623 q 427 604 409 604 q 460 612 446 603 q 476 640 475 622 q 427 663 465 663 q 378 640 389 663 m 533 707 q 553 734 555 718 q 538 761 553 749 q 509 769 522 772 q 492 744 494 766 q 513 758 501 758 q 531 748 522 758 q 540 726 539 738 q 533 707 541 714 m 361 747 q 348 768 363 757 q 319 770 333 778 q 301 748 307 764 q 300 721 296 732 q 321 711 305 708 q 309 735 305 723 q 326 751 311 745 q 350 757 338 758 q 361 747 363 756 m 328 912 q 426 934 368 933 q 523 912 486 935 q 574 962 542 946 q 651 966 611 979 q 695 930 680 957 q 709 874 709 905 q 693 819 709 843 q 648 785 676 793 q 659 667 667 733 q 621 569 650 603 q 718 303 734 446 q 807 273 779 304 q 826 185 833 242 q 753 59 817 119 q 624 0 689 -2 q 571 17 592 1 q 543 71 547 35 q 428 52 489 53 q 317 74 359 52 q 290 22 312 41 q 233 0 267 1 q 91 72 159 -2 q 28 222 21 146 q 56 280 31 258 q 136 300 85 306 q 237 566 123 473 q 197 666 208 604 q 210 781 187 733 q 154 833 169 795 q 155 907 141 869 q 201 963 169 946 q 284 963 239 982 q 328 912 313 950 z "},".":{"ha":984,"x_min":47,"x_max":926,"o":"m 458 970 q 461 968 458 968 q 458 943 458 946 q 454 666 458 836 q 439 661 446 661 l 433 661 q 277 921 427 665 q 458 970 397 970 m 263 913 q 416 654 288 869 q 404 644 411 644 q 127 807 135 799 q 263 913 187 885 m 115 790 q 394 631 120 790 l 394 621 q 387 614 394 618 l 52 614 q 47 619 47 614 q 115 790 68 734 m 916 743 l 926 701 l 830 671 q 798 530 798 543 l 798 429 q 676 262 798 302 l 676 220 q 753 171 714 220 q 770 111 770 142 l 770 106 q 686 3 770 34 q 664 0 673 0 l 659 0 q 550 92 577 0 q 547 109 550 106 q 627 216 547 185 l 627 258 l 248 258 l 248 220 q 298 188 282 202 q 328 119 328 153 l 328 104 q 233 0 328 28 l 214 0 q 107 96 133 0 l 107 117 q 199 220 107 193 l 199 258 l 196 258 q 65 349 118 258 q 50 408 50 378 l 50 572 q 55 577 51 577 l 397 577 q 456 540 412 540 q 511 577 485 540 l 751 577 q 788 711 760 577 q 916 743 880 743 m 448 634 l 454 634 q 483 606 483 627 l 483 597 q 456 570 483 576 l 448 570 q 419 604 422 570 q 448 634 427 634 m 169 114 l 169 106 q 214 62 178 62 l 221 62 q 265 106 257 62 l 265 119 q 218 161 265 150 q 169 114 169 152 m 610 111 q 656 62 618 62 l 667 62 q 709 104 709 75 l 709 114 q 661 161 699 161 q 610 111 610 151 z "},"/":{"ha":1162,"x_min":54,"x_max":1132,"o":"m 136 968 q 479 774 143 968 l 479 762 q 470 753 479 758 l 60 753 q 54 759 54 753 q 136 968 79 900 m 1120 911 l 1132 859 l 1014 823 q 974 650 974 666 l 974 525 q 825 322 974 370 l 825 270 q 920 210 872 270 q 941 136 941 174 l 941 130 q 838 3 941 42 q 810 0 821 0 l 804 0 q 671 113 703 0 q 667 134 671 130 q 764 264 667 227 l 764 316 l 300 316 l 300 270 q 361 231 342 248 q 397 146 397 187 l 397 127 q 282 0 397 34 l 258 0 q 127 119 159 0 l 127 142 q 239 270 127 236 l 239 316 l 237 316 q 75 428 140 316 q 57 501 57 463 l 57 701 q 63 707 58 707 l 482 707 q 555 662 502 662 q 622 707 591 662 l 916 707 q 962 871 927 707 q 1120 911 1076 911 m 203 140 l 203 130 q 258 76 214 76 l 267 76 q 321 130 311 76 l 321 146 q 264 197 321 183 q 203 140 203 186 m 743 136 q 801 76 754 76 l 813 76 q 865 127 865 92 l 865 140 q 807 197 852 197 q 743 136 743 185 z "},":":{"ha":1013,"x_min":14,"x_max":990,"o":"m 842 47 q 789 76 810 50 q 768 132 770 100 q 786 189 767 165 q 846 219 806 215 q 916 195 890 224 q 937 133 938 171 q 911 70 935 95 q 842 47 884 42 m 783 250 q 677 353 770 259 q 656 372 675 355 q 620 404 633 391 q 572 458 571 448 q 592 480 572 465 q 611 509 611 494 q 589 543 610 528 q 559 572 564 561 q 583 707 589 624 q 540 827 576 791 l 540 760 q 462 760 501 774 l 462 682 q 418 682 449 681 q 383 682 391 684 l 383 604 l 304 604 l 304 525 l 227 525 l 227 446 q 191 447 221 446 q 160 443 168 448 q 284 406 205 411 q 418 427 365 399 q 448 398 429 423 q 481 376 463 376 q 509 396 492 376 q 532 415 526 416 q 583 364 532 415 q 740 203 601 347 q 722 100 710 150 q 772 28 733 56 q 858 0 811 1 q 944 31 908 -1 q 987 117 983 64 q 962 209 990 165 q 889 266 935 252 q 783 250 838 281 m 191 481 q 191 524 192 488 q 195 560 190 549 l 269 560 l 269 639 l 348 639 q 347 680 349 646 q 352 717 347 707 l 422 717 q 427 756 427 729 q 427 800 426 793 l 505 800 l 505 878 q 458 913 465 911 q 458 876 457 907 q 454 842 459 852 l 379 842 l 379 764 l 301 764 q 301 722 300 758 q 297 686 302 696 l 222 686 q 223 644 222 679 q 218 608 224 618 l 144 608 q 144 566 143 601 q 140 529 145 540 l 73 529 q 191 481 88 471 m 187 643 l 187 721 l 266 721 q 265 763 267 728 q 269 800 264 789 l 344 800 l 344 878 l 422 878 l 422 937 q 248 956 335 973 q 109 882 168 941 q 33 743 50 824 q 50 564 14 655 l 109 564 q 109 606 109 571 q 113 643 107 632 l 187 643 z "},";":{"ha":839,"x_min":33,"x_max":810,"o":"m 508 314 q 528 282 511 307 q 545 247 541 263 q 526 132 565 179 q 432 83 492 90 q 330 109 371 76 q 288 220 283 147 q 304 271 290 247 q 317 292 308 277 q 332 314 328 305 l 243 314 q 235 302 235 311 q 249 91 184 186 q 426 0 311 -2 q 528 29 481 1 q 598 102 572 57 q 597 314 657 205 l 508 314 m 792 497 q 250 505 709 505 l 64 505 q 34 438 33 495 q 49 359 35 394 q 620 351 144 351 q 668 350 635 351 q 715 349 699 349 q 800 366 768 350 q 792 497 810 474 m 549 545 q 586 660 551 597 q 628 762 623 726 q 567 924 640 865 q 396 971 499 981 q 262 915 314 964 q 209 792 210 865 q 249 668 209 739 q 292 545 290 595 l 549 545 z "},"<":{"ha":939,"x_min":29,"x_max":939,"o":"m 370 320 q 353 305 364 316 q 336 291 343 295 q 319 288 327 293 q 303 283 309 283 q 287 233 283 252 q 345 287 345 228 q 366 305 363 302 q 370 320 379 318 m 202 309 q 187 324 195 319 q 202 309 192 315 m 275 229 q 258 281 286 263 q 230 295 250 286 q 202 309 211 303 q 216 283 208 300 q 228 258 224 264 q 275 229 244 229 m 287 291 q 327 302 314 281 q 336 323 331 309 q 345 345 342 339 q 370 366 349 351 q 370 382 383 376 q 320 345 364 366 q 287 291 283 328 m 279 291 q 253 343 282 326 q 226 355 246 347 q 200 368 208 362 q 214 341 206 360 q 229 313 224 321 q 279 291 248 284 m 200 368 q 187 382 194 378 q 200 368 191 374 m 291 345 q 320 353 307 344 q 330 361 323 355 q 341 370 336 367 q 358 413 336 390 q 371 427 369 424 q 370 440 376 435 q 350 416 367 426 q 317 400 348 414 q 292 381 298 391 q 291 345 283 368 m 187 440 q 197 431 191 435 q 187 440 192 437 m 283 353 q 250 402 280 384 q 222 416 245 404 q 197 431 205 424 q 214 401 203 422 q 230 370 224 378 q 283 353 251 338 m 283 412 q 262 457 282 431 q 220 475 243 456 q 187 490 199 492 q 228 433 200 486 q 248 408 238 414 q 283 412 262 401 m 287 407 q 317 410 301 401 q 329 419 321 413 q 341 428 338 426 q 358 471 336 449 q 371 486 369 482 q 370 498 375 492 q 350 475 366 484 q 319 462 347 473 q 287 407 281 446 m 291 461 q 320 469 307 460 q 330 478 323 472 q 341 486 336 484 q 357 528 336 506 q 370 542 368 541 q 370 553 374 549 q 315 517 365 540 q 291 461 277 498 m 197 547 q 187 557 192 553 q 197 547 191 552 m 275 461 q 256 513 289 492 q 226 530 249 519 q 197 547 206 541 q 212 522 204 538 q 225 494 223 498 q 275 461 243 463 m 287 507 q 299 567 310 526 q 288 601 296 576 q 279 631 280 621 q 266 559 281 616 q 287 507 255 520 m 756 75 q 740 96 740 96 q 751 129 734 124 q 783 121 765 134 q 799 94 802 108 q 756 75 795 79 m 744 802 q 642 696 677 789 q 640 524 608 604 q 694 465 648 502 q 740 407 736 432 q 722 315 745 371 q 690 212 694 246 q 701 87 682 142 q 765 25 721 27 q 824 63 801 23 q 848 145 843 96 q 819 295 853 201 q 798 420 787 381 q 840 463 803 436 q 889 511 879 490 q 888 715 939 610 q 828 785 865 762 q 744 802 789 811 m 453 183 l 113 183 q 112 425 113 226 q 117 661 111 573 l 453 661 l 453 183 m 453 836 q 291 851 406 852 q 129 840 185 851 q 37 755 54 824 q 29 590 29 724 l 29 245 q 37 79 29 100 q 140 5 61 18 q 316 0 170 0 q 498 33 464 0 q 533 115 526 59 q 536 229 536 142 l 536 586 q 530 751 536 720 q 453 836 515 814 m 428 972 l 137 972 l 137 873 l 428 873 l 428 972 z "},"=":{"ha":1332,"x_min":27,"x_max":1316,"o":"m 977 548 q 985 539 978 547 q 993 532 989 534 q 1023 529 1004 524 q 1023 570 1031 541 q 996 604 1015 600 q 984 578 998 590 q 977 548 971 566 m 967 733 q 939 836 959 749 q 893 919 924 900 q 893 812 869 881 q 967 733 918 740 m 151 0 q 47 102 69 35 q 56 235 27 162 q 140 357 83 302 q 262 427 199 412 q 313 562 286 520 q 429 631 354 623 q 423 654 436 640 q 393 680 416 661 q 366 704 372 696 q 373 724 358 717 q 450 690 406 722 q 531 650 496 656 q 716 654 580 641 q 911 650 844 667 q 874 770 897 692 q 838 891 849 856 q 689 845 802 889 q 654 827 680 841 q 616 810 629 814 q 550 826 571 794 q 650 882 579 863 q 711 895 667 886 q 772 909 751 903 q 832 932 795 916 q 892 957 879 952 q 1004 966 961 983 q 979 928 1011 932 q 956 924 958 925 q 949 909 947 921 q 1060 548 1060 547 q 1227 477 1161 543 q 1301 328 1286 417 q 1282 172 1316 242 q 1172 75 1247 96 q 1046 73 1107 56 q 941 132 987 88 q 865 372 842 227 q 892 437 871 405 q 912 463 900 448 q 931 486 927 481 q 953 536 951 513 q 930 604 955 566 q 654 597 827 608 q 382 585 458 585 q 338 517 350 543 q 327 418 320 474 q 404 323 385 386 q 401 197 419 267 q 342 78 383 132 q 252 0 301 22 l 151 0 z "},">":{"ha":785,"x_min":32,"x_max":750,"o":"m 498 380 q 460 337 489 366 q 424 293 435 311 q 490 248 480 262 q 445 208 484 239 q 415 159 415 182 q 428 131 415 142 q 466 123 444 118 q 497 146 479 125 q 512 164 500 150 q 526 180 521 174 q 585 239 585 239 q 566 319 604 277 q 530 353 553 333 q 498 380 503 376 m 292 252 q 358 293 315 273 q 277 380 319 347 q 234 337 264 359 q 197 296 206 317 q 206 227 180 261 q 231 201 215 216 q 256 180 254 182 q 319 123 312 124 q 355 132 341 119 q 367 161 368 144 q 334 208 366 184 q 292 252 298 237 m 606 503 q 523 585 528 582 q 415 634 471 629 q 270 596 334 642 q 172 503 256 586 q 132 448 142 473 q 161 404 115 408 q 227 445 192 401 q 280 494 262 492 l 280 401 q 502 401 391 393 l 502 500 q 557 443 515 495 q 625 404 592 399 q 646 417 638 406 q 654 443 654 428 q 635 475 654 456 q 620 490 630 481 q 606 503 609 500 m 394 646 q 475 686 448 648 q 494 766 500 720 q 456 840 488 813 q 364 859 418 871 q 304 823 326 850 q 283 739 277 787 q 317 677 288 706 q 394 646 351 645 m 684 212 q 533 66 635 111 q 333 41 439 24 q 153 133 226 60 q 65 332 74 212 q 95 757 41 642 q 196 878 129 830 q 361 939 268 930 q 574 888 479 951 q 711 673 685 815 q 717 503 717 640 q 684 212 717 279 m 750 494 q 732 730 750 676 q 606 901 698 833 q 382 972 507 976 q 205 924 281 970 q 50 724 90 855 q 32 452 32 666 q 65 216 32 289 q 193 60 109 118 q 391 0 281 0 q 606 73 509 0 q 735 254 703 145 q 750 494 750 305 z "},"?":{"ha":999,"x_min":28,"x_max":969,"o":"m 969 352 q 959 458 964 379 q 944 549 956 519 q 844 684 921 615 q 726 800 745 774 q 693 810 720 807 q 645 803 663 814 q 626 776 630 793 q 616 736 619 742 q 536 610 585 653 q 395 507 395 482 q 444 469 394 457 q 518 504 469 475 q 645 623 623 565 q 662 604 648 610 q 691 595 667 602 q 719 559 696 582 q 743 518 741 538 q 735 439 747 494 q 726 352 722 382 l 796 352 l 796 35 q 849 0 823 -1 q 897 42 884 1 q 906 141 907 75 q 902 352 901 348 l 969 352 m 28 370 l 28 324 l 444 324 q 418 373 458 368 q 377 372 405 374 q 332 370 342 370 l 28 370 m 173 483 q 146 524 169 511 q 92 528 123 537 q 50 479 53 517 q 68 428 47 448 q 113 410 86 410 q 159 428 141 410 q 173 483 178 448 m 180 430 q 216 397 185 410 q 281 383 243 385 q 347 393 319 382 q 385 426 378 404 q 379 470 389 446 q 363 514 365 504 q 387 547 365 524 q 398 585 405 565 q 372 600 392 604 q 334 576 355 595 q 301 534 313 556 q 293 500 288 511 q 255 500 282 500 q 226 500 231 499 q 227 550 226 497 q 215 588 227 580 l 191 588 q 180 430 197 598 m 663 842 q 719 888 696 854 q 665 909 682 886 q 631 951 633 950 q 536 965 586 985 q 479 888 485 945 q 498 821 475 848 q 553 789 519 796 q 617 795 587 782 q 663 842 650 810 z "},"@":{"ha":913,"x_min":14,"x_max":895,"o":"m 873 410 q 827 389 840 416 q 836 344 816 363 q 882 364 869 336 q 873 410 895 391 m 803 410 q 847 430 836 401 q 840 479 857 457 q 793 458 805 488 q 803 410 783 429 m 639 475 q 568 437 587 467 q 562 323 540 391 q 587 212 590 239 q 548 142 585 189 q 522 62 516 101 q 575 5 528 19 q 667 11 619 -7 q 772 113 724 33 q 821 292 825 201 q 766 426 819 368 q 639 475 709 486 m 761 461 q 787 469 775 458 q 801 494 798 478 q 798 524 804 510 q 774 545 791 540 q 736 505 741 543 q 741 477 734 489 q 761 461 747 464 m 737 517 q 731 564 744 545 q 700 583 720 584 q 663 555 669 581 q 675 507 659 533 q 707 481 690 481 q 737 517 728 479 m 606 479 q 643 506 629 481 q 655 557 655 528 q 640 607 654 588 q 597 625 624 629 q 554 597 567 621 q 547 547 543 576 q 566 499 550 519 q 606 479 583 478 m 24 742 q 44 696 14 713 q 67 691 56 689 q 85 705 80 693 q 63 758 92 746 q 41 758 52 762 q 24 742 29 754 m 357 742 q 313 807 351 784 q 235 822 278 828 q 132 758 174 813 q 90 648 94 709 q 140 463 85 559 q 254 353 193 372 q 335 354 294 341 q 386 395 378 367 q 365 481 397 434 q 325 550 326 539 q 341 646 319 584 q 357 742 363 708 m 114 761 q 117 799 122 779 q 100 827 112 817 q 64 817 75 831 q 60 786 55 805 q 79 759 64 768 q 114 761 95 749 m 146 808 q 169 825 162 810 q 171 858 175 840 q 156 885 168 876 q 127 888 144 895 q 110 840 102 876 q 146 808 117 805 m 245 854 q 226 922 257 901 q 199 926 213 930 q 175 906 184 922 q 193 840 163 859 q 220 836 206 832 q 245 854 235 839 m 311 831 q 350 856 335 832 q 363 907 363 878 q 349 955 363 937 q 306 972 334 976 q 265 945 279 968 q 254 897 253 924 q 271 851 256 869 q 311 831 286 830 z "},"A":{"ha":1297,"x_min":32,"x_max":1287,"o":"m 711 593 q 682 526 694 575 q 651 451 670 474 q 666 413 650 432 q 681 376 682 393 l 636 376 q 630 437 625 395 q 629 496 636 479 q 611 501 620 498 q 600 506 602 505 q 568 503 588 509 q 543 417 554 488 q 500 346 532 356 q 457 437 513 414 q 404 452 441 444 q 351 466 366 460 q 345 501 343 505 q 321 518 338 519 q 268 406 275 497 q 303 374 275 389 q 343 346 335 357 q 332 322 343 336 q 328 293 323 310 q 530 225 414 245 q 771 233 663 203 q 779 264 774 243 q 785 295 783 286 q 817 338 793 330 q 951 451 942 363 q 931 534 956 492 q 868 600 908 574 q 786 627 827 627 q 711 593 741 627 m 1162 751 q 1154 785 1154 760 q 1154 827 1154 831 q 1113 834 1147 835 q 1072 842 1080 833 q 1124 889 1063 886 q 1207 871 1177 891 q 1200 751 1195 744 l 1162 751 m 1207 68 q 1124 50 1177 48 q 1072 98 1063 53 q 1105 106 1080 106 q 1147 105 1151 106 q 1153 136 1150 114 q 1158 170 1156 161 q 1200 188 1168 206 q 1207 68 1195 195 m 117 376 q 290 570 172 455 q 390 665 302 582 q 486 759 450 722 q 650 711 547 709 q 817 759 749 713 q 1185 391 1005 579 q 968 222 1118 283 q 658 165 829 167 q 344 218 487 164 q 117 376 191 274 m 95 60 q 95 102 96 72 q 94 149 94 137 q 125 188 96 203 q 146 160 143 185 q 147 137 148 152 q 148 113 147 118 q 181 104 156 104 q 223 105 227 105 q 182 51 237 55 q 95 60 161 49 m 102 879 q 167 888 126 889 q 223 871 212 888 l 223 842 q 193 833 215 834 q 174 834 189 833 q 155 834 162 835 q 144 778 153 831 q 95 751 138 745 q 94 820 96 762 q 102 879 92 863 m 1244 932 q 65 932 650 972 q 33 846 36 922 q 33 779 32 821 q 35 714 35 726 q 58 7 35 102 q 659 0 159 0 q 1244 15 1158 0 q 1244 932 1287 471 z "},"B":{"ha":653,"x_min":37,"x_max":614,"o":"m 56 416 q 105 140 37 250 q 304 0 171 32 l 363 0 q 511 80 458 35 q 594 225 576 138 q 282 237 448 166 q 56 416 140 298 m 299 607 q 308 589 298 595 q 331 583 317 583 q 354 589 345 583 q 363 607 364 595 q 299 607 323 623 m 397 728 q 375 690 367 717 q 409 665 383 663 q 431 679 422 666 q 436 705 437 690 q 425 727 435 720 q 397 728 414 735 m 247 728 q 222 699 219 717 q 244 674 224 684 q 280 670 264 664 q 293 705 298 677 q 247 728 287 745 m 166 676 q 227 762 168 728 q 322 821 312 810 q 328 827 321 826 q 429 768 342 814 q 496 694 488 736 q 458 580 509 623 q 342 537 414 541 q 219 569 269 534 q 166 676 163 608 m 293 948 q 178 895 229 940 q 104 788 131 852 q 78 657 77 724 q 109 532 78 587 q 323 342 174 412 q 611 341 489 266 q 566 768 614 631 q 293 948 493 973 z "},"C":{"ha":589,"x_min":34,"x_max":557,"o":"m 429 972 q 483 911 458 962 q 471 848 475 855 l 471 844 q 480 838 471 838 l 480 831 l 471 831 l 471 822 q 531 698 531 778 l 531 679 q 525 628 525 632 q 550 427 550 471 q 557 236 550 236 q 534 223 544 223 l 537 191 q 534 79 537 168 q 547 41 547 55 l 547 28 q 541 22 547 22 l 528 22 l 512 26 q 496 0 512 3 q 429 3 454 3 l 407 3 q 368 28 387 3 q 388 47 368 33 l 416 47 l 429 70 q 451 79 434 70 l 451 83 q 422 201 439 201 l 394 201 l 397 178 q 366 146 391 146 q 359 140 366 140 q 321 182 332 140 l 321 197 l 334 214 l 330 214 q 304 197 321 214 l 302 197 l 295 201 q 286 188 290 188 q 279 195 286 195 l 225 178 l 225 175 q 260 134 252 175 l 260 109 q 212 86 260 99 l 209 86 q 180 146 180 109 q 206 165 186 165 l 209 216 q 171 264 171 234 q 120 287 171 281 q 81 277 89 277 q 72 280 75 280 q 66 261 66 270 l 81 264 q 101 223 101 245 l 101 214 q 88 191 101 197 l 72 195 q 53 185 69 185 q 34 229 34 207 l 34 245 q 53 258 40 258 q 56 255 53 255 q 94 322 56 281 l 98 328 l 79 363 q 75 366 75 363 l 75 376 l 104 376 q 117 401 104 386 q 104 424 117 406 l 104 437 q 152 465 104 450 q 123 542 140 542 l 120 548 q 199 644 149 644 l 212 644 q 216 640 216 644 q 225 644 222 644 q 263 631 227 644 l 279 631 q 340 682 299 650 q 413 774 397 758 q 388 809 413 795 q 366 937 366 833 q 407 959 383 957 q 429 972 407 963 m 321 606 l 324 589 l 327 589 q 336 615 327 606 q 321 606 321 611 m 130 433 l 126 427 l 139 414 l 139 420 q 130 433 134 433 m 98 312 q 149 296 98 296 q 123 328 123 322 l 117 328 q 98 312 105 312 m 81 287 l 88 283 q 111 290 101 290 l 111 293 l 88 293 q 81 287 81 292 m 362 245 l 362 216 l 368 216 q 375 223 375 216 l 375 233 q 366 245 366 233 l 362 245 m 336 216 l 336 214 l 349 214 l 349 220 l 346 220 q 336 216 340 216 m 229 216 l 229 210 l 231 191 l 248 195 l 248 197 q 231 216 235 197 l 229 216 z "},"D":{"ha":989,"x_min":56,"x_max":945,"o":"m 420 970 q 618 920 532 970 l 618 917 q 435 670 572 861 l 433 670 q 415 902 425 670 l 410 968 q 420 970 416 968 m 389 968 l 395 960 l 410 670 l 405 667 q 237 924 240 913 q 389 968 330 968 m 221 914 l 387 663 l 387 657 l 385 657 l 112 810 l 112 815 q 221 914 164 888 m 102 795 l 104 795 q 372 642 325 671 l 372 640 l 61 640 q 56 647 56 640 q 102 795 56 718 m 906 792 q 945 751 938 792 l 945 749 q 884 703 945 710 q 840 693 850 693 q 838 705 838 697 q 787 688 787 695 q 766 609 769 614 q 789 604 789 609 q 672 361 789 476 q 476 237 614 321 l 476 235 q 552 186 545 186 q 621 214 583 214 l 626 214 q 728 132 699 214 q 730 112 730 123 l 730 99 q 639 0 730 24 l 616 0 q 519 81 549 0 q 517 102 517 92 l 517 107 q 522 142 517 123 q 422 203 446 193 q 318 135 410 193 q 323 102 323 123 q 249 5 323 36 q 229 0 240 0 l 201 0 q 117 64 152 0 q 106 104 112 70 q 191 212 106 182 q 218 214 204 214 q 295 181 256 214 q 376 235 376 233 l 376 237 q 147 387 209 335 q 56 606 56 496 l 61 609 l 361 609 q 374 573 365 609 q 425 545 401 545 l 433 545 q 494 609 481 545 l 715 609 q 751 736 742 736 q 825 754 819 754 q 820 772 825 759 q 906 792 885 792 m 435 642 q 463 606 463 630 q 430 573 455 573 q 395 611 399 573 q 435 642 395 637 m 402 280 l 402 277 q 425 265 406 277 l 427 265 q 448 280 448 277 l 402 280 m 170 107 q 214 61 179 61 q 259 107 259 68 q 216 151 252 151 l 214 151 q 170 107 170 142 m 581 112 l 581 104 q 624 61 588 61 q 667 99 667 71 l 667 115 q 629 151 667 140 l 618 151 q 581 112 581 141 z "},"E":{"ha":848,"x_min":20,"x_max":819,"o":"m 469 227 q 475 224 469 222 q 481 229 479 226 q 475 228 479 230 q 469 227 472 227 m 492 231 q 507 224 501 224 q 509 254 507 243 l 499 254 q 492 231 499 239 m 503 288 q 504 274 505 287 q 511 279 511 273 q 511 286 511 281 q 511 292 510 290 q 503 288 503 292 m 444 269 q 469 271 454 266 q 487 281 484 277 q 425 290 463 294 q 433 279 429 288 q 444 269 437 271 m 258 258 q 416 269 363 262 q 407 283 413 273 q 397 296 401 292 q 322 286 361 302 q 290 271 313 283 q 258 258 270 262 m 287 309 q 323 323 304 313 q 302 328 313 336 q 287 309 296 324 m 400 326 q 425 324 409 326 q 450 321 443 323 q 421 355 437 339 q 381 355 399 346 q 400 326 385 349 m 340 373 q 326 356 336 368 q 313 339 317 346 q 365 338 349 330 q 340 373 353 363 m 440 366 q 459 341 441 364 q 485 317 479 317 q 510 343 501 317 q 515 392 518 366 q 440 366 450 368 m 570 379 q 553 362 566 374 q 538 346 543 352 q 534 311 525 328 q 528 275 528 306 q 620 282 554 277 q 712 288 678 286 q 720 294 713 294 q 730 296 728 294 q 629 431 689 350 q 597 414 613 431 q 584 397 593 408 q 570 379 574 385 m 533 399 q 533 382 533 396 q 534 366 532 371 q 563 401 543 380 q 592 435 584 424 q 593 436 593 435 q 591 437 593 437 q 562 417 582 432 q 533 399 545 405 m 242 292 q 322 384 262 309 q 283 451 317 421 q 242 292 259 351 m 269 467 q 260 482 269 473 q 252 496 252 491 q 254 507 252 499 q 258 519 257 517 q 245 534 261 535 q 233 323 234 401 q 241 359 235 334 q 250 395 246 382 l 269 467 m 559 545 q 547 565 562 553 q 559 545 550 557 m 524 600 q 517 614 524 606 l 511 621 q 524 600 517 606 m 175 705 q 156 738 170 717 q 138 771 143 759 q 130 772 136 770 q 125 771 127 773 q 150 738 130 765 q 175 705 165 718 m 819 109 q 755 62 806 59 q 697 55 724 39 q 664 101 673 68 q 669 157 654 135 q 725 178 685 184 q 765 191 741 191 q 747 272 766 243 q 723 261 746 270 q 717 265 720 261 q 711 269 714 269 q 618 262 675 266 q 526 256 543 257 q 526 246 527 253 q 525 235 524 240 q 572 189 558 237 q 559 122 585 142 q 517 115 550 115 q 517 43 532 76 q 454 13 501 5 q 426 1 436 1 q 378 20 397 -3 q 359 72 361 41 q 376 120 359 102 q 429 132 395 140 q 459 147 428 130 q 426 250 455 229 q 335 243 404 247 q 247 234 277 240 q 239 243 240 241 q 239 250 237 246 q 235 252 240 251 q 226 245 227 252 q 224 227 225 245 q 223 192 222 192 q 261 174 246 195 q 275 126 275 155 q 262 81 275 98 q 218 71 245 63 q 178 67 197 55 q 153 105 161 78 q 151 155 146 132 q 178 186 158 180 q 191 186 183 187 q 203 186 200 185 q 205 274 206 269 q 212 294 210 279 q 218 411 216 330 q 226 528 221 489 q 217 551 216 535 q 226 576 218 566 q 132 720 210 599 q 90 777 102 765 q 69 816 87 787 q 62 821 66 817 q 54 830 57 828 q 45 844 52 831 q 35 859 43 850 q 26 871 28 866 q 34 924 20 897 q 68 955 47 949 q 94 956 81 959 q 104 941 110 954 q 96 937 102 936 q 83 937 80 937 q 61 864 54 904 q 76 847 60 865 q 83 824 85 838 q 94 825 95 825 q 98 821 96 825 q 100 812 101 816 q 96 804 96 804 q 122 793 96 808 q 131 784 126 791 q 140 776 135 777 q 154 784 149 783 q 187 779 164 785 q 224 774 211 774 q 353 787 220 774 q 381 803 350 780 q 346 840 369 823 q 334 859 345 850 q 322 878 324 870 q 328 927 315 902 q 359 958 339 953 q 380 959 368 961 q 392 947 395 957 q 385 941 391 941 q 372 939 372 939 q 355 892 355 923 q 376 851 355 859 q 378 842 376 847 q 380 833 380 838 q 422 782 421 784 q 426 770 422 779 q 488 682 439 752 q 554 598 526 627 q 574 560 553 600 q 597 547 585 558 q 611 523 611 535 q 607 510 612 518 q 602 496 602 502 q 637 494 617 485 q 667 509 669 509 q 655 477 667 491 q 635 451 637 457 q 666 411 636 450 q 758 293 732 323 q 784 186 789 242 q 819 135 810 169 l 819 109 z "},"F":{"ha":935,"x_min":24,"x_max":903,"o":"m 394 130 q 368 96 361 124 q 378 77 370 85 q 400 70 388 68 q 420 81 413 71 q 427 103 427 91 q 418 123 426 116 q 394 130 409 132 m 182 130 q 156 97 151 125 q 166 78 158 86 q 185 70 175 70 q 208 80 199 70 q 215 102 215 90 q 208 123 216 115 q 182 130 198 132 m 185 32 q 140 50 159 31 q 119 91 123 66 q 124 136 114 115 q 163 165 136 158 q 224 158 199 176 q 250 111 245 142 q 238 58 254 80 q 185 32 220 32 m 160 196 q 94 148 115 186 q 90 63 73 109 q 182 2 113 5 q 237 14 212 1 q 277 57 264 29 q 265 163 304 117 q 160 196 226 210 m 356 44 q 330 109 326 66 q 378 165 336 154 q 439 158 414 174 q 467 104 465 141 q 432 41 469 64 q 356 44 394 18 m 394 199 q 329 176 355 197 q 299 127 305 156 q 325 31 287 68 q 397 0 356 0 q 471 32 444 0 q 495 102 496 61 q 469 171 495 144 q 394 199 441 202 m 894 317 q 886 414 893 353 q 875 528 877 503 q 861 701 861 706 q 770 772 840 805 q 730 715 755 765 q 705 662 708 675 q 717 611 695 629 q 707 535 704 551 q 739 601 728 552 q 761 677 753 663 q 746 610 758 659 q 732 541 736 568 q 565 424 561 420 l 283 424 q 328 633 294 472 q 90 573 160 643 q 36 469 47 530 q 43 355 24 412 q 108 259 63 297 q 223 212 157 218 q 440 239 357 199 q 552 393 534 285 q 606 383 556 393 q 789 500 635 399 q 808 581 797 525 q 827 661 820 635 q 799 497 825 637 q 685 421 777 479 q 669 317 682 386 l 742 317 l 742 32 q 774 3 751 12 q 815 6 796 -5 q 840 145 847 25 q 837 317 831 293 l 894 317 m 837 798 q 869 791 836 798 q 903 798 888 787 q 882 835 884 806 q 882 889 881 893 q 812 954 871 947 q 730 921 757 961 q 718 863 714 899 q 739 813 722 830 q 784 795 755 797 q 810 796 793 795 q 837 798 829 798 z "},"G":{"ha":894,"x_min":21,"x_max":872,"o":"m 708 130 q 685 96 677 124 q 715 70 692 70 q 736 81 728 71 q 743 104 743 91 q 735 125 743 118 q 708 130 725 134 m 495 130 q 471 97 465 124 q 501 70 477 69 q 523 81 515 71 q 530 104 530 91 q 522 125 530 117 q 495 130 511 134 m 718 32 q 669 48 690 31 q 644 102 644 68 q 656 144 645 130 q 696 165 668 159 q 743 165 725 172 q 771 138 761 159 q 780 93 781 117 q 764 52 779 68 q 718 32 747 33 m 705 201 q 639 172 663 197 q 613 105 614 147 q 647 24 612 53 q 724 3 679 -1 q 795 38 768 7 q 813 127 825 73 q 779 181 806 160 q 705 201 748 204 m 469 38 q 433 104 430 56 q 479 165 437 154 q 547 153 524 178 q 564 96 568 132 q 536 42 561 60 q 469 38 509 21 m 495 201 q 422 165 448 197 q 401 98 399 137 q 429 31 404 58 q 498 0 456 1 q 574 32 547 -1 q 597 103 599 61 q 570 173 597 145 q 495 201 542 203 m 66 477 q 62 575 58 511 q 66 681 66 657 q 68 593 73 661 q 68 496 63 520 q 79 481 71 489 q 85 468 86 474 q 106 466 94 471 q 123 452 119 460 q 66 477 117 447 m 680 213 q 814 281 759 221 q 871 423 869 342 q 790 593 872 535 q 572 636 709 650 q 592 532 576 600 q 613 427 608 463 l 317 427 q 229 480 292 453 q 136 528 158 511 q 135 611 136 543 q 139 690 134 663 q 145 531 139 657 q 176 515 150 530 q 209 503 194 506 q 199 667 218 583 q 139 777 179 758 q 82 777 111 789 q 47 741 55 766 q 43 576 43 732 q 42 507 43 562 q 42 445 41 467 q 72 359 45 380 q 68 147 73 353 q 76 44 66 79 q 119 0 87 0 q 170 69 165 0 q 170 135 172 92 q 168 203 168 191 q 180 420 168 393 q 126 452 130 446 q 203 416 153 442 q 282 382 253 391 q 346 395 313 398 q 457 241 359 288 q 680 213 545 199 m 193 849 q 177 934 209 900 q 98 958 146 966 q 39 918 58 951 q 34 846 21 884 q 64 810 41 824 q 112 796 85 797 q 161 808 140 795 q 193 849 184 823 z "},"H":{"ha":433,"x_min":24,"x_max":410,"o":"m 286 631 q 256 642 269 629 q 241 671 243 654 q 248 701 238 688 q 283 715 258 714 q 313 704 302 716 q 325 675 324 692 q 316 646 326 658 q 286 631 305 631 m 214 631 q 106 627 201 633 q 182 670 127 659 q 245 621 243 682 q 233 622 241 616 q 214 631 219 629 m 377 703 q 319 755 360 730 q 239 785 277 781 q 123 761 176 791 q 53 694 77 735 q 32 591 24 644 q 113 539 41 527 l 113 271 q 111 210 113 258 q 108 131 108 160 q 125 13 106 31 q 169 2 143 -5 q 204 25 191 7 q 207 296 207 72 q 206 318 207 303 q 205 340 205 333 q 216 378 205 366 q 229 348 228 370 q 227 327 229 341 q 226 306 226 313 l 226 208 q 224 142 226 202 q 224 73 222 98 q 279 0 231 -3 q 321 40 313 3 q 323 117 322 47 q 323 340 326 195 q 323 542 322 481 q 405 597 399 529 q 377 703 410 652 m 207 794 q 275 818 250 790 q 295 880 296 843 q 270 940 294 918 q 197 955 242 964 q 148 922 163 947 q 138 869 134 899 q 160 820 141 841 q 207 794 180 797 z "},"I":{"ha":429,"x_min":12,"x_max":415,"o":"m 195 633 q 251 686 195 693 q 338 646 296 680 q 259 643 322 642 q 195 633 206 644 m 125 662 q 115 707 106 682 q 153 734 125 734 q 194 715 184 736 q 194 675 203 698 q 166 646 184 652 q 125 662 145 639 m 392 570 q 395 666 415 612 q 341 744 378 712 q 195 789 279 797 q 66 718 117 781 q 36 572 12 651 q 69 566 43 566 q 106 563 98 567 q 83 455 97 528 q 61 347 70 382 q 95 347 66 346 q 125 344 116 348 l 125 175 q 123 128 125 159 q 122 82 122 94 q 131 16 121 31 q 159 2 139 5 q 189 6 178 -1 q 207 74 206 19 q 205 123 208 91 q 204 169 204 156 q 211 347 204 320 q 233 318 231 346 q 231 294 233 310 q 230 273 230 278 l 230 181 q 227 122 230 168 q 227 63 225 83 q 268 0 230 0 q 308 56 303 0 q 308 105 309 74 q 306 153 306 146 l 306 347 l 370 347 q 328 566 332 539 q 392 570 393 570 m 217 798 q 238 805 224 798 q 258 811 251 811 q 283 803 266 811 q 309 798 298 796 q 292 840 291 810 q 295 864 293 844 q 296 887 297 879 q 268 943 294 923 q 213 960 245 961 q 159 938 181 958 q 134 878 135 916 q 136 853 134 867 q 139 833 138 836 q 125 798 140 813 q 172 804 144 808 q 217 798 216 798 z "},"J":{"ha":1304,"x_min":23,"x_max":1263,"o":"m 218 722 q 428 722 330 745 q 388 760 418 747 q 324 771 360 772 q 260 758 288 770 q 218 722 229 745 m 876 73 q 876 397 905 237 l 890 397 q 938 357 908 385 q 985 315 969 327 q 1128 281 1045 272 q 1086 110 1165 172 q 876 73 1010 51 m 1078 730 q 951 683 1067 724 q 854 614 873 656 q 853 515 848 600 q 849 473 855 485 q 818 463 841 457 q 787 508 792 469 q 786 592 784 526 q 780 676 788 650 q 731 722 768 716 q 665 708 688 730 q 638 648 646 690 q 629 567 635 633 q 616 491 625 516 q 538 442 596 475 q 464 390 487 413 q 399 461 448 451 q 283 463 397 462 q 214 475 257 463 q 161 484 174 486 q 68 429 102 477 q 30 318 37 385 q 39 192 23 256 q 88 87 55 127 q 211 0 104 67 l 269 0 q 464 123 349 29 q 666 0 568 26 l 998 0 q 1137 68 1083 8 q 1199 209 1184 122 q 1196 376 1213 290 q 1136 527 1179 463 q 1203 583 1147 552 q 1259 657 1253 609 q 1234 751 1263 700 q 1166 825 1206 800 q 1100 833 1125 852 q 1078 730 1072 810 m 594 831 q 484 911 560 882 q 323 937 412 937 q 163 910 235 937 q 52 831 86 882 q 594 831 323 894 z "},"K":{"ha":982,"x_min":34,"x_max":940,"o":"m 289 1001 q 406 724 297 990 l 387 711 l 384 711 q 189 928 372 720 l 189 930 q 289 1001 228 930 m 167 917 l 172 917 l 354 716 q 351 713 351 716 q 94 819 98 819 l 94 827 q 167 917 124 827 m 899 846 l 902 846 q 940 808 940 836 l 940 800 q 845 743 940 757 l 831 741 q 826 754 826 747 q 772 735 772 744 l 750 648 l 810 648 l 815 646 q 742 399 815 500 q 587 317 695 340 q 476 252 567 317 l 560 201 q 631 228 591 228 q 745 138 717 228 q 747 117 747 128 l 747 114 q 663 3 747 33 q 642 0 653 0 l 625 0 q 519 95 547 0 l 519 127 q 528 157 519 139 q 422 220 430 220 q 308 149 328 159 l 313 114 q 205 0 294 0 l 183 0 q 91 73 126 0 q 83 117 83 91 q 175 225 83 197 q 202 228 184 228 q 281 195 237 228 q 373 255 355 239 q 248 326 266 326 q 34 646 34 372 l 39 648 l 368 648 q 419 605 393 605 l 435 605 q 492 648 468 605 l 696 648 q 734 787 724 787 q 812 808 800 803 l 807 825 q 899 846 872 846 m 75 808 q 370 684 360 694 l 370 681 q 365 675 370 675 l 37 675 l 37 678 q 72 808 72 721 l 75 808 m 425 703 l 430 703 q 468 662 464 703 q 430 627 468 636 q 392 662 392 634 l 392 665 q 425 703 397 703 m 387 312 q 422 288 387 309 q 465 309 428 288 l 465 312 l 387 312 m 151 114 l 151 109 q 199 65 151 74 q 245 114 235 65 q 202 160 235 160 l 197 160 q 151 114 151 153 m 585 114 q 633 65 597 65 q 680 111 680 75 l 680 119 q 633 160 680 153 l 631 160 q 585 114 585 151 z "},"L":{"ha":808,"x_min":34,"x_max":766,"o":"m 157 970 q 198 913 198 949 l 198 887 q 174 827 198 854 q 172 818 174 824 q 231 726 201 818 q 285 675 252 684 q 327 651 287 664 q 351 660 342 660 l 380 660 q 392 636 388 660 l 387 633 q 383 636 387 636 q 353 615 368 615 q 380 583 366 591 q 407 603 387 583 q 437 624 412 603 q 479 630 469 630 l 485 627 q 524 642 514 642 q 545 633 534 633 q 568 642 557 642 q 602 630 568 633 q 610 621 610 623 l 610 609 q 524 430 610 526 l 524 424 q 538 409 536 409 l 542 409 q 577 421 550 418 q 581 418 581 421 l 595 421 l 640 421 q 691 379 691 403 q 682 334 684 334 q 685 319 685 330 l 721 323 q 732 254 726 311 q 739 248 739 253 l 739 245 q 709 236 739 236 q 745 179 739 197 q 730 134 745 134 l 730 128 q 766 60 766 77 l 762 54 l 766 42 q 715 0 766 1 q 670 45 670 12 l 670 54 q 673 66 670 60 q 670 75 670 71 q 711 111 677 111 q 724 108 717 108 l 730 108 l 730 111 q 682 128 730 119 q 658 164 667 138 q 536 185 602 176 q 431 132 496 168 l 413 128 l 413 119 q 443 77 443 102 q 407 21 438 21 l 398 21 q 353 60 353 28 l 353 66 q 357 77 353 73 q 353 90 353 83 q 395 123 376 123 l 398 140 q 380 170 380 153 l 380 179 q 383 182 380 182 l 380 188 l 380 191 q 389 197 380 197 l 380 239 l 383 245 l 291 260 q 285 254 291 254 q 222 296 239 254 q 219 298 219 296 q 273 382 260 382 l 294 382 q 317 433 294 390 l 317 439 l 309 451 l 309 454 q 347 505 347 492 l 347 508 q 311 541 344 508 q 276 570 309 541 q 228 585 236 585 l 231 564 l 231 538 q 228 534 231 534 q 249 376 249 444 q 213 355 249 360 l 204 355 q 180 224 204 345 l 180 200 q 252 155 196 179 l 255 149 l 255 146 q 222 128 255 136 q 177 134 194 134 l 168 134 q 195 92 177 127 q 228 57 228 63 l 228 47 q 195 33 215 33 q 121 83 160 33 q 126 134 124 132 q 123 146 123 140 l 123 149 q 126 153 123 153 q 102 269 102 211 l 102 277 l 106 308 q 94 319 94 308 l 96 326 q 81 403 85 368 q 73 415 77 403 q 79 433 79 427 q 55 541 66 433 q 52 543 52 541 q 55 570 55 559 q 34 762 46 606 q 106 842 34 821 q 111 857 111 842 l 111 866 q 96 896 102 866 q 142 968 96 968 q 157 970 142 970 m 222 660 q 276 612 222 633 q 302 621 297 621 l 302 624 q 222 660 260 624 m 311 562 q 347 519 347 524 l 351 519 q 372 576 372 558 q 347 600 347 592 q 330 579 338 600 q 311 562 317 573 m 557 391 l 587 353 q 655 368 642 362 l 655 373 q 637 397 655 388 l 631 394 q 625 400 625 394 l 557 391 m 634 218 l 634 212 q 664 191 638 212 q 685 209 670 209 l 685 218 l 670 218 l 661 224 l 634 218 m 496 218 q 488 212 496 212 l 488 209 l 530 200 l 532 206 l 532 209 q 496 218 532 216 m 557 197 l 557 194 q 655 179 634 185 q 616 215 655 183 q 557 197 607 215 m 455 203 q 461 173 461 193 l 509 191 l 509 194 q 455 203 469 203 z "},"M":{"ha":991,"x_min":34,"x_max":950,"o":"m 688 968 q 744 916 744 958 q 737 873 737 886 q 764 841 737 847 q 812 739 812 829 l 816 710 q 812 651 812 686 l 812 628 q 803 595 803 599 l 803 589 q 812 513 803 528 q 800 465 812 498 q 803 435 803 447 q 789 416 803 422 q 796 370 796 391 l 796 360 q 787 317 796 349 q 825 269 787 299 q 891 180 879 192 q 950 147 950 174 q 871 39 909 39 q 842 52 846 39 l 842 56 q 855 82 842 67 l 855 111 l 852 131 q 859 147 859 142 q 803 199 838 182 q 734 262 747 262 q 724 140 724 184 q 741 88 741 140 q 744 82 744 88 l 731 72 l 718 72 q 665 79 713 72 l 633 75 q 593 92 608 75 l 593 98 q 659 131 594 104 q 682 167 682 147 l 682 177 q 656 314 667 307 q 620 337 620 321 q 629 481 623 444 q 626 491 626 488 l 629 507 q 616 530 629 511 l 616 533 q 629 569 629 551 q 623 595 629 572 l 626 608 q 466 497 526 566 q 498 334 483 389 l 498 301 q 439 265 490 282 q 427 199 427 215 q 446 160 446 188 q 420 118 446 145 q 416 104 416 112 q 463 56 463 92 l 463 49 q 404 0 463 3 q 355 43 368 0 l 355 56 l 361 79 q 358 88 358 85 l 361 88 l 358 95 l 361 102 q 322 147 322 140 l 201 147 q 138 233 191 152 l 136 233 q 122 199 136 213 l 122 193 l 142 193 q 174 160 174 186 q 132 98 174 98 q 138 79 138 87 l 138 68 q 132 49 138 60 l 136 43 q 96 0 125 0 l 80 0 q 37 39 37 8 l 41 56 q 37 65 37 62 q 54 88 42 65 l 54 111 q 60 140 54 119 l 54 138 l 50 138 l 50 140 q 77 177 50 157 q 106 249 77 184 q 47 271 74 249 q 34 278 34 271 q 80 330 65 296 q 109 337 86 337 q 106 340 109 340 q 155 402 106 402 q 165 406 155 406 q 197 386 182 401 l 279 386 l 279 389 q 253 497 253 452 q 197 569 197 551 q 233 586 197 574 q 267 618 260 618 q 453 549 407 549 q 502 612 484 574 l 505 612 q 531 608 528 608 q 640 723 640 656 q 678 795 654 781 q 692 802 686 802 q 656 831 692 823 q 626 864 640 864 q 633 890 626 878 q 626 909 626 901 l 626 913 q 688 968 626 958 m 498 569 q 459 530 459 533 l 459 527 q 505 563 473 530 q 498 569 505 569 m 132 380 l 132 373 q 161 344 136 344 q 172 363 161 351 l 172 373 q 152 382 163 373 q 132 380 146 380 m 348 147 q 374 121 348 143 l 374 127 q 361 147 361 140 l 348 147 m 384 124 l 384 108 q 391 102 385 102 l 397 102 l 397 115 q 384 124 397 119 z "},"N":{"ha":1076,"x_min":34,"x_max":1041,"o":"m 857 972 q 901 905 886 972 q 882 838 882 846 q 974 804 952 815 q 1041 676 1041 701 q 958 562 991 568 l 958 559 q 970 534 958 547 l 970 530 q 961 524 970 524 l 964 517 l 964 496 q 961 470 964 482 q 981 336 968 404 q 920 311 981 311 q 860 165 920 266 q 857 153 857 159 l 860 136 q 857 127 857 130 q 869 79 869 92 q 860 70 869 75 l 840 70 q 815 89 822 70 l 819 105 q 806 124 806 111 q 812 140 806 140 l 809 146 q 831 178 809 165 q 860 311 844 260 l 860 317 l 847 400 q 850 426 850 412 l 844 426 q 809 311 809 321 l 761 317 l 736 232 q 698 159 730 232 q 707 98 698 154 q 640 85 700 89 q 625 79 640 79 l 615 79 q 577 95 590 79 l 577 98 q 637 155 621 136 q 675 232 665 155 q 701 334 682 269 l 698 346 q 717 457 707 360 q 749 515 736 507 q 745 524 745 521 q 755 543 751 543 l 751 566 l 751 597 q 758 623 751 611 q 742 699 742 690 q 704 680 729 688 q 685 686 694 686 q 551 610 659 654 q 517 559 551 586 q 475 508 475 523 l 510 321 l 507 321 l 510 315 l 510 311 q 447 276 484 276 l 447 270 q 431 210 437 219 q 456 162 456 195 q 425 117 448 144 l 425 108 q 475 54 463 108 q 428 3 461 3 l 409 3 q 361 47 372 3 l 361 57 q 370 79 364 79 l 364 98 q 368 108 368 104 q 323 153 366 108 l 212 153 q 158 216 191 153 q 139 241 143 241 q 123 210 133 210 l 123 197 l 139 200 q 177 165 177 196 q 132 102 177 102 q 142 73 142 84 q 104 3 131 3 q 88 0 98 0 q 37 45 37 5 l 40 57 q 37 73 37 62 q 56 102 45 73 l 53 108 l 53 115 q 62 146 53 130 l 59 146 q 50 143 53 143 l 50 146 q 75 181 50 163 q 91 219 75 195 q 107 254 91 231 l 107 257 q 34 286 74 257 l 34 296 q 72 330 59 296 q 88 346 76 330 l 110 346 q 107 353 110 353 q 139 410 107 410 l 161 419 l 164 419 q 243 397 196 397 l 259 400 q 285 397 272 397 l 288 397 q 256 515 267 427 q 199 587 199 563 q 269 635 234 595 q 450 566 370 585 l 456 566 q 498 610 498 592 q 542 635 498 627 q 675 736 577 667 q 781 819 728 819 q 815 832 781 822 l 815 854 q 796 905 802 878 q 809 949 801 905 q 857 972 836 972 m 958 702 q 949 635 958 694 l 951 619 q 945 613 945 618 l 945 610 q 958 604 950 610 q 996 676 962 608 l 987 683 q 974 680 981 680 q 958 702 962 702 m 466 543 l 466 540 q 513 585 473 540 l 507 585 q 466 543 498 583 m 132 385 q 161 349 132 366 q 177 372 168 369 q 158 391 174 382 l 139 391 q 132 385 132 390 m 355 153 q 380 127 355 149 l 380 134 q 364 153 369 153 l 355 153 m 88 146 q 75 134 88 140 q 72 115 72 117 l 75 115 q 88 117 81 117 l 98 117 l 98 121 q 91 146 91 130 l 88 146 m 393 127 q 389 108 393 113 l 406 105 l 402 127 l 393 127 z "},"O":{"ha":971,"x_min":22,"x_max":942,"o":"m 796 51 q 124 44 657 58 q 116 28 116 43 q 120 7 116 14 q 671 0 213 0 q 847 11 819 0 q 835 47 854 39 q 796 51 828 50 m 665 77 q 584 383 593 357 q 546 230 571 326 q 507 77 517 118 l 665 77 m 456 77 q 417 231 448 107 q 376 383 393 327 q 299 77 326 189 l 456 77 m 803 424 q 715 77 749 195 l 807 77 q 807 252 806 108 q 803 424 808 361 m 244 77 q 153 424 174 368 q 157 77 153 431 l 244 77 m 694 124 q 732 282 703 170 q 766 435 759 381 l 613 435 q 694 124 662 223 m 486 127 q 522 281 495 179 q 559 435 549 379 l 405 435 q 486 127 453 215 m 274 124 q 313 279 284 169 q 351 435 338 376 l 193 435 q 232 278 200 409 q 274 124 256 182 m 796 511 q 124 504 656 518 q 116 490 116 503 q 117 467 116 465 q 763 460 226 460 q 784 459 769 460 q 807 458 799 458 q 847 471 833 459 q 835 507 854 499 q 796 511 828 509 m 617 617 q 566 635 604 644 q 538 622 545 631 q 529 591 529 612 q 549 553 530 564 q 587 549 565 543 q 618 573 608 556 q 617 617 629 593 m 434 599 q 416 631 433 621 q 376 635 399 642 q 343 602 347 628 q 354 562 339 578 q 387 547 367 549 q 421 559 408 547 q 434 599 437 574 m 617 628 q 640 633 629 621 q 650 644 644 636 q 657 654 655 652 q 942 946 909 906 q 932 954 941 946 q 916 957 926 959 q 679 715 708 745 q 659 698 673 709 q 639 680 645 685 q 610 635 616 657 q 617 628 614 635 m 179 778 q 343 625 301 655 q 354 635 342 636 q 345 660 355 647 q 325 679 347 656 q 204 800 265 739 q 40 957 56 948 q 37 957 39 958 q 33 957 34 956 q 22 946 30 949 q 179 778 56 901 z "},"P":{"ha":843,"x_min":32,"x_max":828,"o":"m 663 605 q 584 711 659 677 q 439 708 509 746 q 431 703 436 707 q 420 696 425 699 q 346 757 410 722 q 290 837 291 787 q 275 793 276 817 q 288 752 273 768 q 341 718 298 740 q 387 680 378 699 q 388 656 392 669 q 385 646 387 653 q 380 635 381 640 q 374 576 374 612 q 353 576 361 587 q 343 545 345 566 q 349 509 342 524 q 370 496 356 493 q 419 387 355 435 q 424 326 427 341 q 419 307 420 306 q 521 307 424 307 q 606 284 585 307 q 593 282 604 282 q 597 259 597 262 q 591 264 595 260 q 584 268 587 267 q 588 261 583 266 q 591 252 593 256 q 579 248 588 243 q 563 256 564 256 q 553 256 559 256 q 544 255 546 254 q 533 260 538 256 q 525 264 528 263 q 397 230 433 227 q 341 245 361 233 q 316 303 319 258 q 315 342 316 311 q 313 382 315 368 q 300 289 300 288 q 321 237 301 265 q 216 181 264 221 q 151 84 159 133 q 253 156 183 121 q 313 184 268 163 q 372 214 351 202 q 469 225 414 203 q 522 248 523 248 q 530 245 525 248 q 538 243 535 243 q 564 248 546 242 q 596 241 577 230 q 602 275 615 254 q 612 292 624 279 q 585 309 602 301 q 437 317 574 313 q 438 370 442 356 q 476 354 457 354 q 503 362 488 354 q 527 375 522 373 q 598 410 584 392 q 610 467 616 432 q 557 399 598 416 q 539 393 551 396 q 521 389 526 391 q 505 380 515 387 q 489 372 496 374 q 452 378 469 368 q 427 397 450 379 q 380 523 362 450 q 377 515 378 522 q 372 509 375 510 q 357 521 362 507 q 353 548 352 532 q 359 571 353 564 q 376 571 366 580 q 378 539 379 535 q 388 605 378 537 q 408 659 393 642 q 509 696 441 701 q 596 663 562 692 q 634 582 631 632 q 618 489 636 542 q 663 605 665 562 m 76 117 q 89 108 86 106 q 124 258 71 172 q 349 485 195 374 q 341 481 348 486 q 308 462 309 462 q 271 486 294 462 q 214 614 222 538 q 257 632 252 613 q 218 633 227 623 q 211 652 219 631 q 207 662 210 656 q 203 670 203 667 q 216 801 184 716 q 282 844 238 825 q 147 791 193 852 q 112 644 107 736 q 150 515 116 570 q 241 442 186 458 q 159 608 165 490 q 210 792 153 726 q 184 697 186 744 q 195 631 183 676 q 185 630 193 630 q 175 629 178 630 q 185 623 178 627 q 195 618 192 621 q 223 521 192 584 q 286 446 254 458 q 83 268 127 331 q 51 174 47 216 q 76 117 54 143 m 507 413 q 463 419 494 406 q 483 402 465 405 q 507 413 500 399 m 530 471 q 566 454 547 451 q 578 460 570 455 q 583 469 585 466 q 530 471 558 458 m 638 494 q 637 492 637 494 q 659 476 642 489 q 680 459 673 466 q 704 410 702 438 q 681 305 706 365 q 469 133 634 195 q 374 103 436 120 q 273 74 302 83 q 227 58 256 68 q 180 40 191 45 q 74 24 102 13 q 38 88 43 36 q 36 43 32 64 q 53 12 40 21 q 127 1 77 -4 q 207 18 146 3 q 527 103 453 73 q 740 293 686 168 q 765 403 767 357 q 725 471 762 450 q 638 494 700 485 m 487 490 q 433 501 454 485 q 456 481 437 485 q 487 490 477 477 m 284 510 q 309 499 292 498 q 330 514 326 500 q 331 515 331 514 q 329 515 330 515 q 284 510 315 505 m 338 530 q 264 528 308 523 q 302 517 276 517 q 338 530 329 517 m 374 644 q 352 648 363 640 q 300 634 345 628 q 327 625 308 624 q 354 634 346 625 q 374 644 368 634 m 804 515 q 730 709 787 610 q 611 859 681 795 q 435 950 516 945 q 416 949 426 951 q 399 948 404 948 q 384 951 395 948 q 366 954 372 953 q 258 937 301 958 q 199 869 214 914 q 351 928 263 943 q 323 880 328 909 q 380 909 337 904 q 455 902 418 913 q 535 852 490 892 q 652 711 597 797 q 742 541 708 623 q 781 286 807 380 q 804 515 828 383 z "},"Q":{"ha":948,"x_min":13,"x_max":921,"o":"m 726 245 q 647 389 675 304 q 639 418 645 397 q 630 447 634 437 q 616 471 627 454 q 605 496 607 486 q 619 429 606 471 q 632 361 633 389 q 598 394 624 368 q 559 431 574 418 q 461 478 509 475 q 396 456 424 481 q 388 445 388 449 q 507 437 446 471 q 598 364 536 420 q 726 245 728 244 m 842 353 q 920 484 921 414 q 872 568 919 537 q 779 607 850 583 q 818 581 789 600 q 857 551 844 564 q 888 460 900 513 q 849 404 882 433 q 799 361 801 363 q 856 185 876 264 q 877 274 881 218 q 842 353 873 330 m 143 206 q 112 478 134 239 q 93 609 106 549 q 92 739 76 685 q 260 873 121 844 q 43 760 98 886 q 30 619 13 693 q 58 480 53 519 q 105 196 92 232 q 277 37 152 70 q 143 206 176 92 m 241 351 q 294 503 244 382 q 336 669 332 593 q 311 838 339 748 q 350 815 332 833 q 365 798 355 810 q 379 781 374 786 q 366 755 367 772 q 381 758 373 754 q 395 761 391 761 q 391 765 395 764 q 387 768 388 766 q 413 774 393 774 q 441 766 433 774 q 438 753 441 760 q 437 743 436 747 q 450 732 439 735 q 463 726 461 729 q 457 715 464 721 q 452 709 451 710 q 468 704 465 709 q 467 696 469 700 q 465 690 465 692 q 479 678 464 691 q 488 663 488 671 q 466 634 490 648 q 433 606 438 617 q 431 574 427 595 q 431 538 434 552 q 402 512 408 532 q 441 527 431 527 q 457 524 448 527 q 471 520 467 521 q 528 538 493 518 q 588 555 562 557 q 582 557 587 555 q 576 560 578 558 q 587 600 587 570 q 587 626 587 605 q 587 652 586 642 q 604 702 589 678 q 597 698 602 701 q 590 694 593 695 q 557 701 583 703 q 522 705 529 699 q 520 712 520 707 q 519 719 520 717 q 505 728 505 728 q 508 739 503 741 q 493 744 495 739 q 495 750 493 747 q 496 756 497 753 q 490 762 495 759 q 485 769 486 765 q 492 782 485 772 q 499 796 499 791 q 508 795 509 794 q 505 793 507 795 q 505 791 503 791 q 512 795 506 792 q 518 801 517 798 q 498 801 515 804 q 515 888 489 853 q 589 926 541 922 q 655 906 630 930 q 682 849 677 885 q 674 784 686 815 q 637 737 662 751 q 701 691 671 734 q 677 612 691 642 q 673 606 676 610 q 670 600 671 602 q 670 587 667 593 q 695 629 684 594 q 705 716 707 664 q 688 732 705 718 q 682 753 680 740 q 691 774 683 762 q 703 795 701 792 q 717 846 715 822 q 684 930 720 898 q 595 957 648 961 q 516 922 553 954 q 476 845 476 888 q 481 825 476 839 q 484 802 486 812 q 474 786 484 798 q 469 766 467 775 q 477 761 470 763 q 485 754 484 758 q 481 738 481 734 q 495 734 483 736 q 491 724 491 724 q 508 699 509 714 q 543 691 515 690 q 580 687 571 692 q 564 652 566 677 q 563 606 564 650 q 548 567 562 578 q 503 548 537 566 q 451 542 475 534 q 452 574 454 554 q 454 604 450 593 q 488 635 460 616 q 513 666 513 651 q 500 684 512 676 q 481 697 484 694 q 488 709 488 705 q 482 715 486 712 q 476 719 477 717 q 479 736 481 726 q 465 740 475 739 q 454 745 456 741 q 457 762 452 749 q 458 781 463 773 q 435 787 451 785 q 410 791 416 790 q 412 800 412 794 q 413 808 413 807 q 407 802 411 807 q 399 798 404 798 q 382 815 395 801 q 363 832 371 827 q 307 848 340 850 q 279 861 296 869 q 264 828 260 854 q 271 802 265 818 q 280 777 278 783 q 252 502 304 669 q 212 342 214 376 q 307 195 205 239 q 241 351 234 276 m 306 433 q 289 332 286 379 q 334 197 292 297 q 369 15 377 99 q 356 222 397 113 q 318 323 317 328 q 306 433 300 382 m 776 336 q 719 458 722 429 q 734 505 718 471 q 758 615 764 571 q 728 542 751 587 q 700 471 701 488 q 713 425 699 458 q 783 269 773 297 q 798 194 800 220 q 684 186 792 132 q 612 227 659 199 q 542 266 566 254 q 456 284 489 292 q 536 229 470 268 q 580 204 585 202 l 625 180 q 626 144 637 165 q 600 119 616 125 q 596 0 610 81 q 629 106 629 41 q 670 162 669 130 q 728 138 697 146 q 800 130 781 123 q 819 154 808 133 q 829 210 831 179 q 776 336 825 253 m 456 487 q 550 476 505 471 q 618 513 598 483 q 650 664 667 586 q 635 585 651 622 q 600 527 620 548 q 539 496 580 505 q 456 487 517 492 m 707 615 q 699 589 698 587 q 705 566 695 574 q 730 621 725 583 q 722 686 737 661 q 707 615 722 659 m 600 758 q 633 769 619 748 q 632 808 646 791 q 614 809 623 812 q 602 799 604 806 q 621 801 614 806 q 627 785 627 796 q 618 765 626 773 q 600 758 611 755 m 240 846 q 251 853 239 846 q 255 858 258 857 q 149 735 170 850 q 167 542 130 634 q 178 718 163 640 q 240 846 197 811 z "},"R":{"ha":2066,"x_min":16,"x_max":2043,"o":"m 1733 142 q 1796 199 1776 154 q 1804 288 1814 241 q 1757 361 1793 337 q 1655 374 1716 390 q 1579 313 1598 358 q 1578 227 1561 273 q 1636 155 1595 180 q 1733 142 1681 128 m 701 142 q 774 197 750 153 q 787 287 795 239 q 740 362 777 337 q 633 374 697 391 q 559 316 578 359 q 557 231 541 277 q 610 161 572 186 q 701 142 652 132 m 267 933 q 248 880 281 898 q 222 867 222 867 q 209 846 210 859 q 281 757 208 815 q 373 663 362 693 q 875 769 876 769 q 903 692 901 750 q 904 640 905 674 q 903 586 903 601 q 1154 567 1082 546 q 1236 644 1191 577 q 1318 740 1289 720 q 1468 798 1367 773 q 1554 816 1477 800 q 1636 837 1605 827 q 1954 924 1925 922 q 1975 866 1973 911 q 1974 827 1975 855 q 1974 789 1973 802 q 1963 778 1971 785 q 1952 767 1957 770 q 1916 760 1938 756 q 1959 667 1925 739 q 2000 573 1986 610 q 2041 345 2043 460 q 2009 309 2013 312 q 1954 296 1988 292 q 1884 69 1973 151 q 1683 1 1805 -3 q 1485 81 1560 6 q 1424 296 1399 165 l 942 296 q 871 80 956 164 q 677 1 794 5 q 480 64 559 -5 q 402 277 392 140 q 374 307 399 295 q 344 335 348 321 q 298 603 373 495 q 226 687 276 635 q 151 769 172 742 q 111 743 131 769 q 64 721 92 718 q 41 750 60 734 q 16 779 21 766 q 68 844 31 794 q 127 915 106 892 q 267 933 203 989 z "},"S":{"ha":1010,"x_min":22,"x_max":983,"o":"m 126 0 l 286 0 q 360 121 295 77 q 503 162 420 162 q 644 122 585 162 q 718 0 710 77 l 878 0 l 878 286 l 126 286 l 126 0 m 704 488 q 711 531 715 503 q 704 578 704 579 l 572 578 q 573 525 571 570 q 565 481 574 492 q 494 480 556 481 q 433 488 451 479 l 433 578 l 300 578 q 294 481 291 477 l 22 481 l 22 348 l 983 348 l 983 481 q 840 479 960 481 q 704 488 751 478 m 857 641 q 503 954 651 852 q 161 634 193 677 q 513 633 224 635 q 857 641 731 631 z "},"T":{"ha":1073,"x_min":29,"x_max":1053,"o":"m 419 342 q 345 274 347 278 q 357 212 348 250 q 370 151 366 168 q 796 169 565 115 q 709 336 739 296 q 562 311 654 309 q 419 342 469 313 m 802 812 q 827 837 831 808 q 801 838 814 851 q 802 812 788 825 m 852 948 q 854 915 859 935 q 852 874 850 888 q 913 849 871 860 q 981 831 971 835 q 963 756 986 783 q 895 732 935 756 q 821 713 859 709 q 881 541 873 579 q 827 385 901 432 q 855 293 839 353 q 883 200 874 226 q 996 221 943 239 q 1044 119 1053 201 q 589 1 873 15 q 110 82 298 -12 q 115 150 102 115 q 153 200 128 181 q 209 191 180 202 q 258 175 248 177 q 208 299 254 195 q 258 515 270 355 q 220 486 234 509 q 203 441 214 474 q 182 397 193 410 q 140 373 168 376 q 68 397 98 368 q 29 478 39 426 q 37 488 32 488 q 46 484 39 488 q 79 478 64 473 q 161 576 123 547 q 289 583 224 622 q 370 627 315 621 q 481 623 406 631 q 592 616 560 614 q 679 651 650 620 q 666 875 626 776 q 730 945 687 926 q 852 948 780 968 z "},"U":{"ha":1458,"x_min":16,"x_max":1440,"o":"m 1417 703 q 1209 703 1313 730 q 1197 541 1223 603 q 1084 470 1166 469 q 977 541 1013 471 q 977 686 941 611 q 874 713 953 714 q 743 711 745 711 q 718 668 723 701 q 718 600 715 646 q 702 478 724 499 q 539 469 600 514 q 490 355 487 429 q 547 246 493 283 q 702 245 608 204 q 720 134 723 220 q 727 13 715 39 q 968 21 902 -16 q 966 89 976 54 q 960 146 956 126 q 1004 220 968 193 q 1081 246 1037 245 q 1160 224 1125 247 q 1209 154 1198 199 q 1211 98 1216 129 q 1201 29 1202 52 q 1417 13 1244 -19 q 1417 703 1440 358 m 661 179 q 486 212 551 150 q 429 361 429 267 q 488 511 430 455 q 661 545 553 574 l 661 711 q 612 711 644 713 q 564 711 578 710 q 503 745 510 713 q 513 870 538 815 q 435 938 492 918 q 330 938 380 957 q 261 861 275 918 q 266 789 254 833 q 269 720 277 746 q 157 711 241 708 q 45 703 73 715 q 62 454 16 496 q 210 453 146 485 q 278 353 273 422 q 210 234 283 267 q 45 220 147 206 q 45 13 18 106 q 669 13 359 -10 q 659 91 657 35 q 661 179 662 165 z "},"V":{"ha":1054,"x_min":29,"x_max":1027,"o":"m 526 288 q 502 336 522 319 q 459 348 484 350 q 416 330 435 346 q 388 288 395 313 q 349 308 361 283 q 328 347 334 343 q 265 338 292 363 q 229 288 254 328 l 197 288 l 197 228 q 258 190 233 226 q 276 168 269 173 q 309 162 289 159 q 333 176 324 164 q 345 199 336 180 q 395 228 358 229 q 463 170 410 168 q 533 228 513 172 l 553 228 q 576 181 556 198 q 618 167 594 166 q 661 182 642 167 q 685 228 681 199 l 850 228 l 850 288 l 678 288 q 655 336 674 320 q 616 347 639 349 q 574 328 593 344 q 547 288 554 311 l 526 288 m 586 380 q 612 396 602 382 q 629 422 613 397 q 692 446 650 456 q 745 380 701 379 q 769 393 758 380 q 788 420 772 397 q 844 446 812 456 l 844 505 l 797 505 q 738 578 793 565 q 712 561 722 575 q 698 532 710 558 q 639 505 680 496 q 621 559 638 542 q 583 571 606 574 q 543 550 561 568 q 520 505 524 531 l 190 505 l 190 446 l 533 446 q 551 404 534 420 q 586 380 560 393 m 276 604 q 334 622 314 596 q 368 663 364 661 l 395 663 q 416 632 404 657 q 441 604 427 610 l 480 604 q 507 633 494 609 q 533 663 519 659 l 559 663 q 581 632 568 657 q 606 604 593 610 q 663 620 643 597 q 677 641 669 627 q 692 663 687 658 l 844 663 l 844 723 l 685 723 q 663 773 682 758 q 623 783 648 787 q 581 762 602 779 q 553 723 561 745 l 526 723 q 460 782 512 786 q 388 723 409 777 l 361 723 q 333 769 336 766 q 296 789 317 789 q 248 751 275 789 q 190 723 223 715 l 190 663 q 243 645 227 672 q 276 604 267 608 m 896 122 l 151 122 q 149 486 151 188 q 157 842 148 710 l 896 842 l 896 122 m 982 921 q 792 957 942 959 q 670 952 750 956 q 566 947 593 947 q 450 951 525 947 q 328 957 354 956 q 111 941 181 961 q 37 861 50 923 q 31 710 31 837 l 31 261 q 31 205 31 248 q 30 149 29 170 q 52 56 32 85 q 242 4 85 7 q 378 6 291 3 q 507 10 476 10 q 619 5 532 10 q 760 0 709 1 q 982 43 938 -1 q 1020 224 1018 79 q 1018 354 1021 269 q 1015 479 1015 445 q 1020 600 1015 515 q 1025 728 1025 687 q 982 921 1027 878 z "},"W":{"ha":1118,"x_min":24,"x_max":1090,"o":"m 675 264 q 606 238 646 257 q 543 208 555 213 q 517 157 534 191 q 492 107 500 124 l 763 107 q 675 264 748 138 m 404 567 q 479 611 416 572 q 425 612 471 610 q 378 604 391 613 q 404 567 398 591 m 643 919 q 654 795 660 851 q 599 711 646 726 q 715 574 663 683 q 755 477 731 541 q 794 384 783 410 q 913 107 898 156 q 1033 84 989 120 q 1090 0 1059 63 l 146 0 q 182 58 156 28 q 227 107 233 113 l 341 107 q 384 209 364 139 q 422 309 404 281 q 500 370 443 338 q 580 428 560 405 q 530 510 531 509 q 458 474 515 505 q 378 447 416 451 q 332 520 351 469 q 317 566 327 534 q 303 611 309 595 q 146 608 286 614 q 26 642 47 604 q 31 661 24 655 q 47 669 35 665 q 64 675 60 672 q 70 692 71 681 q 143 665 85 665 q 253 667 255 667 q 323 705 269 699 q 429 705 340 707 q 409 740 429 713 q 385 787 387 768 q 234 863 286 778 q 347 869 224 858 q 469 949 344 944 q 643 919 580 955 z "},"X":{"ha":1063,"x_min":15,"x_max":1048,"o":"m 67 616 q 59 778 20 694 q 175 899 94 853 q 321 929 256 945 q 408 817 396 911 q 404 775 407 819 q 418 736 401 749 q 429 779 430 741 q 569 589 476 729 q 506 515 562 580 q 445 438 467 470 q 339 486 404 451 q 235 535 269 523 q 258 550 236 545 q 273 573 277 555 q 157 564 215 553 q 67 616 93 574 m 445 406 q 524 497 473 437 q 602 589 576 561 q 516 708 579 629 q 434 822 454 784 q 372 925 389 908 q 240 958 328 969 q 123 898 179 949 q 43 782 71 849 q 28 652 15 712 q 105 551 42 585 q 142 542 119 544 q 180 535 171 538 q 313 473 226 522 q 445 406 409 420 m 596 313 q 665 274 623 271 q 730 311 701 277 q 759 383 760 345 q 715 449 758 426 q 654 383 688 427 q 596 313 609 327 m 202 216 q 224 222 217 216 q 282 172 267 181 q 370 151 320 149 q 375 140 373 140 q 330 95 366 102 q 261 107 299 89 q 205 155 224 125 q 202 216 186 188 m 769 882 q 865 821 829 873 q 871 709 905 764 q 829 720 854 706 q 821 775 838 751 q 783 810 812 789 q 752 840 757 829 q 769 882 745 859 m 774 535 q 836 587 787 547 q 907 649 882 623 q 958 817 986 733 q 918 870 949 842 q 866 903 890 894 q 660 872 763 945 q 521 736 627 848 q 623 595 580 649 q 538 488 593 553 q 450 384 472 411 q 289 460 343 438 q 222 371 273 428 q 164 281 176 320 q 159 155 144 216 q 212 59 173 98 q 300 16 251 20 q 402 48 353 12 q 515 222 409 54 q 774 535 614 378 m 979 557 q 933 611 958 589 q 877 606 892 646 q 903 565 874 598 q 942 519 939 525 q 973 307 1001 418 q 863 134 948 206 q 674 55 777 62 q 472 124 561 47 q 553 21 418 71 q 773 17 662 -19 q 950 138 878 50 q 1035 334 1024 227 q 979 557 1048 452 z "},"Y":{"ha":406,"x_min":28,"x_max":381,"o":"m 119 34 q 85 57 105 36 q 62 92 64 78 q 60 345 52 164 q 62 583 69 528 q 96 622 70 605 q 119 635 100 625 q 142 650 134 644 q 111 669 138 659 q 89 699 87 678 l 328 699 q 304 671 328 680 q 275 650 279 660 q 315 624 281 640 q 345 588 344 611 q 309 584 328 593 q 288 574 289 574 q 294 585 299 580 q 275 589 290 588 q 251 588 262 591 q 239 579 239 585 l 239 562 q 295 562 264 563 q 354 562 338 561 q 351 534 354 558 q 349 504 348 517 q 281 505 349 503 q 239 481 241 507 l 349 481 l 349 424 q 277 425 352 425 q 239 401 234 426 l 349 401 l 349 345 q 80 349 267 362 q 78 214 86 301 q 80 100 71 137 q 137 59 87 74 q 237 50 184 45 q 321 81 295 56 q 328 158 352 111 q 239 167 233 177 q 273 181 237 181 q 304 180 278 181 q 332 180 323 179 q 332 212 331 185 q 328 238 334 232 l 239 238 q 271 266 234 267 q 332 264 334 265 q 328 317 322 323 q 273 316 324 319 q 239 335 239 315 q 332 345 234 328 q 332 323 331 327 q 349 317 336 313 q 351 286 349 314 q 340 264 352 265 l 332 264 q 332 243 331 247 q 349 238 336 233 q 351 203 349 234 q 340 180 352 182 l 332 180 q 349 158 328 152 q 290 38 374 65 q 119 34 229 19 m 323 650 q 344 673 341 669 q 349 712 353 690 q 288 727 330 726 q 248 726 273 727 q 208 725 219 725 q 168 726 196 725 q 129 727 142 728 q 66 712 85 726 q 67 676 56 694 q 78 662 71 670 q 89 650 87 651 q 35 530 42 625 q 36 349 35 530 q 33 269 36 321 q 29 186 30 210 q 54 52 28 90 q 179 2 81 11 q 319 16 269 -6 q 377 135 370 39 q 378 229 380 168 q 376 335 376 319 q 379 435 376 359 q 379 527 381 495 q 323 650 373 622 m 84 752 q 230 747 98 747 q 267 746 237 747 q 302 746 290 745 q 340 774 339 749 q 301 796 332 785 q 261 819 271 807 q 271 860 261 838 q 279 898 280 880 q 254 946 276 930 q 205 960 233 961 q 157 941 176 958 q 133 894 134 922 q 155 823 134 901 q 117 798 146 809 q 75 779 84 786 q 76 761 75 762 q 84 752 77 752 z "},"Z":{"ha":930,"x_min":24,"x_max":903,"o":"m 127 532 q 24 452 51 529 q 119 468 71 479 q 194 420 163 458 q 226 338 224 382 q 194 250 228 288 q 279 308 256 261 q 283 404 300 349 q 227 494 268 458 q 127 532 181 534 m 551 652 q 555 827 568 692 q 546 745 543 807 q 542 657 549 677 q 551 652 542 655 m 208 840 q 197 694 195 792 q 198 536 200 563 q 201 528 197 531 q 208 523 207 526 q 216 528 214 522 q 217 690 215 555 q 208 840 219 790 m 667 590 q 644 602 661 600 q 613 608 621 604 q 585 631 602 613 q 551 640 574 642 q 506 608 528 637 q 460 606 480 618 q 435 573 442 596 q 436 530 429 551 q 466 500 444 509 q 542 487 510 505 q 587 492 561 478 q 640 500 616 507 q 674 538 667 522 q 667 590 686 563 m 194 903 q 201 890 195 902 q 216 885 205 882 q 216 901 216 882 q 225 907 216 910 q 546 921 374 933 q 545 891 547 918 q 555 871 544 872 q 559 921 549 867 q 756 890 722 907 q 452 860 625 861 q 154 894 269 860 q 172 900 159 895 q 194 903 183 904 m 377 831 q 382 579 382 738 q 381 322 380 368 l 390 322 q 400 570 402 410 q 399 831 397 786 q 751 859 625 829 q 756 724 758 815 q 756 576 754 610 q 755 571 756 577 q 755 561 755 565 q 760 559 755 548 q 769 563 760 561 q 774 570 774 546 q 774 593 774 577 q 774 612 774 608 q 773 688 774 633 q 772 768 772 741 q 791 903 774 865 q 556 952 724 943 q 261 943 412 960 q 174 931 198 937 q 118 894 119 918 q 222 845 117 858 q 308 838 248 842 q 377 831 359 835 m 903 416 q 857 420 889 422 q 805 420 813 419 q 783 471 793 433 q 760 523 772 511 q 729 420 760 517 l 627 420 q 711 357 643 404 q 694 308 705 344 q 675 259 684 274 q 719 282 692 259 q 765 313 750 308 q 809 283 781 306 q 854 255 836 262 q 837 304 848 268 q 819 353 827 337 q 903 416 862 392 m 386 309 q 372 250 373 287 l 408 250 q 406 288 407 281 q 386 309 401 307 m 466 214 q 488 240 479 225 q 493 273 498 259 q 444 241 502 273 q 455 228 446 235 q 466 214 464 220 m 288 273 q 295 239 286 255 q 310 214 309 216 q 326 226 312 217 q 336 241 336 232 q 316 261 338 241 q 288 273 303 273 m 488 183 q 492 166 488 177 q 493 147 494 157 q 510 153 498 150 q 527 157 522 156 q 546 183 547 165 q 488 183 505 189 m 292 183 q 234 179 262 197 q 254 158 235 164 q 283 147 281 149 q 292 183 293 157 m 484 112 q 477 96 484 104 q 471 81 471 87 q 528 67 533 70 q 484 112 522 99 m 252 76 q 256 67 251 68 q 310 81 269 61 q 304 97 309 88 q 296 112 298 109 q 252 76 273 105 m 305 161 q 349 222 313 201 q 430 224 389 244 q 348 207 383 233 q 305 161 333 196 m 484 161 q 454 218 481 193 q 408 241 432 238 q 336 222 366 248 q 301 160 307 198 q 314 94 294 122 q 386 58 337 62 q 458 81 430 54 q 484 161 489 109 m 408 49 q 414 33 410 44 q 421 18 419 23 q 448 0 431 1 q 451 28 455 10 q 444 58 444 62 q 427 53 437 58 q 408 49 416 49 m 336 58 q 333 31 336 55 q 332 0 330 14 q 359 18 350 1 q 366 33 363 23 q 372 49 371 46 q 355 54 363 47 q 336 58 345 60 z "},"[":{"ha":687,"x_min":28,"x_max":660,"o":"m 352 385 q 343 358 340 387 q 356 322 346 329 q 467 303 402 298 q 557 349 536 309 q 619 336 585 326 q 657 375 654 345 q 640 428 660 401 q 592 456 618 454 q 539 420 561 457 q 511 495 518 483 q 450 505 486 534 q 460 456 448 481 q 477 412 475 426 q 423 403 464 401 q 416 357 422 387 q 410 309 409 328 q 359 331 377 312 q 352 385 338 353 m 245 751 q 344 775 309 738 q 370 861 374 808 q 328 942 364 913 q 227 953 287 975 q 182 913 198 943 q 167 850 165 884 q 186 789 168 814 q 245 751 207 760 m 418 403 q 311 496 400 488 q 293 467 292 480 q 309 444 294 456 q 337 422 341 418 q 352 394 351 408 q 418 403 385 375 m 289 291 q 454 277 277 303 l 454 0 l 494 0 l 494 273 q 580 277 514 280 q 660 286 640 274 q 289 291 569 302 m 418 564 q 365 595 404 582 q 302 617 311 613 q 272 669 294 628 q 235 729 250 709 q 124 747 182 795 q 75 635 111 736 q 35 519 35 523 q 33 401 28 477 q 35 300 38 324 l 71 300 q 71 156 71 256 q 71 22 70 64 q 103 2 81 5 q 142 14 126 -1 q 152 149 153 59 q 151 295 150 275 q 168 300 153 301 q 186 304 184 299 q 218 586 176 488 q 396 505 261 526 q 418 564 425 526 z "},"\\":{"ha":1545,"x_min":21,"x_max":1563,"o":"m 632 77 q 908 77 770 58 q 879 138 922 114 q 777 161 840 159 q 671 142 713 163 q 632 77 624 119 m 935 380 q 275 414 957 382 q 262 400 268 412 q 269 397 265 401 q 275 394 273 394 q 847 212 549 191 q 1190 347 1001 223 q 1214 361 1196 351 q 1238 376 1230 370 q 1272 414 1265 395 q 1103 404 1204 420 q 935 380 962 382 m 901 441 q 1150 488 994 440 q 1158 538 1157 508 q 1150 589 1159 573 q 1034 547 1103 545 q 922 595 964 550 q 910 519 916 570 q 901 441 905 462 m 1069 750 q 1120 705 1078 741 q 1167 656 1151 677 q 1204 501 1215 594 q 1441 490 1357 511 q 1487 367 1563 458 q 1263 326 1370 382 q 1097 212 1257 322 q 1116 170 1101 199 q 1137 126 1131 142 q 1143 24 1158 71 q 971 0 1081 1 q 873 1 938 0 q 773 3 804 3 q 403 17 461 3 q 401 117 382 58 q 444 205 411 147 q 279 325 334 296 q 53 367 172 381 q 28 410 35 380 q 33 468 21 441 q 148 497 66 492 q 282 508 273 507 q 290 664 268 597 q 383 750 315 741 q 420 743 395 752 q 471 730 451 732 q 530 724 488 728 q 577 718 562 722 q 632 663 619 708 q 661 709 663 680 q 642 769 660 728 q 620 833 623 812 q 639 892 614 868 q 713 880 684 901 q 755 821 735 863 q 770 785 758 814 q 787 749 780 762 q 834 696 807 710 q 888 794 844 747 q 925 832 895 802 q 962 871 949 855 q 946 924 962 878 q 955 972 937 953 q 1040 950 1002 972 q 1095 896 1077 930 q 1109 825 1114 862 q 1069 750 1103 785 z "},"]":{"ha":1054,"x_min":39,"x_max":1023,"o":"m 880 56 q 839 71 858 55 q 814 109 821 87 q 817 151 807 133 q 859 180 828 173 q 915 170 895 187 q 935 128 933 155 q 922 81 936 102 q 880 56 905 58 m 842 233 q 772 179 794 222 q 762 94 752 140 q 807 21 772 47 q 904 3 847 -8 q 975 57 949 12 q 990 151 1000 101 q 937 220 981 195 q 842 233 892 244 m 408 56 q 368 73 385 56 q 346 111 351 88 q 351 153 340 134 q 391 180 363 173 q 448 170 428 187 q 467 127 467 155 q 452 79 467 100 q 408 56 435 57 m 375 233 q 304 180 329 222 q 289 90 279 139 q 331 24 298 46 q 402 5 361 3 q 474 25 441 5 q 519 77 508 45 q 491 204 545 157 q 375 233 441 248 m 273 708 q 210 753 252 736 q 172 765 197 758 q 129 778 142 774 q 106 791 121 781 q 88 798 95 799 q 51 783 64 798 q 40 749 39 770 q 51 715 41 730 q 80 696 62 699 q 113 705 92 694 q 150 717 136 717 q 204 692 175 716 q 236 655 226 673 q 260 564 254 623 q 273 475 267 492 q 347 331 298 389 q 543 210 425 237 q 763 222 652 184 q 944 344 874 259 q 1023 553 1020 435 l 318 553 q 273 708 305 665 m 1023 610 q 707 954 981 892 q 621 606 620 597 q 1023 610 1017 610 z "},"^":{"ha":1073,"x_min":29,"x_max":1053,"o":"m 419 342 q 345 274 347 278 q 357 212 348 250 q 370 151 366 168 q 796 169 565 115 q 709 336 739 296 q 562 311 654 309 q 419 342 469 313 m 802 812 q 827 837 831 808 q 801 838 814 851 q 802 812 788 825 m 852 948 q 854 915 859 935 q 852 874 850 888 q 913 849 871 860 q 981 831 971 835 q 963 756 986 783 q 895 732 935 756 q 821 713 859 709 q 881 541 873 579 q 827 385 901 432 q 855 293 839 353 q 883 200 874 226 q 996 221 943 239 q 1044 119 1053 201 q 589 1 873 15 q 110 82 298 -12 q 115 150 102 115 q 153 200 128 181 q 209 191 180 202 q 258 175 248 177 q 208 299 254 195 q 258 515 270 355 q 220 486 234 509 q 203 441 214 474 q 182 397 193 410 q 140 373 168 376 q 68 397 98 368 q 29 478 39 426 q 37 488 32 488 q 46 484 39 488 q 79 478 64 473 q 161 576 123 547 q 289 583 224 622 q 370 627 315 621 q 481 623 406 631 q 592 616 560 614 q 679 651 650 620 q 666 875 626 776 q 730 945 687 926 q 852 948 780 968 z "},"_":{"ha":731,"x_min":34,"x_max":689,"o":"m 543 972 l 547 972 q 591 907 591 972 l 591 904 q 585 898 591 898 q 635 853 585 862 q 680 779 668 853 q 686 732 680 774 q 668 705 669 732 q 671 693 671 700 q 653 684 661 684 l 653 682 l 659 673 q 656 634 656 648 l 659 622 l 653 610 q 665 589 653 604 l 665 587 l 659 578 l 683 347 q 671 243 671 267 q 680 231 680 243 q 677 228 680 228 l 689 178 q 680 166 684 166 l 659 166 q 635 204 635 166 l 633 204 q 644 252 637 252 l 642 258 l 644 264 l 621 403 l 614 400 l 594 400 q 573 474 583 400 q 564 433 566 474 q 555 420 562 433 l 564 373 l 558 290 q 576 240 572 290 l 547 231 l 541 234 q 511 222 515 222 l 511 219 q 529 184 529 219 q 487 127 519 127 l 481 127 q 460 163 460 136 l 460 172 q 446 178 446 172 q 449 181 446 181 q 378 210 449 193 q 369 216 378 214 q 307 195 346 205 q 283 210 298 197 q 259 121 283 199 l 259 115 q 283 68 275 115 q 259 18 275 68 q 215 0 242 0 q 168 54 168 14 q 185 92 168 68 q 229 127 196 127 l 241 127 q 244 148 241 136 q 233 142 233 146 q 170 163 170 149 l 173 169 q 155 175 163 175 l 144 172 q 140 175 144 175 l 140 172 q 146 148 140 166 q 102 113 146 116 q 79 95 96 95 l 69 95 q 34 139 47 95 l 34 145 q 66 181 37 181 l 73 181 l 79 178 q 96 208 96 201 q 90 214 90 208 q 120 288 120 281 q 90 329 103 288 q 93 338 90 332 q 90 347 90 344 l 99 353 l 114 353 q 158 379 149 353 l 161 385 q 138 420 151 407 q 149 441 144 441 l 197 433 q 265 465 265 433 l 265 468 q 250 477 250 470 q 253 486 253 483 q 233 551 233 517 q 235 578 235 567 l 227 604 q 259 643 227 613 q 307 675 279 675 l 324 675 q 380 646 349 675 q 401 673 387 646 q 463 726 431 673 l 458 729 q 517 833 488 833 q 541 850 541 847 q 499 916 519 862 q 543 972 499 963 m 502 714 q 460 661 483 667 l 460 658 q 487 655 476 658 q 499 658 492 658 l 499 664 q 505 684 500 684 l 502 699 q 505 711 502 706 l 505 714 l 502 714 m 443 643 q 431 628 443 634 q 428 637 428 634 l 398 637 l 398 634 q 478 584 478 608 q 487 599 484 584 q 481 604 481 599 l 496 625 l 496 640 l 463 640 l 443 643 m 440 249 q 469 222 454 222 q 511 270 469 241 q 529 294 511 274 l 511 385 l 511 400 q 467 361 496 382 q 449 252 458 342 q 440 249 443 249 m 135 281 q 129 252 135 275 l 132 246 l 129 228 l 129 216 q 168 199 135 210 q 212 178 168 178 q 233 166 219 178 l 235 166 q 265 219 265 201 l 265 222 q 197 273 197 245 q 191 281 194 273 q 182 279 188 281 q 135 281 152 281 m 401 231 l 401 228 l 422 222 l 425 222 l 425 225 l 404 231 l 401 231 m 378 222 q 446 195 378 217 l 446 208 q 389 225 427 208 q 378 222 385 222 m 428 222 l 428 219 l 434 219 l 434 222 l 428 222 m 484 222 l 484 219 l 490 219 l 490 222 l 484 222 z "},"`":{"ha":809,"x_min":41,"x_max":760,"o":"m 627 972 l 640 972 q 643 968 643 972 q 646 972 646 968 q 692 926 692 962 q 699 913 692 913 q 692 881 696 881 l 695 875 l 695 871 q 675 842 675 854 l 675 836 q 721 806 675 814 q 760 764 760 794 q 741 618 753 699 q 747 518 741 604 q 692 243 717 243 q 679 224 692 224 q 686 178 679 201 q 682 149 682 161 l 682 100 q 695 58 695 66 q 682 36 695 41 l 656 36 q 611 29 635 36 q 555 58 562 29 q 572 75 560 58 q 566 81 566 75 l 566 84 q 604 139 566 102 q 608 153 608 145 q 566 262 584 262 l 569 279 q 511 301 569 286 l 511 311 l 507 311 q 478 233 492 233 q 416 224 416 227 q 413 210 413 218 l 413 201 q 452 162 452 201 q 410 117 446 117 q 384 126 400 117 q 378 104 384 117 q 426 58 418 101 q 381 0 410 0 q 329 42 347 0 q 358 97 342 97 l 358 120 q 267 181 353 120 q 235 191 243 191 q 190 162 190 191 q 157 146 171 146 q 119 178 138 151 q 99 155 119 168 l 96 155 l 90 159 l 73 139 l 73 136 q 96 142 86 142 q 135 94 127 142 q 102 45 127 78 l 86 42 q 41 94 46 42 q 63 133 41 102 q 112 191 63 155 l 141 230 l 141 233 q 135 237 135 233 q 106 230 129 233 q 70 262 106 241 q 128 324 124 292 l 135 330 q 128 382 128 357 q 219 418 165 418 l 235 418 l 235 421 q 186 518 186 475 q 180 557 181 518 l 180 573 q 219 606 180 600 q 222 609 219 609 q 238 606 233 609 l 258 609 l 264 609 q 290 602 288 602 l 296 602 q 319 609 319 602 l 342 606 l 361 606 l 361 587 q 423 538 374 587 l 433 551 l 433 557 q 384 576 412 576 l 384 583 q 394 589 384 589 q 449 573 412 589 q 465 583 449 582 l 426 618 q 478 629 426 629 l 500 625 q 549 674 549 654 q 559 706 549 681 q 546 771 559 715 q 614 817 546 798 l 614 819 q 585 891 585 883 l 588 891 q 582 907 582 901 l 585 907 q 582 917 582 913 q 627 972 582 948 m 452 528 l 449 528 l 442 531 q 429 512 429 518 q 458 470 437 470 q 481 444 479 470 q 475 412 475 418 q 494 366 481 412 q 488 353 492 353 q 511 314 497 327 q 533 444 511 333 q 536 483 536 477 l 511 499 l 484 467 l 481 467 q 465 538 471 467 l 452 528 m 196 395 l 170 379 q 164 359 164 368 l 164 353 q 193 340 164 340 q 235 359 193 359 q 254 366 235 363 q 225 395 254 395 l 222 395 l 199 392 q 196 395 199 395 m 336 220 l 336 217 q 355 208 338 208 l 361 208 l 361 210 q 352 220 361 215 l 336 220 m 248 210 l 248 208 l 277 208 l 274 214 q 248 210 261 210 m 196 210 q 199 201 199 204 l 216 201 l 216 208 l 199 210 l 196 210 m 271 188 l 358 139 l 358 142 q 345 184 349 184 q 300 195 330 184 l 277 195 q 271 188 271 193 m 633 113 l 614 81 l 617 81 q 637 100 637 81 l 637 113 l 633 113 z "},"a":{"ha":787,"x_min":16,"x_max":758,"o":"m 465 923 q 594 905 536 951 q 630 857 620 886 q 630 795 641 827 q 578 895 628 861 q 465 923 534 926 m 597 753 q 650 835 654 784 q 603 917 647 880 q 512 952 559 954 q 433 895 458 950 q 597 753 569 839 m 315 913 q 203 896 253 933 q 146 800 157 861 q 155 870 138 838 q 201 916 170 898 q 261 932 230 932 q 315 913 294 932 m 174 753 q 245 838 220 814 q 348 890 290 879 q 273 951 326 946 q 182 921 227 956 q 130 841 137 886 q 174 753 123 789 m 395 612 q 421 631 398 616 q 433 659 435 641 q 406 688 429 685 q 366 677 387 691 q 347 646 346 663 q 386 616 350 627 l 386 536 q 361 539 377 531 q 334 551 341 550 q 392 522 341 520 q 452 551 443 523 q 425 543 439 550 q 399 532 407 534 q 395 612 403 526 m 372 498 q 286 525 320 505 q 245 584 248 548 q 292 677 240 635 q 395 715 342 717 q 492 671 444 714 q 536 579 542 626 q 475 516 531 541 q 372 498 423 493 m 282 763 q 313 770 296 779 q 324 734 332 760 q 294 730 311 721 q 282 763 277 739 m 456 763 q 477 772 463 772 q 498 763 492 772 q 494 736 502 747 q 476 727 488 728 q 459 735 465 726 q 456 763 452 745 m 536 513 q 581 586 576 576 q 597 696 604 637 q 517 837 587 786 q 362 876 450 886 q 257 829 302 869 q 195 736 214 792 q 189 622 176 679 q 249 513 202 559 q 118 466 176 497 q 28 376 43 426 q 35 310 16 337 q 84 278 51 286 q 147 282 117 271 q 193 324 180 295 q 193 281 194 316 q 193 225 192 241 q 273 225 243 237 q 309 310 272 279 q 391 338 342 338 q 472 311 439 339 q 508 225 509 279 q 588 225 538 237 q 583 324 596 275 q 631 286 584 324 q 701 273 660 262 q 741 301 725 279 q 757 348 757 323 q 673 460 758 409 q 536 513 610 496 m 357 79 q 353 63 357 73 q 348 46 349 53 l 437 46 q 430 62 434 52 q 423 79 425 76 q 357 79 390 73 m 578 108 q 602 134 578 127 q 640 126 627 140 q 613 96 640 106 q 578 108 587 86 m 555 126 q 549 166 540 142 q 583 188 559 191 q 585 147 593 168 q 555 126 575 127 m 489 65 q 545 117 490 111 q 565 73 569 98 q 542 36 562 51 q 507 27 523 21 q 489 65 488 33 m 498 193 q 527 171 519 191 q 527 131 535 151 q 492 152 502 127 q 498 193 483 176 m 545 216 q 473 187 503 216 q 440 121 446 161 q 452 50 433 81 q 517 4 473 14 q 608 22 572 -9 q 646 96 640 49 q 627 178 651 143 q 545 216 599 216 m 292 46 q 268 24 285 26 q 236 37 252 23 q 216 71 220 51 q 226 113 211 93 q 235 117 235 115 q 282 93 265 117 q 292 46 299 71 m 197 188 q 230 170 220 191 q 231 131 239 151 q 198 144 211 121 q 197 188 186 167 m 202 98 q 163 98 181 90 q 146 131 143 108 q 186 132 165 140 q 202 98 208 123 m 282 193 q 289 154 297 178 q 258 131 281 130 q 252 169 243 145 q 282 193 262 192 m 240 216 q 167 189 197 217 q 134 122 140 162 q 146 50 127 82 q 212 4 168 14 q 302 21 267 -9 q 340 94 335 47 q 320 176 345 141 q 240 216 292 214 z "},"b":{"ha":1185,"x_min":21,"x_max":1161,"o":"m 1090 357 q 880 357 1085 357 q 886 541 886 425 q 885 732 885 707 l 1090 732 l 1090 357 m 831 357 q 727 356 810 355 q 626 352 650 357 q 626 732 624 714 l 831 732 l 831 357 m 572 357 q 361 357 504 352 q 360 542 362 391 q 366 732 359 667 l 566 732 q 572 548 574 665 q 572 357 571 391 m 312 357 q 218 357 284 355 q 101 357 136 359 q 100 548 102 391 q 106 732 100 665 l 307 732 q 313 548 314 665 q 312 357 311 391 m 1145 835 q 1161 911 1158 920 q 1123 943 1152 938 q 1074 927 1095 947 q 1078 864 1062 899 q 1090 797 1097 825 q 605 791 913 789 q 101 791 201 793 q 108 854 89 821 q 123 911 129 888 q 89 945 115 941 q 45 928 66 947 q 22 886 22 909 q 52 840 21 859 l 52 277 q 63 266 48 264 q 79 260 80 267 q 84 195 79 236 q 90 125 90 139 q 91 90 91 113 q 91 55 90 66 q 112 0 94 16 q 134 125 131 35 q 144 260 137 230 q 578 267 307 269 q 1042 266 936 264 q 1057 131 1053 230 q 1074 0 1060 38 q 1099 50 1095 11 q 1101 85 1101 62 q 1101 119 1101 109 q 1112 255 1112 251 q 1128 267 1110 267 q 1145 277 1146 266 q 1142 543 1152 327 q 1145 835 1133 754 m 1064 385 q 1069 435 1071 400 q 1069 493 1069 486 q 989 490 1042 494 q 907 488 939 486 q 901 439 900 473 q 901 385 902 392 l 1064 385 m 810 385 q 804 482 800 490 q 642 477 793 480 q 648 385 651 378 l 810 385 m 382 385 q 479 387 416 382 q 545 385 530 390 q 549 422 548 401 q 550 471 549 454 q 467 477 527 479 q 382 482 406 476 l 382 385 m 279 488 q 201 490 249 486 q 123 493 149 494 l 123 385 l 285 385 q 279 488 278 491 z "},"c":{"ha":1238,"x_min":24,"x_max":1211,"o":"m 991 757 q 1006 732 1002 745 q 997 706 1010 714 q 996 731 997 726 q 980 740 993 742 q 958 718 958 739 q 980 695 958 722 q 951 705 962 693 q 943 730 942 715 q 957 753 945 745 q 991 757 970 762 m 260 233 q 463 182 328 206 q 487 262 468 214 q 513 340 507 315 q 688 362 627 332 q 766 182 684 367 q 968 222 766 182 q 867 644 897 441 q 924 593 893 637 q 974 520 977 517 q 1007 526 979 520 q 1036 520 1017 528 q 1048 669 1053 561 q 1059 819 1043 778 q 985 873 1014 825 q 964 914 981 881 q 941 954 951 941 q 923 924 926 951 q 912 886 920 892 q 885 918 897 891 q 856 949 873 945 q 850 918 850 941 q 850 881 850 882 q 814 903 831 881 q 777 926 797 926 q 785 888 775 911 q 789 859 794 867 q 747 873 768 858 q 710 892 726 891 q 724 858 710 873 q 743 830 741 837 q 701 832 726 822 q 654 842 671 844 q 674 811 656 825 q 699 785 694 795 q 658 785 684 777 q 614 796 626 797 q 629 765 608 782 q 659 734 656 743 q 621 737 647 727 q 575 745 591 749 q 625 689 568 724 q 558 588 610 657 q 448 585 505 583 q 350 582 393 587 q 321 618 344 588 q 288 650 304 640 q 193 526 227 616 q 311 509 267 516 q 260 233 302 448 m 941 182 q 616 138 793 139 q 288 182 435 138 q 153 236 245 195 q 24 283 71 273 q 235 87 71 168 q 558 1 384 14 q 659 1 602 -1 q 995 87 842 12 q 1211 283 1156 166 q 1079 235 1164 272 q 941 182 987 196 z "},"d":{"ha":1329,"x_min":28,"x_max":1308,"o":"m 484 702 q 438 825 473 736 q 396 952 408 902 q 157 857 241 918 q 28 652 53 782 l 414 652 q 448 678 429 657 q 484 702 467 698 m 458 646 q 459 606 458 612 q 477 583 462 586 q 527 577 475 590 q 549 616 549 593 q 533 652 549 636 q 497 668 517 669 q 458 646 474 668 m 1270 802 q 1225 795 1245 810 q 1182 764 1191 768 q 1070 746 1185 766 q 1027 667 1061 727 q 989 583 1000 618 q 784 586 928 574 q 589 583 648 597 q 545 558 572 579 q 502 539 520 539 q 455 557 477 539 q 421 583 425 582 l 28 583 q 165 372 50 454 q 425 277 271 296 q 716 298 576 259 q 945 433 864 340 q 1013 555 979 472 q 1076 684 1048 645 q 1187 698 1122 700 q 1289 702 1262 696 q 1299 764 1308 730 q 1270 802 1291 795 m 714 145 q 720 104 707 123 q 753 85 732 88 q 786 98 774 83 q 795 152 801 115 q 749 170 777 173 q 714 145 722 167 m 277 89 q 328 121 322 79 q 309 169 332 161 q 264 159 290 176 q 239 122 239 142 q 277 89 238 98 m 727 58 q 681 96 692 70 q 682 146 672 119 q 713 190 692 172 q 758 208 736 208 q 812 177 791 207 q 830 114 831 149 q 804 60 829 77 q 727 58 776 41 m 739 258 q 661 216 691 254 q 629 134 631 181 q 653 50 626 85 q 739 1 682 9 q 844 33 804 -7 q 880 127 879 70 q 846 222 881 184 q 739 258 806 264 m 258 58 q 212 94 225 68 q 210 145 201 117 q 239 191 217 172 q 290 208 262 210 q 342 177 323 206 q 358 117 361 150 q 332 64 355 81 q 258 58 304 44 m 309 258 q 208 231 251 267 q 160 146 170 199 q 177 54 151 94 q 271 1 207 9 q 370 26 331 -5 q 414 114 410 56 q 389 206 418 163 q 309 258 358 251 z "},"e":{"ha":743,"x_min":22,"x_max":718,"o":"m 352 266 l 352 279 q 301 360 326 340 q 287 368 296 363 q 271 376 274 374 q 258 403 252 386 q 485 399 431 414 q 391 266 390 245 l 352 266 m 288 193 q 332 244 313 230 q 391 257 359 264 q 423 235 403 254 q 450 193 446 212 q 441 68 450 195 q 450 18 439 34 q 502 0 465 -1 q 553 41 539 2 q 566 120 558 55 q 578 227 578 227 q 538 298 575 251 q 493 377 500 345 q 492 440 488 399 q 493 514 496 487 q 527 497 504 513 q 570 484 548 483 q 652 534 597 486 q 711 608 707 582 q 701 663 718 643 q 657 682 686 681 q 604 668 630 683 q 562 625 575 652 q 515 654 548 632 q 467 681 488 673 q 516 764 505 715 q 513 854 527 810 q 463 928 498 901 q 374 960 425 959 q 285 931 324 960 q 231 859 248 904 q 224 769 215 814 q 275 686 235 720 q 186 625 206 642 q 142 661 168 634 q 100 686 122 683 q 43 664 65 690 q 32 608 22 639 q 93 532 41 578 q 173 484 146 485 q 212 495 195 484 q 245 518 244 518 q 246 445 243 493 q 245 377 250 401 q 204 300 240 346 q 164 236 168 254 q 168 132 159 213 q 186 35 177 53 q 250 1 203 -3 q 305 47 296 5 q 300 117 311 75 q 288 193 288 167 z "},"f":{"ha":1360,"x_min":16,"x_max":1337,"o":"m 916 747 q 966 709 947 744 q 983 636 984 677 q 960 570 982 593 q 890 555 935 544 q 841 597 857 564 q 831 663 826 626 q 857 724 836 700 q 916 747 880 749 m 878 473 q 985 496 944 454 q 1025 602 1023 534 q 996 713 1028 667 q 897 760 959 764 q 820 715 849 755 q 791 625 794 678 q 810 530 789 572 q 878 473 833 485 m 451 747 q 501 709 482 744 q 518 636 519 677 q 495 570 517 594 q 426 555 470 544 q 376 597 393 564 q 366 663 361 626 q 392 724 371 700 q 451 747 416 749 m 413 473 q 521 496 480 454 q 560 599 557 534 q 532 710 563 663 q 439 760 498 762 q 359 717 389 758 q 327 627 331 680 q 345 531 323 573 q 413 473 368 485 m 776 396 q 737 433 766 419 q 677 446 711 445 q 616 433 643 446 q 578 396 588 420 l 776 396 m 808 237 q 749 231 777 222 q 731 281 717 241 l 808 281 l 808 237 m 616 237 q 558 231 586 222 q 541 281 526 241 l 616 281 l 616 237 m 286 307 q 429 150 314 207 q 674 98 534 98 q 920 149 813 98 q 1068 300 1037 205 q 681 307 924 309 q 286 307 356 306 m 1246 389 q 1036 117 1213 216 q 663 31 877 28 q 295 127 450 34 q 102 402 125 230 q 52 477 47 421 q 102 555 55 530 q 309 828 134 728 q 682 917 469 919 q 1053 823 897 916 q 1253 543 1225 720 q 1301 464 1312 521 q 1246 389 1291 413 m 1278 568 q 1074 845 1233 743 q 732 949 930 938 q 372 889 540 959 q 114 676 195 814 q 94 628 105 661 q 76 581 84 595 q 42 538 75 579 q 19 485 21 511 q 33 420 16 444 q 76 377 38 412 q 269 109 113 210 q 610 2 411 16 q 976 58 806 -11 q 1240 275 1157 132 q 1259 323 1249 290 q 1278 370 1270 356 q 1313 416 1279 372 q 1335 466 1334 443 q 1320 527 1337 503 q 1278 568 1312 538 z "},"g":{"ha":1001,"x_min":13,"x_max":977,"o":"m 245 613 q 411 708 331 659 q 444 671 420 685 q 493 656 466 657 q 542 667 522 654 q 572 708 565 681 q 660 661 602 694 q 747 613 716 627 q 747 740 748 650 q 747 855 747 823 q 664 814 718 846 q 577 765 598 775 q 546 802 570 789 q 496 815 524 815 q 446 804 467 816 q 416 765 422 789 q 250 860 304 821 q 243 749 241 824 q 245 613 247 648 m 449 850 q 506 855 484 857 q 436 924 494 903 q 326 941 391 942 q 465 930 404 958 q 544 846 521 903 q 454 943 541 917 q 278 945 376 967 q 380 915 356 926 q 449 850 432 892 m 648 408 q 614 439 625 415 q 608 486 605 460 q 627 528 612 511 q 667 547 643 547 q 708 519 692 545 q 721 465 722 496 q 702 417 720 434 q 648 408 682 398 m 676 556 q 608 532 635 560 q 579 465 584 507 q 591 391 574 425 q 644 347 608 355 q 722 363 692 334 q 749 434 747 388 q 732 514 751 478 q 676 556 711 552 m 326 547 q 368 519 352 546 q 380 465 382 496 q 360 416 378 433 q 307 408 340 397 q 275 439 285 416 q 269 486 266 460 q 286 528 272 511 q 326 547 302 547 m 302 347 q 380 364 351 334 q 409 439 407 391 q 389 520 411 486 q 321 556 363 557 q 262 525 285 555 q 238 459 241 498 q 251 389 235 420 q 302 347 269 355 m 568 290 q 496 326 551 326 q 420 294 443 326 q 568 290 420 295 m 207 223 q 313 110 228 151 q 494 72 391 72 q 675 109 597 72 q 781 223 760 151 l 207 223 m 937 418 q 785 608 884 573 q 840 539 799 580 q 895 470 881 497 q 913 404 907 447 q 954 350 950 393 q 918 294 956 307 q 771 92 898 166 q 498 22 655 24 q 224 88 340 22 q 74 290 96 161 q 37 347 37 307 q 74 404 37 387 q 131 519 82 462 q 172 563 142 532 q 207 604 196 589 q 107 532 169 610 q 55 418 74 490 q 25 391 37 412 q 14 348 15 372 q 23 305 13 323 q 55 280 34 286 q 213 69 81 146 q 495 0 333 -1 q 779 70 657 1 q 937 275 911 146 q 976 347 975 297 q 937 418 977 397 z "},"h":{"ha":721,"x_min":28,"x_max":696,"o":"m 321 107 q 246 144 271 117 q 226 203 224 170 q 251 263 228 235 q 313 304 275 292 q 440 281 378 326 q 496 184 501 238 q 433 118 492 141 q 321 107 378 97 m 254 359 q 268 368 264 362 q 287 361 279 368 q 293 355 288 360 q 299 349 296 351 q 292 330 300 337 q 273 323 283 323 q 256 332 262 324 q 254 359 250 342 m 353 466 q 208 397 266 465 q 161 242 151 330 q 215 128 168 173 q 326 76 260 85 q 489 120 426 61 q 550 257 545 172 q 505 401 554 341 q 353 466 450 467 m 585 390 q 433 507 570 513 q 494 517 462 522 q 550 494 525 513 q 585 447 575 474 q 585 390 596 418 m 397 479 q 554 349 515 443 q 606 425 610 376 q 560 503 603 467 q 473 537 517 538 q 397 479 421 534 m 125 390 q 157 486 113 444 q 254 520 201 528 q 277 512 263 519 q 281 502 293 505 q 175 479 218 515 q 125 390 138 449 m 317 475 q 247 536 297 532 q 159 507 202 541 q 110 428 115 472 q 156 345 104 378 q 317 475 216 457 m 366 139 q 361 174 360 149 q 362 215 363 209 q 375 224 366 218 q 388 233 384 230 q 397 269 401 246 q 357 282 385 283 q 317 269 330 281 q 353 220 313 231 l 353 139 q 323 147 340 136 q 299 152 307 157 q 355 127 314 127 q 416 148 395 126 q 395 149 410 159 q 366 139 376 137 m 617 62 q 370 52 529 50 q 111 54 156 55 q 98 67 102 58 q 98 547 73 303 q 617 547 357 572 q 617 62 642 304 m 657 578 q 669 629 660 597 q 682 680 680 672 q 684 785 696 741 q 609 885 668 839 q 505 928 551 930 q 448 903 472 926 q 425 847 421 879 q 463 866 446 846 q 500 892 481 889 q 591 854 547 899 q 652 775 606 840 q 630 596 656 742 q 85 596 357 621 q 64 707 64 674 q 102 798 64 764 q 242 833 130 821 q 305 849 286 838 q 335 897 332 864 q 321 939 337 919 q 286 955 305 959 q 276 941 275 948 q 284 928 277 936 q 299 897 302 909 q 213 859 271 863 q 120 847 135 852 q 53 781 76 829 q 35 654 28 728 q 45 615 37 644 q 54 574 54 589 q 47 552 53 566 q 40 529 41 536 l 40 287 q 37 197 40 274 q 38 110 35 142 q 102 4 45 17 l 362 4 q 452 1 382 4 q 543 1 511 -1 q 666 45 646 4 q 680 157 682 77 q 677 223 680 177 q 675 282 675 264 q 657 578 675 534 z "},"i":{"ha":630,"x_min":16,"x_max":597,"o":"m 347 195 q 447 195 397 184 q 450 219 450 219 q 382 228 418 229 q 347 195 332 227 m 347 252 q 450 259 458 264 q 447 282 450 258 q 415 286 444 282 q 377 288 391 288 q 347 252 332 286 m 447 342 q 414 342 437 340 q 376 344 383 344 q 347 313 334 344 l 447 313 q 447 342 454 328 m 347 372 q 447 372 397 362 q 450 396 450 397 q 382 405 418 406 q 347 372 332 404 m 450 456 q 380 465 416 467 q 347 429 331 463 q 450 436 458 441 l 450 456 m 490 326 q 479 196 490 235 q 417 121 465 140 q 319 109 387 110 q 220 119 253 109 q 146 196 164 135 q 136 329 136 235 q 149 470 136 434 q 233 536 168 524 q 396 534 326 555 q 484 463 466 513 q 490 326 490 444 m 457 553 q 467 637 494 602 q 337 663 450 659 q 193 657 234 667 q 151 612 157 648 q 170 550 144 576 q 99 419 115 524 q 99 219 86 335 q 159 109 107 149 q 303 71 202 75 q 454 98 404 68 q 515 184 500 127 q 527 326 527 228 q 518 467 527 428 q 457 553 504 526 m 326 854 q 342 848 338 856 q 340 831 345 840 q 325 838 329 829 q 326 854 320 847 m 427 673 q 401 719 422 698 q 373 758 379 743 q 370 795 369 768 q 367 841 372 823 q 336 873 360 863 q 293 874 314 882 q 253 747 317 883 q 222 711 248 738 q 203 670 201 690 q 317 670 222 671 q 427 673 387 669 m 561 229 q 510 104 555 156 q 397 45 464 52 q 180 62 262 29 q 69 199 87 100 q 66 416 61 244 q 125 560 68 490 q 125 637 107 598 q 176 687 142 673 q 201 739 178 714 q 229 781 226 764 q 232 819 233 794 q 233 848 231 842 q 266 893 241 878 q 319 907 290 908 q 370 888 349 905 q 400 841 395 871 q 399 813 401 833 q 400 781 397 793 q 429 736 403 766 q 454 687 453 708 q 501 637 485 671 q 500 564 520 598 q 561 229 580 499 m 597 460 q 572 521 594 484 q 547 570 549 559 q 548 602 546 577 q 544 644 550 625 q 519 678 538 659 q 487 714 494 704 q 478 732 484 718 q 467 754 472 747 q 440 791 440 792 q 438 829 437 802 q 433 868 438 854 q 371 935 417 915 q 281 942 329 954 q 207 892 233 930 q 189 787 178 849 q 163 752 176 777 q 142 714 148 721 q 82 640 79 631 q 82 567 75 612 q 26 411 39 524 q 28 205 16 317 q 149 34 42 85 q 397 5 244 -12 q 530 68 473 13 q 597 195 587 123 l 597 460 z "},"j":{"ha":847,"x_min":11,"x_max":819,"o":"m 238 355 q 263 405 242 378 q 309 433 288 435 q 313 433 313 433 q 341 406 323 425 q 371 376 361 385 q 462 345 410 342 q 429 244 467 279 q 343 216 395 212 q 261 255 292 220 q 238 355 226 295 m 337 484 q 231 430 267 473 q 202 283 178 370 q 316 174 227 191 q 462 218 404 157 q 494 387 524 283 q 394 410 436 377 q 337 484 364 433 m 700 476 q 678 480 683 475 q 700 501 675 504 q 700 476 705 489 m 327 138 q 213 195 262 145 q 159 316 163 247 q 214 464 154 410 q 373 515 272 517 q 416 436 377 463 q 511 427 456 408 q 539 321 542 376 q 506 224 536 269 q 429 158 476 181 q 327 138 380 133 m 707 817 q 711 789 715 803 q 689 771 706 773 q 677 800 671 779 q 707 817 684 822 m 604 583 q 654 679 618 650 q 684 696 661 686 q 714 714 705 705 q 741 789 746 748 q 707 853 737 825 q 640 883 677 881 q 568 853 599 885 q 550 814 554 838 q 547 791 548 806 q 543 764 545 772 q 469 668 534 703 q 414 705 456 671 q 348 732 376 736 q 320 718 332 730 q 309 686 309 705 q 352 633 309 655 q 412 590 403 608 q 382 576 403 575 q 363 578 376 576 q 345 579 351 580 q 166 501 233 576 q 103 336 106 434 q 156 167 100 239 q 323 78 216 88 q 525 146 441 67 q 600 349 611 227 q 576 427 597 379 q 565 498 559 466 q 654 444 599 463 q 721 484 723 420 q 672 539 720 515 q 604 583 614 568 m 622 419 q 583 165 663 281 q 373 43 505 54 q 160 114 252 33 q 64 323 66 197 q 136 519 61 443 q 319 611 202 588 q 286 648 297 622 q 279 700 275 672 q 301 747 283 728 q 351 768 321 767 q 469 707 337 767 q 503 759 497 719 q 515 831 514 829 q 572 895 529 872 q 659 912 612 916 q 739 878 707 909 q 774 785 773 844 q 722 682 775 724 q 643 601 655 631 q 699 561 652 587 q 749 512 741 537 q 751 456 760 483 q 722 417 743 432 q 673 402 700 402 q 622 419 646 402 m 696 615 q 790 692 759 634 q 810 808 819 745 q 759 913 802 872 q 640 960 712 960 q 515 907 562 959 q 462 764 469 854 q 380 806 429 800 q 297 791 336 812 q 241 730 256 770 q 245 636 224 688 q 75 507 134 595 q 24 284 11 412 q 130 83 37 165 q 351 0 223 0 q 588 102 494 0 q 675 359 683 205 q 785 431 753 359 q 771 558 816 500 q 734 587 760 572 q 696 615 707 603 z "},"k":{"ha":1003,"x_min":12,"x_max":1005,"o":"m 714 309 q 665 268 675 299 q 675 207 654 233 q 725 177 693 183 q 780 188 758 171 q 804 248 806 207 q 777 300 802 282 q 714 309 751 318 m 526 545 q 490 531 518 534 q 445 525 451 527 q 447 486 452 509 q 433 452 442 464 q 559 321 449 429 q 653 415 589 391 q 526 545 635 439 m 314 623 q 359 615 315 623 q 355 660 360 648 q 319 662 337 677 q 314 623 300 646 m 739 134 q 657 162 688 131 q 627 233 629 190 q 647 307 624 275 q 718 349 672 343 q 804 325 770 357 q 838 252 834 297 q 817 172 842 206 q 739 134 789 136 m 579 252 q 554 265 568 250 q 542 279 550 269 q 530 292 534 288 q 376 444 484 339 q 405 513 416 462 q 363 574 394 562 q 329 583 354 578 q 295 593 306 588 q 269 660 259 609 q 326 705 278 701 q 392 676 374 710 q 403 642 398 665 q 412 606 409 614 q 469 566 425 567 q 534 598 465 566 q 636 495 560 569 q 730 395 703 431 q 579 252 605 388 m 314 819 q 292 799 313 801 q 257 810 271 797 q 260 836 252 827 q 281 845 267 844 q 304 839 294 846 q 314 819 315 831 m 714 476 q 547 648 689 501 q 534 696 545 679 q 454 786 517 729 q 359 855 390 844 q 207 841 282 884 q 119 741 140 802 q 121 618 95 675 q 192 529 138 584 q 258 463 254 467 q 338 427 296 431 q 506 260 339 427 q 545 216 519 246 q 588 168 575 182 q 682 96 642 111 q 770 92 726 81 q 844 134 812 103 q 884 208 875 165 q 878 300 895 254 q 807 392 863 339 q 759 435 794 404 q 714 476 729 461 m 657 64 q 566 134 619 80 q 522 180 551 149 q 481 223 494 210 q 318 391 463 242 q 235 429 274 397 q 168 496 232 432 q 85 598 100 564 q 75 732 58 665 q 138 842 90 795 q 250 903 186 889 q 384 888 317 917 q 481 806 412 876 q 544 745 548 740 q 583 664 575 708 q 751 496 583 664 q 808 444 762 485 q 867 387 846 410 q 926 235 930 315 q 842 81 922 138 q 657 64 758 21 m 795 517 q 629 688 789 523 q 604 749 616 730 q 521 842 580 785 q 425 921 460 900 q 247 952 338 971 q 102 869 164 935 q 27 718 41 803 q 57 549 12 627 q 139 460 65 536 q 208 389 199 397 q 294 345 249 355 l 461 178 q 503 134 475 164 q 545 89 530 104 q 641 19 595 38 q 833 24 738 -22 q 955 146 920 65 q 936 367 1005 260 q 795 517 917 395 z "},"l":{"ha":1123,"x_min":12,"x_max":1105,"o":"m 519 412 q 490 386 496 404 q 492 349 484 369 q 516 316 500 330 q 553 302 534 302 q 600 326 582 302 q 615 374 617 347 q 591 414 614 402 q 519 412 565 429 m 889 650 q 791 740 826 724 q 840 781 807 779 q 895 760 869 784 q 923 706 922 736 q 889 650 924 671 m 758 416 q 728 427 741 415 q 712 456 715 439 q 716 488 708 474 q 749 506 726 503 q 781 496 770 509 q 793 466 792 485 q 785 433 793 448 q 758 416 774 418 m 574 111 q 569 113 568 112 q 575 119 569 114 q 583 140 589 129 q 558 155 577 157 q 532 140 540 155 q 553 115 531 117 q 403 171 455 113 q 363 298 356 223 q 427 421 371 374 q 583 463 489 475 q 687 419 640 456 q 749 319 739 378 q 708 173 763 229 q 574 111 662 127 m 387 497 q 395 446 404 473 q 362 416 387 419 q 323 433 336 414 q 315 471 311 449 q 336 503 319 494 q 387 497 357 513 m 222 650 q 186 703 186 670 q 210 758 186 732 q 262 783 234 783 q 315 748 295 783 q 267 701 304 734 q 222 650 234 673 m 741 770 q 551 812 674 813 q 362 770 432 811 q 293 844 344 825 q 197 844 248 861 q 121 783 145 825 q 115 676 94 734 q 192 600 126 647 q 157 415 147 508 q 220 257 167 330 q 350 144 271 187 q 515 94 429 100 q 713 125 618 86 q 868 234 806 162 q 947 400 932 308 q 919 604 964 500 q 1000 727 1000 649 q 965 811 999 777 q 888 849 935 842 q 801 837 841 857 q 741 770 758 816 m 205 204 q 123 372 146 273 q 136 578 98 484 q 104 621 129 591 q 77 663 84 644 q 81 794 52 734 q 167 876 107 848 q 284 890 225 903 q 383 821 349 877 q 549 854 446 853 q 719 825 651 854 q 751 850 728 831 q 783 873 770 865 q 863 897 819 896 q 968 863 922 899 q 1027 778 1009 831 q 1031 673 1044 725 q 970 583 1017 617 q 954 282 1025 417 q 747 98 890 160 q 460 62 608 38 q 205 204 302 88 m 1076 650 q 1076 808 1105 734 q 983 913 1048 875 q 844 945 918 951 q 706 880 764 938 q 553 904 644 905 q 400 880 464 904 q 235 948 311 949 q 113 907 168 947 q 37 808 63 869 q 22 684 12 746 q 81 566 32 616 q 81 336 52 445 q 181 157 109 235 q 351 41 251 83 q 557 0 450 0 q 909 136 766 1 q 1042 497 1060 280 q 1034 530 1042 504 q 1029 566 1027 552 q 1050 608 1031 583 q 1076 650 1072 637 z "},"m":{"ha":864,"x_min":19,"x_max":842,"o":"m 608 182 q 649 167 624 159 q 671 200 673 174 q 659 222 671 214 q 635 228 648 229 q 613 216 621 227 q 608 182 604 203 m 640 130 q 597 147 615 130 q 576 188 581 164 q 583 232 572 213 q 626 260 597 254 q 685 249 663 268 q 704 203 703 233 q 688 153 704 174 q 640 130 669 130 m 618 316 q 605 337 608 334 q 587 341 597 345 q 552 395 576 361 q 516 450 527 431 q 538 465 524 458 q 524 489 534 474 q 509 513 512 504 q 548 662 571 600 q 393 553 501 625 q 238 443 289 484 q 393 433 313 411 q 410 411 399 427 q 429 390 420 395 q 450 404 435 397 q 486 351 461 389 q 524 298 509 317 q 523 278 515 289 q 534 256 533 263 q 536 129 497 189 q 644 73 574 71 q 733 117 701 75 q 759 207 762 155 q 721 292 755 260 q 618 316 682 327 m 450 680 q 411 707 445 711 q 428 729 427 727 q 429 760 435 741 q 453 747 437 758 q 477 760 462 747 q 492 704 478 765 q 465 697 474 709 q 450 680 454 681 m 336 595 q 330 606 334 598 q 323 618 325 614 q 294 627 313 630 q 309 648 293 623 q 309 676 317 663 q 322 675 313 681 q 336 665 338 665 q 350 671 339 667 q 361 680 358 675 q 358 651 371 674 q 379 630 366 638 q 365 625 376 629 q 351 619 355 622 q 336 595 336 612 m 213 517 q 203 539 209 534 q 178 545 195 549 q 189 566 177 551 q 192 598 201 581 q 217 584 201 597 q 230 591 219 586 q 241 598 238 594 q 243 583 242 595 q 245 569 243 574 q 262 549 248 553 q 213 517 234 545 m 471 827 q 115 584 264 701 q 210 460 143 500 q 551 694 373 574 q 471 827 535 773 m 283 817 q 288 840 282 833 q 309 848 293 845 q 344 831 337 855 q 340 804 348 815 q 319 790 333 793 q 296 793 307 787 q 283 817 285 801 m 111 619 q 275 733 159 656 q 439 848 383 805 q 312 873 378 878 q 199 834 250 869 q 124 745 149 800 q 111 619 98 686 m 640 38 q 514 102 563 37 q 495 256 462 172 q 471 307 484 273 q 442 359 458 338 q 429 351 436 358 q 414 345 422 344 q 397 370 411 349 q 379 394 387 386 q 152 460 243 380 q 72 683 58 544 q 167 853 83 788 q 358 909 250 918 q 478 866 424 903 q 559 772 530 829 q 588 648 590 714 q 548 513 587 578 q 566 487 554 505 q 583 460 578 469 q 575 450 583 454 q 562 443 560 441 q 596 397 571 419 q 633 355 625 372 q 754 307 711 356 q 792 198 793 263 q 751 88 791 134 q 640 38 709 39 m 657 394 q 644 414 654 397 q 629 433 636 427 q 627 473 647 448 q 597 517 600 509 q 627 685 635 600 q 575 829 621 764 q 460 925 530 892 q 298 951 385 960 q 111 859 186 940 q 30 676 38 781 q 115 438 19 533 q 358 351 211 344 q 400 288 382 323 q 429 283 416 297 q 450 249 431 281 q 459 106 427 170 q 551 20 488 49 q 678 3 612 -7 q 791 66 747 14 q 835 165 827 108 q 822 271 842 220 q 760 357 802 325 q 657 394 715 393 z "},"n":{"ha":1008,"x_min":1,"x_max":996,"o":"m 783 254 q 664 153 763 203 q 490 110 558 98 q 372 217 433 120 q 304 397 312 312 q 389 685 292 549 q 434 690 411 682 q 469 715 458 699 q 684 598 591 696 q 791 363 781 496 q 783 254 796 291 m 195 664 q 192 663 193 665 q 191 660 189 657 q 192 663 191 663 q 283 770 206 704 q 389 740 328 762 q 343 716 376 722 q 315 711 338 715 q 288 706 297 709 q 195 664 237 692 m 469 838 q 609 825 528 846 q 520 788 576 819 q 435 757 468 758 q 469 838 439 775 m 473 863 q 338 833 391 857 q 184 709 245 792 q 110 512 118 620 q 212 205 96 329 q 499 85 326 85 q 699 143 606 85 q 842 292 789 199 q 892 492 895 387 q 821 702 890 605 q 686 815 772 770 q 473 863 583 871 m 550 47 q 221 141 361 28 q 68 465 72 261 q 137 715 64 606 q 304 863 200 810 q 444 901 361 891 q 732 842 608 920 q 865 706 813 790 q 930 503 924 614 q 823 187 942 319 q 550 47 711 62 m 804 850 q 452 951 652 971 q 317 922 371 943 q 120 777 199 874 q 21 528 33 669 q 165 131 1 291 q 393 11 260 38 q 644 23 518 -16 q 857 154 770 62 q 972 389 950 253 q 941 665 996 533 q 804 850 894 777 z "},"o":{"ha":848,"x_min":18,"x_max":819,"o":"m 522 179 q 550 177 538 184 q 561 151 562 169 q 545 123 561 127 q 517 130 532 119 q 501 155 502 142 q 522 179 500 172 m 300 123 q 284 149 288 127 q 304 179 281 172 q 333 176 323 185 q 340 153 342 168 q 328 128 338 137 q 300 123 316 118 m 607 489 q 562 473 592 472 q 515 489 534 475 q 469 473 498 473 q 420 489 439 474 q 376 473 406 473 q 332 489 347 473 q 283 473 311 474 q 233 489 253 473 q 172 477 215 467 q 114 475 128 489 q 350 239 156 307 q 324 227 343 226 q 294 229 294 229 q 259 210 277 225 q 237 179 242 194 q 246 107 223 136 q 304 79 267 82 q 366 98 341 77 q 389 165 394 122 q 379 189 387 176 q 364 214 368 205 q 372 228 367 217 q 382 239 376 237 q 466 239 418 229 q 473 224 467 233 q 480 211 479 216 q 456 172 456 176 q 473 100 447 127 q 533 77 496 77 q 593 103 570 79 q 607 176 618 131 q 585 208 603 192 q 551 229 568 225 q 519 227 553 228 q 494 243 499 226 q 730 475 684 296 q 671 478 715 488 q 607 489 628 468 m 103 556 q 104 525 102 543 q 106 496 107 505 q 126 503 116 492 q 134 512 129 505 q 142 521 140 519 q 189 492 152 490 q 237 521 224 494 q 283 492 246 490 q 332 521 319 494 q 377 492 340 490 q 424 521 414 494 q 471 492 434 490 q 519 521 507 494 q 564 492 527 490 q 610 521 601 492 q 658 492 621 492 q 705 521 694 492 q 737 492 714 500 q 741 556 742 543 l 103 556 m 480 574 l 741 574 q 480 869 716 811 l 480 574 m 469 869 q 420 873 471 868 l 420 574 l 469 574 l 469 869 m 593 246 q 642 172 637 219 q 619 91 646 130 q 551 42 592 52 q 463 63 505 31 q 424 134 435 84 q 390 72 419 96 q 326 45 363 50 q 258 55 289 40 q 209 105 223 71 q 205 184 193 142 q 251 243 218 228 q 118 375 161 302 q 68 591 64 465 l 389 591 l 389 908 q 670 810 562 918 q 754 668 728 752 q 768 504 779 589 q 714 352 758 418 q 593 246 667 280 m 819 556 q 685 852 818 739 q 350 951 551 966 q 346 793 345 892 q 347 630 347 659 l 26 630 q 64 391 18 492 q 184 235 102 306 q 161 120 146 178 q 222 33 174 68 q 324 0 270 -1 q 424 45 384 1 q 525 0 466 0 q 625 36 578 0 q 683 125 671 72 q 660 239 696 184 q 819 556 819 367 z "},"p":{"ha":469,"x_min":26,"x_max":443,"o":"m 343 666 q 356 647 346 653 q 378 679 361 661 q 360 673 370 679 q 343 666 350 667 m 340 669 q 345 680 340 675 q 353 688 352 685 q 334 691 343 685 q 323 695 326 696 q 332 682 328 692 q 340 669 336 672 m 330 708 q 359 714 348 701 q 343 719 353 722 q 330 708 334 716 m 353 740 q 386 715 359 731 q 414 685 408 703 q 407 617 423 656 q 369 564 393 583 q 373 462 368 538 q 372 371 376 403 q 366 355 371 365 q 359 338 359 345 q 368 294 357 323 q 378 249 378 263 q 368 169 378 232 q 362 75 359 112 q 408 65 368 73 q 443 43 437 60 q 292 24 404 14 q 290 50 286 35 q 298 75 298 73 q 304 210 311 219 q 298 222 304 212 q 295 236 294 229 q 273 233 285 231 q 256 242 260 235 q 236 217 243 236 q 218 184 227 194 q 198 172 212 178 q 176 162 181 165 q 137 127 163 153 q 106 88 107 98 q 119 50 102 71 q 138 11 136 28 q 80 5 107 -7 q 45 47 64 12 q 28 98 26 81 q 43 119 30 108 q 67 140 62 133 q 85 165 75 149 q 100 189 96 183 q 147 220 119 214 q 157 284 157 285 q 148 300 156 290 q 138 316 139 311 q 143 383 130 349 q 173 444 142 379 q 164 541 172 450 q 132 618 159 593 q 144 652 142 627 q 151 692 146 682 q 208 736 195 714 q 181 755 197 749 q 160 768 165 762 q 141 840 139 794 q 157 907 142 878 q 214 951 174 939 q 294 951 252 962 q 363 914 337 941 q 388 842 392 884 q 375 812 387 829 q 359 785 361 793 q 358 763 357 779 q 353 740 359 749 z "},"q":{"ha":1266,"x_min":32,"x_max":1236,"o":"m 1236 73 q 1172 63 1212 57 q 1096 73 1109 73 q 1078 58 1095 72 q 1052 52 1067 49 q 1055 82 1059 64 q 1056 113 1050 102 q 895 378 943 228 q 626 197 697 228 q 654 92 629 146 q 743 83 741 83 q 787 28 787 71 q 764 24 775 19 q 753 29 760 25 q 743 36 746 35 q 743 24 742 35 q 739 16 743 16 q 678 24 673 22 q 670 0 682 26 q 585 25 673 -1 q 526 77 534 41 q 411 84 471 53 q 362 113 395 92 q 317 140 332 134 q 300 103 313 134 q 281 68 291 79 q 239 56 269 66 q 197 45 212 48 q 120 64 151 38 q 105 90 117 70 q 92 117 95 104 q 79 111 90 116 q 64 113 73 108 q 32 177 64 103 l 32 217 q 75 279 50 224 q 120 330 99 330 q 144 310 136 329 q 164 281 155 287 q 389 518 205 491 q 554 574 461 529 q 670 642 637 615 q 661 681 673 659 q 642 719 644 709 q 667 873 621 807 q 779 951 707 932 q 968 925 870 976 q 1076 799 1064 874 q 1060 686 1078 784 q 1055 651 1055 659 q 1067 614 1056 636 q 1000 566 992 566 q 1000 532 1012 543 q 975 510 974 507 q 1008 428 984 492 q 1048 341 1029 373 q 1076 307 1056 328 q 1104 273 1097 286 q 1133 193 1114 256 q 1168 121 1148 138 q 1205 104 1176 113 q 1236 84 1230 97 l 1236 73 z "},"r":{"ha":347,"x_min":25,"x_max":327,"o":"m 230 579 q 237 642 252 610 q 201 698 233 654 q 163 745 174 736 q 103 760 139 766 q 60 728 73 755 q 47 665 49 707 q 50 582 47 649 q 49 494 52 527 q 41 456 49 489 q 33 411 33 427 q 41 370 34 397 q 49 328 48 340 l 49 176 q 57 31 49 47 q 121 0 74 -3 q 181 39 169 3 q 183 168 183 47 q 186 300 183 275 q 279 338 242 300 q 320 422 313 371 q 304 515 327 473 q 230 579 280 562 m 93 791 q 165 806 136 781 q 193 867 190 829 q 175 930 197 905 q 103 954 150 958 q 101 952 102 954 q 100 951 100 951 q 55 929 73 947 q 33 892 37 913 q 47 819 25 848 q 93 791 65 798 z "},"s":{"ha":1095,"x_min":28,"x_max":1076,"o":"m 1038 293 q 987 300 1013 291 q 944 315 938 317 l 944 165 q 944 47 944 49 q 1000 1 952 -6 q 1039 58 1034 5 q 1040 107 1041 75 q 1038 159 1038 153 l 1038 293 m 924 323 q 878 337 907 327 q 833 351 848 348 q 830 343 829 351 l 830 53 q 886 1 838 -5 q 925 57 920 5 q 924 157 924 50 l 924 323 m 705 323 q 638 307 683 317 q 583 293 600 298 q 385 388 523 321 q 184 485 256 452 q 48 546 56 545 q 35 541 41 547 q 28 524 28 534 q 51 500 29 513 q 71 491 58 496 q 90 482 87 484 q 301 380 172 441 q 510 281 464 304 q 583 248 579 248 q 644 265 581 248 q 674 273 654 268 q 705 281 694 279 q 731 288 707 282 q 768 296 753 292 q 813 329 815 310 q 765 342 810 353 q 730 332 751 340 q 705 323 707 324 m 1072 371 q 1029 407 1067 392 q 995 418 1017 412 q 960 429 964 428 q 833 471 836 471 q 758 463 798 474 q 694 446 708 448 q 680 542 703 500 q 619 600 660 580 q 536 614 580 619 q 457 579 491 610 q 418 612 444 608 q 349 610 393 618 q 282 591 305 604 q 245 542 254 575 q 251 482 236 509 q 323 437 258 471 q 401 399 395 401 q 566 326 542 332 q 644 328 599 318 q 682 338 659 332 q 715 349 710 347 q 819 374 811 374 q 927 340 827 373 q 953 330 936 337 q 981 318 972 321 q 1038 309 1016 304 q 1065 333 1055 313 q 1072 371 1076 352 m 237 632 q 203 667 228 655 q 146 674 177 680 q 100 652 114 667 q 84 599 84 633 q 115 535 84 555 q 180 525 142 517 q 235 559 216 532 q 237 632 255 591 m 593 671 q 584 652 592 665 q 576 629 577 640 q 610 624 600 618 q 610 660 610 624 q 680 607 638 640 q 697 591 686 602 q 715 575 709 581 q 755 560 736 558 q 795 589 773 562 q 830 621 817 618 l 830 488 q 935 457 871 479 q 1038 424 1008 431 q 1038 535 1034 462 q 1041 650 1042 624 q 1025 743 1040 711 q 966 791 1007 783 q 839 750 897 803 q 793 702 829 741 q 747 660 766 673 q 688 706 736 665 q 624 743 646 743 q 587 720 599 744 q 593 671 575 696 m 329 852 q 363 878 332 857 q 401 902 394 900 q 437 897 426 909 q 429 864 440 876 q 404 846 426 861 q 418 843 408 844 q 432 841 429 842 q 446 885 447 886 q 477 874 471 893 q 482 833 480 867 q 518 871 492 861 q 568 866 545 882 q 589 830 588 852 q 578 792 591 810 q 545 770 564 774 q 505 780 524 764 q 493 760 500 774 q 432 747 469 746 q 365 762 396 747 q 321 799 332 777 q 329 852 309 824 m 563 702 q 624 766 569 744 l 624 949 l 279 949 q 276 827 275 905 q 276 702 277 724 l 563 702 m 949 810 q 999 864 989 819 q 980 935 1009 908 q 939 955 963 951 q 895 947 916 958 q 858 861 847 923 q 949 810 891 798 z "},"t":{"ha":1272,"x_min":16,"x_max":1240,"o":"m 39 314 q 37 313 37 314 q 36 311 37 311 q 20 283 16 301 q 67 267 24 269 q 106 267 81 267 q 145 267 140 267 l 988 267 q 1017 267 988 267 q 1057 266 1041 265 q 1103 292 1105 269 q 1051 316 1102 313 q 1013 315 1035 317 q 991 314 988 314 l 39 314 m 220 380 q 205 477 244 437 q 114 505 168 517 q 45 417 44 489 q 68 361 45 385 q 119 331 88 338 q 177 335 150 323 q 220 380 207 348 m 501 336 q 735 342 719 336 q 810 397 766 355 q 882 452 854 440 q 947 383 889 441 q 963 366 951 379 q 980 347 973 353 q 1025 327 1002 326 q 1067 349 1051 328 q 1078 399 1084 371 q 1042 452 1074 420 q 1015 477 1033 461 q 991 498 997 492 q 969 522 985 505 q 944 550 954 541 q 888 583 912 581 q 817 551 853 585 q 753 505 776 511 q 703 592 745 558 q 608 628 663 623 q 511 610 554 633 q 448 536 463 585 q 330 524 406 567 q 248 439 260 483 q 316 338 225 354 q 501 336 328 336 m 1240 567 q 1187 639 1236 585 q 1126 705 1166 663 q 1066 770 1082 752 q 1024 817 1020 820 q 966 836 998 840 q 906 749 910 829 q 907 676 905 730 q 907 602 909 627 q 953 562 924 594 q 997 530 979 534 q 1007 573 1006 542 q 1006 600 1007 579 q 1006 627 1006 617 q 1069 565 1016 611 q 1119 498 1112 526 l 1119 261 q 1125 31 1119 43 q 1184 0 1141 -3 q 1238 33 1226 3 q 1240 165 1240 42 l 1240 567 m 841 804 q 901 821 878 800 q 926 868 922 838 q 918 922 930 897 q 876 954 903 947 q 806 940 832 960 q 780 890 783 922 q 793 834 777 859 q 841 804 810 808 z "},"u":{"ha":1308,"x_min":12,"x_max":1278,"o":"m 719 120 q 702 138 710 122 q 682 153 694 152 q 658 92 649 139 q 595 103 624 81 q 557 159 570 122 q 547 229 544 195 q 573 278 551 264 q 585 274 579 274 q 581 258 588 264 q 577 242 574 251 q 597 218 583 224 q 623 219 610 213 q 650 274 656 233 q 680 275 661 274 q 707 277 699 277 q 747 258 736 276 q 719 120 751 161 m 703 104 q 674 96 680 95 q 667 119 663 107 q 679 132 669 128 q 696 130 689 136 q 703 104 705 122 m 633 270 q 617 226 637 245 q 589 242 607 227 q 602 271 587 261 q 633 270 616 281 m 528 262 q 534 164 531 186 q 565 96 542 119 q 648 67 594 67 q 731 96 702 67 q 766 180 755 121 q 764 270 777 239 q 722 292 758 283 q 646 300 688 300 q 528 262 540 300 m 699 384 q 673 367 689 381 q 646 355 659 355 q 621 367 633 355 q 597 384 607 380 q 612 348 596 361 q 648 336 626 336 q 684 348 669 336 q 699 384 700 361 m 54 404 q 31 425 35 410 q 36 456 28 439 q 59 484 44 473 q 90 493 75 494 q 76 445 83 484 q 54 404 70 412 m 54 384 q 92 445 78 395 q 123 513 108 500 q 65 504 93 519 q 26 466 39 490 q 18 419 12 441 q 54 384 24 395 m 1254 428 q 1238 420 1241 427 q 1168 501 1207 446 q 1234 488 1205 507 q 1254 428 1267 466 m 1128 497 q 1169 473 1147 494 q 1187 453 1176 466 q 1204 433 1200 438 q 1240 412 1225 412 q 1278 440 1259 411 q 1221 509 1274 490 q 1128 497 1169 528 m 865 513 q 854 512 859 515 q 844 509 849 509 q 840 530 839 517 q 825 525 833 531 q 808 522 818 519 q 812 534 811 524 q 808 546 814 545 q 796 536 804 543 q 783 526 789 529 q 775 539 773 527 q 768 554 777 552 q 760 540 764 551 q 751 526 756 528 q 738 530 745 526 q 723 534 730 535 q 716 514 726 522 q 707 497 706 506 q 889 477 784 522 q 887 490 892 486 q 876 494 884 492 q 865 513 859 497 m 184 671 q 171 656 184 659 q 159 654 168 655 q 147 651 151 652 q 98 627 114 628 q 88 659 83 644 q 111 677 93 671 q 184 671 155 694 m 220 647 q 189 687 215 672 q 136 699 165 700 q 87 684 106 699 q 70 643 66 669 q 94 616 74 618 q 136 626 108 615 q 161 636 141 628 q 184 646 176 643 q 220 647 210 654 m 1181 639 q 1080 651 1128 659 q 1107 688 1080 676 q 1159 696 1130 699 q 1196 678 1187 693 q 1181 639 1206 662 m 1217 663 q 1191 708 1219 697 q 1128 707 1165 718 q 1068 675 1090 696 q 1051 627 1043 650 q 1097 640 1067 641 q 1151 633 1109 640 q 1196 631 1183 627 q 1217 663 1216 637 m 1015 282 q 1006 493 1036 405 q 1072 473 1052 502 q 1086 403 1090 448 q 1063 326 1082 361 q 1015 282 1041 288 m 926 157 q 728 35 849 60 q 505 60 614 13 q 338 206 394 107 q 305 452 276 315 q 317 490 309 469 q 334 530 331 522 q 411 477 394 530 q 585 493 525 523 q 580 514 590 502 q 569 538 568 528 q 562 531 564 538 q 553 526 559 524 q 536 538 542 526 q 524 554 530 552 q 522 538 519 549 q 516 526 523 529 q 500 534 507 526 q 488 546 491 545 q 484 535 481 543 q 488 522 488 523 q 473 525 479 520 q 459 530 465 530 q 442 511 457 515 q 422 493 427 506 q 397 542 406 503 q 374 595 386 583 q 593 724 453 690 q 611 707 596 722 q 633 687 624 693 q 682 688 662 667 q 654 716 683 682 q 658 724 653 723 q 930 583 823 721 q 913 548 928 577 q 901 509 903 527 q 928 517 911 505 q 958 530 947 530 q 994 334 1009 456 q 926 157 979 223 m 281 282 q 240 317 260 288 q 212 378 220 345 q 213 441 203 415 q 256 477 224 470 q 260 501 256 496 q 289 493 265 501 q 281 282 262 410 m 192 452 q 182 456 186 451 q 176 460 179 460 q 220 489 184 488 q 192 452 220 498 m 273 558 q 264 591 262 577 q 336 599 292 621 q 382 538 378 578 q 328 549 363 544 q 273 558 285 555 m 1006 562 q 970 541 1004 544 q 944 539 962 540 q 926 538 930 539 q 962 577 927 564 q 1006 562 997 591 m 994 517 q 1018 549 1013 531 q 1015 578 1023 564 q 991 596 1008 591 q 954 595 975 602 q 613 753 833 753 q 621 882 581 822 q 731 931 661 943 q 772 908 757 926 q 787 868 786 891 q 777 826 788 846 q 743 798 765 806 q 787 821 772 800 q 800 865 801 838 q 787 913 800 890 q 751 943 773 935 q 606 897 656 964 q 581 749 559 835 q 350 611 448 715 q 279 620 317 633 q 248 570 242 607 q 273 547 252 553 q 305 526 298 540 q 159 469 191 517 q 184 405 177 452 q 200 331 193 347 q 297 245 227 270 q 451 55 345 121 q 723 7 569 -19 q 1002 250 908 37 q 1078 301 1046 252 q 1110 404 1106 346 q 1086 496 1114 463 q 994 517 1055 533 z "},"v":{"ha":882,"x_min":22,"x_max":852,"o":"m 673 46 q 728 46 699 38 q 701 77 726 76 q 673 46 676 77 m 250 46 q 305 46 274 37 q 277 77 302 75 q 250 46 252 77 m 744 58 q 784 104 777 64 q 743 97 753 111 q 744 58 734 84 m 655 58 q 661 98 660 101 q 643 105 657 104 q 631 104 640 105 q 618 104 623 104 q 655 58 621 71 m 323 58 q 360 104 353 68 q 319 96 329 112 q 323 58 309 80 m 231 58 q 231 104 242 94 l 191 104 q 231 58 200 68 m 673 126 q 690 107 677 110 q 715 113 703 104 q 728 133 728 121 q 713 160 730 148 q 680 152 692 163 q 673 126 670 142 m 277 104 q 298 116 291 105 q 302 138 304 126 q 291 157 300 151 q 265 157 281 164 q 251 126 245 148 q 277 104 256 104 m 753 144 q 790 123 768 125 q 781 178 799 146 q 753 144 761 177 m 612 123 q 636 130 627 122 q 646 149 645 137 q 640 168 647 159 q 618 178 633 177 q 612 151 618 172 q 612 123 606 134 m 330 144 q 366 123 345 125 q 357 178 372 136 q 330 144 337 178 m 203 178 q 186 155 191 174 q 189 120 182 136 q 225 148 217 130 q 203 178 218 170 m 762 197 q 713 224 755 212 q 726 183 701 196 q 745 181 735 178 q 762 197 757 184 m 640 194 q 673 178 646 186 q 692 221 690 188 q 661 216 677 224 q 640 194 644 208 m 299 178 q 324 184 319 181 q 338 200 337 189 q 290 224 315 218 q 299 178 283 212 m 216 194 q 253 178 224 183 q 268 221 269 204 q 237 216 254 224 q 216 194 220 208 m 376 326 q 489 267 376 326 q 547 298 488 267 q 603 335 596 324 q 376 335 489 335 l 376 326 m 517 602 q 507 624 517 616 q 480 627 497 633 q 460 604 459 619 q 475 581 461 591 q 503 575 490 571 q 517 602 517 579 m 673 903 q 790 786 750 832 q 688 726 753 763 q 581 667 600 677 q 564 658 577 664 q 546 648 553 652 q 526 621 526 636 q 597 651 541 620 q 699 709 624 667 q 802 768 764 747 q 839 614 837 625 q 687 614 819 613 q 532 608 582 616 q 565 597 543 597 q 584 598 572 597 q 603 599 597 599 l 842 599 q 837 430 852 485 q 744 338 817 356 q 725 337 739 336 q 704 335 711 337 q 664 314 688 330 q 624 289 632 293 q 541 246 541 245 q 565 228 545 235 q 591 212 585 220 q 661 258 618 247 q 742 256 701 269 q 807 212 783 243 q 833 130 834 177 q 805 51 832 89 q 734 3 775 11 q 604 40 652 -12 q 575 172 557 91 q 533 198 561 184 q 489 221 498 216 q 446 199 476 214 q 404 175 418 184 q 376 43 420 95 q 247 3 330 -11 q 178 45 208 10 q 145 117 149 78 q 166 201 141 164 q 229 254 189 237 q 309 261 269 271 q 385 212 353 251 q 412 227 391 218 q 437 243 430 235 q 399 270 425 258 q 354 289 351 291 q 315 314 347 292 q 274 335 290 330 q 242 339 264 338 q 213 344 222 340 q 133 452 143 371 q 132 524 130 477 q 133 596 135 574 q 66 722 127 672 q 33 725 45 717 q 22 745 24 732 q 29 768 22 758 q 50 780 37 780 q 68 770 61 781 q 84 749 83 751 q 109 731 90 743 q 130 713 124 720 q 167 605 159 675 q 296 598 212 597 q 437 599 414 600 q 492 651 466 644 q 492 808 493 688 q 495 952 490 899 q 655 912 578 939 q 505 642 501 634 q 515 636 507 636 q 526 642 524 636 q 599 773 553 694 q 673 903 660 879 z "},"w":{"ha":960,"x_min":20,"x_max":935,"o":"m 734 555 q 764 479 747 530 q 794 401 784 422 q 661 309 772 378 q 661 453 636 380 q 734 555 684 520 m 302 631 q 294 704 288 652 q 616 829 332 722 q 644 807 634 836 q 652 783 648 799 q 656 765 655 768 q 478 699 648 762 q 302 631 370 660 m 180 385 q 382 127 357 326 q 269 126 323 108 q 188 186 220 143 q 153 281 156 229 q 180 385 150 337 m 737 635 q 720 691 734 644 q 696 766 707 738 q 625 862 661 860 q 621 862 621 862 q 431 793 588 851 q 389 779 422 790 q 338 762 357 769 q 265 716 275 739 q 265 619 251 684 q 277 515 282 545 q 120 280 111 411 q 215 120 126 178 q 410 102 307 60 q 621 244 408 102 q 830 389 810 371 q 785 509 814 433 q 737 635 753 595 m 552 147 q 444 76 449 79 q 294 50 374 41 q 171 103 224 58 q 98 211 121 146 q 86 342 75 276 q 148 466 98 413 q 191 499 161 479 q 237 534 222 519 q 230 604 236 560 q 222 668 224 650 q 261 769 219 738 q 435 833 262 770 q 498 861 451 840 q 567 888 542 880 q 685 878 647 915 q 737 753 696 867 q 879 373 831 494 q 552 147 751 279 m 786 765 q 727 897 747 869 q 600 947 682 958 q 406 873 604 947 q 224 801 236 810 q 189 555 152 740 q 35 329 48 460 q 117 83 20 180 q 358 1 213 -12 q 473 39 417 7 q 568 102 473 39 q 935 357 875 309 q 861 555 907 424 q 786 765 798 734 z "},"x":{"ha":1008,"x_min":20,"x_max":977,"o":"m 202 152 q 195 191 195 163 q 209 222 195 219 q 279 220 258 224 q 310 186 310 212 q 275 151 311 158 q 202 152 246 144 m 209 324 q 272 323 259 325 q 301 294 300 317 q 269 261 301 269 q 202 262 241 255 q 195 296 195 273 q 209 324 196 321 m 316 244 q 344 284 344 283 q 286 359 356 348 q 150 358 260 364 l 150 115 q 295 115 252 106 q 359 195 370 130 q 316 244 356 216 m 775 324 q 809 294 776 324 q 852 296 828 276 q 777 366 844 355 q 677 342 716 376 q 638 281 648 319 q 637 205 629 244 q 670 139 646 165 q 732 106 696 111 q 852 180 828 93 q 837 192 849 188 q 826 195 833 193 q 815 198 819 197 q 791 165 812 195 q 763 146 779 149 q 701 171 723 138 q 684 243 682 199 q 710 311 688 287 q 775 324 736 339 m 917 62 q 572 66 660 55 q 572 404 554 237 q 581 414 574 411 q 751 414 611 413 q 917 410 855 414 q 917 62 935 248 m 975 355 q 976 376 975 356 q 977 407 977 394 q 963 460 976 448 q 869 473 945 475 q 808 471 847 473 q 763 469 773 469 q 547 466 558 469 q 513 425 519 458 q 513 355 513 422 l 513 121 q 526 14 513 24 q 572 2 538 2 q 602 3 583 2 q 630 4 622 4 l 753 4 q 809 3 764 4 q 876 2 851 1 q 969 20 958 3 q 975 127 975 28 l 975 355 m 427 66 q 79 66 254 48 q 82 408 71 321 q 427 408 254 425 q 427 66 435 237 m 486 346 q 479 450 486 441 q 392 473 465 473 q 330 471 370 473 q 276 469 290 469 q 222 467 258 469 q 169 466 185 466 q 55 466 54 465 q 21 420 26 457 q 21 340 20 416 q 21 121 22 216 q 33 16 20 30 q 79 3 45 4 q 109 3 91 3 q 138 4 133 4 q 249 4 220 5 q 302 1 252 4 q 374 0 346 0 q 479 22 466 1 q 491 124 493 44 q 488 186 490 144 q 486 235 486 222 l 486 346 m 467 694 q 498 762 470 747 q 529 694 516 751 q 497 685 517 685 q 467 694 477 685 m 476 842 q 381 595 413 700 q 424 592 379 596 q 436 621 429 598 q 452 648 443 640 l 547 648 q 572 592 545 651 q 618 595 621 597 q 523 838 598 659 q 476 842 517 840 m 329 540 q 329 890 311 698 q 670 888 564 899 q 670 543 688 715 q 329 540 583 532 m 720 494 q 732 537 730 503 q 732 598 732 531 l 732 832 q 720 937 732 926 q 624 951 703 952 q 562 948 602 950 q 516 946 526 946 q 298 943 308 946 q 268 905 273 935 q 267 842 267 899 l 267 595 q 283 490 269 500 q 390 484 291 484 l 498 484 q 547 483 507 484 q 615 481 589 481 q 720 494 705 480 z "},"y":{"ha":1005,"x_min":-5,"x_max":975,"o":"m 377 355 q 330 253 352 319 q 312 196 326 242 q 293 140 301 161 q 481 104 366 98 q 663 153 593 110 q 646 209 656 173 q 629 266 633 252 q 574 359 608 332 q 473 359 561 358 q 377 355 412 359 m 739 716 q 709 741 710 714 q 724 756 712 751 q 747 753 737 762 q 714 774 731 780 q 694 747 700 768 q 699 714 688 725 q 739 716 710 701 m 734 951 q 753 922 749 946 q 756 901 755 916 q 760 880 758 887 q 812 826 772 867 q 861 774 842 795 q 888 747 867 768 q 918 717 908 728 q 945 653 951 679 q 901 612 938 625 q 822 596 878 604 q 744 581 766 589 q 701 539 707 567 q 726 384 699 528 q 755 233 755 229 q 831 306 787 235 q 903 384 878 378 q 957 374 937 391 q 974 338 973 359 q 941 272 975 313 q 913 240 931 259 q 890 216 893 219 q 428 1 685 -17 q 240 54 330 8 q 100 161 156 96 q 31 279 56 212 q 71 371 -5 372 q 114 351 98 371 q 138 303 125 337 q 201 212 166 227 q 220 304 205 237 q 239 401 232 366 q 249 448 241 412 q 258 495 255 477 q 251 585 266 550 q 151 493 188 574 q 150 617 133 555 q 214 690 168 684 q 278 657 254 697 q 296 621 281 652 q 318 585 308 597 q 439 576 342 589 q 541 590 517 566 q 553 664 559 607 q 547 711 552 682 q 541 753 542 745 q 527 840 538 781 q 516 918 517 891 q 547 935 527 930 q 587 935 568 939 q 604 863 597 918 q 639 868 614 863 q 675 871 660 872 q 679 935 665 907 q 734 951 696 966 z "},"z":{"ha":1052,"x_min":-7,"x_max":1025,"o":"m 441 68 q 661 102 568 54 q 789 236 745 146 q 563 234 671 285 q 441 68 453 182 m 755 433 q 814 401 777 424 q 872 370 850 378 q 887 397 877 380 q 901 424 897 415 q 843 458 883 434 q 785 491 806 479 q 770 462 781 480 q 755 433 758 444 m 124 612 q 87 410 73 533 q 161 232 100 288 q 228 315 208 258 q 239 433 247 369 q 203 545 233 496 q 124 612 171 597 m 208 750 q 265 718 222 743 q 325 688 300 696 q 340 714 328 696 q 354 742 351 730 q 296 774 336 750 q 237 804 260 795 q 222 778 233 795 q 208 750 212 761 m 688 424 q 698 467 686 446 q 709 485 701 473 q 722 503 718 497 q 785 553 753 556 q 864 516 802 552 q 907 492 901 495 q 939 491 932 481 q 922 522 947 503 q 881 545 915 526 q 583 715 811 585 q 291 880 403 819 q 287 884 291 885 q 283 882 285 884 q 279 880 280 880 q 275 871 276 871 q 351 817 283 846 q 421 754 416 789 q 401 684 425 728 q 358 629 380 645 q 302 623 332 610 q 275 640 292 628 q 245 659 253 654 q 204 682 209 680 q 166 684 172 696 q 193 640 161 671 q 241 595 241 595 q 304 378 313 506 q 212 182 296 249 q 294 134 224 175 q 379 90 343 104 q 508 278 404 210 q 755 315 619 350 q 776 307 761 314 q 799 296 791 298 q 835 311 828 285 q 752 360 822 330 q 688 424 693 386 m 258 955 q 361 922 287 966 q 418 884 381 909 q 463 854 452 861 q 939 583 862 627 q 1023 520 1021 536 q 972 416 1025 507 q 793 129 836 176 q 463 2 663 -16 q 174 132 330 14 q 37 334 77 205 q 49 604 -7 475 q 149 775 45 596 q 250 947 246 943 q 258 955 256 954 z "},"{":{"ha":1054,"x_min":39,"x_max":1023,"o":"m 880 56 q 839 71 858 55 q 814 109 821 87 q 817 151 807 133 q 859 180 828 173 q 915 170 895 187 q 935 128 933 155 q 922 81 936 102 q 880 56 905 58 m 842 233 q 772 179 794 222 q 762 94 752 140 q 807 21 772 47 q 904 3 847 -8 q 975 57 949 12 q 990 151 1000 101 q 937 220 981 195 q 842 233 892 244 m 408 56 q 368 73 385 56 q 346 111 351 88 q 351 153 340 134 q 391 180 363 173 q 448 170 428 187 q 467 127 467 155 q 452 79 467 100 q 408 56 435 57 m 375 233 q 304 180 329 222 q 289 90 279 139 q 331 24 298 46 q 402 5 361 3 q 474 25 441 5 q 519 77 508 45 q 491 204 545 157 q 375 233 441 248 m 273 708 q 210 753 252 736 q 172 765 197 758 q 129 778 142 774 q 106 791 121 781 q 88 798 95 799 q 51 783 64 798 q 40 749 39 770 q 51 715 41 730 q 80 696 62 699 q 113 705 92 694 q 150 717 136 717 q 204 692 175 716 q 236 655 226 673 q 260 564 254 623 q 273 475 267 492 q 347 331 298 389 q 543 210 425 237 q 763 222 652 184 q 944 344 874 259 q 1023 553 1020 435 l 318 553 q 273 708 305 665 m 1023 610 q 707 954 981 892 q 621 606 620 597 q 1023 610 1017 610 z "},"|":{"ha":1200,"x_min":0,"x_max":0,"o":""},"}":{"ha":1015,"x_min":17,"x_max":988,"o":"m 495 449 q 399 467 452 491 q 365 435 376 456 q 355 385 352 413 q 425 307 360 351 q 495 233 490 262 q 566 303 503 266 q 639 372 629 341 q 637 428 648 403 q 602 464 627 452 q 550 473 578 477 q 495 449 519 470 m 914 254 q 829 250 915 254 l 829 508 q 877 509 831 508 q 914 499 905 509 q 914 254 941 383 m 170 250 q 124 250 163 250 q 85 254 97 249 q 74 388 75 315 q 93 508 73 483 l 170 508 l 170 250 m 973 521 q 829 567 952 574 l 829 635 l 762 635 l 762 376 q 758 119 762 130 q 656 67 739 65 q 578 75 635 68 q 495 81 525 81 q 380 68 473 80 q 283 72 315 60 q 234 189 239 89 q 235 277 232 221 q 237 359 237 345 l 237 635 l 174 635 q 170 601 168 629 q 165 567 172 574 q 31 519 59 586 q 17 347 17 484 q 47 214 17 244 q 170 186 76 184 q 191 65 164 113 q 288 0 221 12 l 711 0 q 805 67 772 8 q 833 191 835 119 q 926 196 898 188 q 978 245 966 208 q 985 388 988 278 q 973 521 983 496 m 829 673 q 830 756 829 683 q 821 829 831 808 q 737 836 796 834 q 654 844 680 839 q 580 952 566 862 l 423 952 q 414 917 420 941 q 407 888 410 897 q 368 846 396 859 q 271 839 343 836 q 174 825 203 842 q 169 751 168 800 q 170 673 170 686 l 829 673 z "},"~":{"ha":688,"x_min":41,"x_max":644,"o":"m 371 968 q 449 946 429 962 q 505 843 505 901 l 507 833 q 467 761 507 795 q 519 741 469 758 q 545 728 532 728 l 549 734 q 533 753 535 745 q 519 770 519 760 q 543 790 522 780 q 553 810 543 804 l 559 810 l 564 808 q 570 814 564 811 q 581 812 577 814 l 593 814 l 595 814 q 599 810 599 814 l 603 812 l 605 812 q 631 774 631 808 q 625 768 629 774 q 640 749 625 758 q 644 732 644 739 q 640 716 642 716 l 642 712 l 642 692 q 627 673 642 682 q 615 648 627 656 q 597 616 615 620 q 549 595 585 595 q 547 593 549 593 q 533 595 539 595 q 527 593 529 593 q 533 578 533 585 q 531 556 533 570 q 549 470 545 510 q 553 460 553 470 l 553 456 q 539 422 539 425 l 539 418 q 559 376 551 401 q 585 312 585 349 q 527 201 585 264 q 469 144 527 195 q 399 24 419 75 q 363 8 381 8 q 324 16 359 8 q 307 0 321 0 l 301 0 q 237 43 270 0 q 145 218 191 166 q 113 275 113 244 q 145 390 134 368 q 205 460 205 448 q 203 482 203 473 l 203 486 l 211 552 q 195 581 211 581 q 174 576 178 576 l 166 576 q 123 614 149 602 q 102 648 119 614 q 67 714 87 648 l 63 734 q 73 739 68 739 l 73 743 q 45 796 73 748 q 41 827 41 815 l 41 831 q 49 839 41 834 l 51 839 q 135 790 102 790 q 164 759 149 789 q 178 732 178 741 q 256 747 192 739 q 248 835 248 794 q 309 944 248 894 l 371 968 m 260 240 l 287 178 q 328 102 328 121 l 330 102 q 369 150 330 115 q 387 201 369 176 q 414 222 387 218 q 418 234 418 229 q 414 238 418 238 l 387 238 q 365 234 385 238 l 359 234 q 349 242 357 234 l 345 242 q 279 248 336 242 l 275 248 q 260 240 264 248 z "},"":{"ha":596,"x_min":34,"x_max":524,"o":"m 318 978 q 323 974 318 977 l 328 975 q 336 967 332 967 l 340 968 q 343 966 341 966 q 345 970 345 969 l 347 970 q 353 956 353 956 l 355 956 l 357 961 l 359 961 q 375 944 359 944 l 377 941 q 376 937 376 939 q 385 933 385 936 q 383 930 383 931 q 398 905 398 911 l 397 903 q 409 886 409 890 l 407 885 q 405 887 407 887 l 402 887 l 407 863 l 406 861 q 408 844 408 856 l 408 840 q 385 784 408 823 q 377 765 377 773 l 378 765 q 408 753 397 765 l 409 753 q 408 756 409 754 q 437 808 408 795 q 461 813 453 813 l 467 813 q 513 764 507 813 l 513 728 q 504 694 513 722 q 524 671 524 682 q 506 659 524 663 l 505 659 q 494 664 502 659 q 467 603 481 618 q 437 576 448 581 q 428 543 435 564 q 430 520 430 534 q 425 502 430 515 q 435 488 435 498 l 425 453 q 435 431 435 439 q 441 319 438 360 l 441 310 q 425 271 441 299 q 385 195 425 235 q 323 142 353 156 q 318 136 322 142 l 318 131 q 332 108 318 128 l 333 101 l 333 99 l 327 76 q 333 56 333 60 q 295 1 333 16 q 281 0 288 0 l 273 0 q 243 14 250 0 q 234 13 237 13 q 144 91 218 13 q 100 201 100 138 l 100 210 l 107 250 q 92 280 107 253 q 88 304 88 296 l 88 314 q 129 404 88 342 q 138 460 133 460 q 159 494 138 464 q 176 532 165 522 q 196 545 193 539 q 194 565 194 562 l 194 570 q 199 574 194 572 q 191 591 191 584 l 191 601 l 157 597 q 94 652 113 597 l 88 651 l 86 651 q 73 692 78 661 q 43 754 64 716 q 34 798 34 781 l 34 806 q 56 834 34 834 q 68 833 64 833 q 104 840 80 833 q 144 802 125 840 q 152 754 148 787 l 153 754 q 161 776 153 776 q 191 791 174 776 q 196 791 194 791 q 211 789 200 789 q 212 791 211 791 q 200 846 200 841 l 200 848 q 203 885 203 877 l 203 886 l 201 890 l 206 899 q 204 901 204 899 q 208 909 208 905 l 208 916 l 218 924 l 218 927 l 217 929 q 224 935 224 932 l 224 941 q 235 947 235 941 q 245 951 235 951 q 251 962 245 960 q 264 967 251 966 q 276 977 275 976 q 282 972 280 972 q 295 976 292 976 l 297 976 l 301 972 q 318 978 308 978 m 215 168 q 230 153 222 168 l 232 153 q 231 155 232 155 q 239 200 239 187 l 239 211 q 215 168 223 193 z "},"":{"ha":1008,"x_min":19,"x_max":1000,"o":"m 751 193 q 825 255 760 203 q 901 318 897 311 q 888 420 930 368 q 849 460 875 438 q 813 493 817 490 q 732 574 783 524 q 650 656 677 628 q 589 720 585 722 q 504 731 549 749 q 438 675 478 721 q 375 602 372 599 q 245 468 256 483 q 292 368 237 393 q 340 427 298 372 q 400 472 375 472 q 429 458 415 472 q 441 427 443 443 q 395 370 440 401 q 337 314 345 335 q 362 291 347 307 q 387 268 378 274 l 441 322 q 450 333 443 323 q 463 350 457 343 q 500 372 484 372 q 530 357 517 372 q 542 326 543 342 q 488 267 541 306 q 437 214 437 229 q 465 185 438 201 q 492 172 489 170 q 525 208 500 178 q 566 250 550 237 q 642 230 616 291 q 590 172 628 207 q 538 113 551 136 q 656 85 597 43 q 751 193 666 93 m 304 802 q 382 841 334 846 q 458 781 431 835 q 645 758 549 830 q 718 689 677 734 q 780 623 777 625 q 876 526 789 614 q 962 428 947 454 q 963 293 1000 364 q 893 209 945 256 q 850 171 886 202 q 809 134 823 149 q 702 30 711 36 q 546 18 626 -23 q 463 86 513 34 q 420 133 453 97 q 375 180 392 163 q 208 347 208 347 q 178 431 182 381 q 199 518 174 484 q 140 591 152 542 q 178 673 128 645 q 95 727 109 694 q 91 758 93 732 q 87 789 89 783 q 43 861 83 801 q 41 931 19 897 q 113 939 71 964 q 149 914 120 935 q 183 894 170 899 q 244 881 181 895 q 292 852 279 873 q 299 827 296 844 q 304 802 303 805 z "},"":{"ha":688,"x_min":0,"x_max":0,"o":""},"":{"ha":688,"x_min":0,"x_max":0,"o":""},"":{"ha":856,"x_min":0,"x_max":0,"o":""},"":{"ha":688,"x_min":0,"x_max":0,"o":""},"":{"ha":1135,"x_min":29,"x_max":1114,"o":"m 848 233 l 996 233 l 996 622 l 848 622 l 848 233 m 616 622 l 616 233 l 764 233 q 770 425 771 302 q 769 622 768 587 l 616 622 m 385 233 l 537 233 l 537 622 l 385 622 l 385 233 m 144 233 l 306 233 l 306 622 l 144 622 l 144 233 m 144 710 q 564 710 297 710 q 991 710 871 710 q 996 826 1000 801 q 982 864 995 834 q 973 905 971 889 q 1009 952 979 942 q 1067 945 1037 961 q 1106 901 1098 929 q 1084 836 1114 868 l 1084 182 q 1086 124 1084 176 q 1085 67 1087 88 q 1047 1 1080 5 q 996 50 1000 -5 q 996 99 994 65 q 996 144 998 132 q 573 150 837 151 q 144 149 221 149 q 143 103 141 136 q 144 52 145 66 q 92 1 142 -6 q 54 66 58 6 q 54 123 52 86 q 56 182 56 172 q 60 831 56 716 q 35 895 29 861 q 66 943 39 924 q 121 956 93 961 q 162 914 151 949 q 144 836 159 924 q 142 776 140 814 q 144 710 146 734 z "},"":{"ha":694,"x_min":0,"x_max":0,"o":""},"":{"ha":2283,"x_min":30,"x_max":2239,"o":"m 1728 68 q 1712 76 1721 76 q 1696 68 1702 76 q 1689 47 1689 62 q 1696 27 1689 35 q 1712 19 1703 19 q 1721 22 1716 19 q 1729 28 1726 24 l 1729 20 l 1742 20 l 1742 95 l 1728 95 l 1728 68 m 1674 68 q 1655 76 1668 76 q 1638 68 1645 76 q 1631 47 1631 60 q 1636 28 1631 36 q 1657 19 1643 19 q 1672 24 1666 19 q 1681 35 1678 28 l 1666 38 q 1663 32 1665 34 q 1657 30 1660 30 q 1649 33 1652 30 q 1645 43 1645 37 l 1681 43 q 1674 68 1681 60 m 1603 41 l 1624 64 l 1624 75 l 1579 75 l 1579 62 l 1598 63 q 1605 63 1603 63 q 1597 55 1603 60 l 1577 32 l 1577 20 l 1626 20 l 1626 33 l 1603 33 q 1596 33 1602 33 l 1603 41 m 1554 20 l 1569 20 l 1569 75 l 1554 75 l 1554 20 m 1554 82 l 1569 82 l 1569 95 l 1554 95 l 1554 82 m 1532 74 q 1526 67 1529 73 l 1526 75 l 1513 75 l 1513 20 l 1527 20 l 1527 37 q 1529 56 1527 51 q 1532 61 1529 60 q 1537 63 1534 63 q 1544 60 1540 63 l 1548 73 q 1539 76 1544 76 q 1532 74 1535 76 m 1474 76 q 1460 72 1466 76 q 1450 62 1454 68 q 1447 48 1447 56 q 1450 33 1447 39 q 1460 22 1454 26 q 1474 19 1467 19 q 1495 27 1487 19 q 1502 47 1502 35 q 1495 68 1502 60 q 1474 76 1487 76 m 1434 31 q 1432 32 1433 31 q 1430 34 1431 33 q 1430 41 1430 35 l 1430 63 l 1440 63 l 1440 75 l 1430 75 l 1430 94 l 1416 85 l 1416 75 l 1409 75 l 1409 63 l 1416 63 l 1416 39 q 1417 30 1416 32 q 1419 24 1417 26 q 1423 20 1420 22 q 1430 19 1426 19 q 1441 22 1436 19 l 1440 33 q 1434 31 1436 31 m 1388 33 q 1381 31 1385 31 q 1372 35 1375 31 q 1369 48 1369 39 q 1372 61 1369 57 q 1381 64 1375 64 q 1387 62 1385 64 q 1390 56 1390 60 l 1404 58 q 1396 71 1402 67 q 1381 76 1390 76 q 1361 68 1369 76 q 1354 47 1354 61 q 1361 26 1354 34 q 1380 19 1369 19 q 1397 24 1391 19 q 1405 39 1403 29 l 1391 41 q 1388 33 1390 35 m 1339 68 q 1320 76 1332 76 q 1302 68 1310 76 q 1295 47 1295 60 q 1301 28 1295 36 q 1322 19 1308 19 q 1337 24 1331 19 q 1345 35 1342 28 l 1331 38 q 1327 32 1330 34 q 1322 30 1325 30 q 1314 33 1317 30 q 1310 43 1310 37 l 1345 43 q 1339 68 1346 60 m 1282 95 l 1263 40 l 1244 95 l 1228 95 l 1255 20 l 1271 20 l 1298 95 l 1282 95 m 1179 68 q 1163 76 1172 76 q 1147 68 1153 76 q 1140 47 1140 62 q 1147 27 1140 35 q 1163 19 1154 19 q 1172 22 1167 19 q 1179 28 1177 24 l 1179 20 l 1193 20 l 1193 95 l 1179 95 l 1179 68 m 1125 70 q 1120 74 1123 73 q 1111 76 1116 76 q 1093 66 1100 76 l 1093 75 l 1080 75 l 1080 20 l 1094 20 l 1094 45 q 1095 58 1094 54 q 1099 63 1097 61 q 1106 65 1102 65 q 1111 63 1109 65 q 1114 60 1113 62 q 1115 48 1115 57 l 1115 20 l 1129 20 l 1129 54 q 1128 64 1129 60 q 1125 70 1127 67 m 1066 55 q 1064 68 1066 64 q 1057 73 1062 71 q 1043 76 1053 76 q 1027 72 1033 76 q 1020 60 1022 68 l 1033 58 q 1036 63 1034 62 q 1042 65 1038 65 q 1050 63 1048 65 q 1052 57 1052 61 l 1052 56 q 1038 52 1048 54 q 1027 49 1031 51 q 1021 43 1023 47 q 1018 35 1018 40 q 1023 24 1018 28 q 1036 19 1028 19 q 1045 21 1041 19 q 1053 26 1049 23 q 1053 24 1053 26 q 1055 20 1055 22 l 1069 20 q 1066 28 1067 24 q 1065 38 1065 31 l 1066 55 m 965 68 q 949 76 958 76 q 932 68 939 76 q 926 47 926 62 q 933 27 926 35 q 949 19 940 19 q 958 22 954 19 q 966 28 962 24 l 966 20 l 979 20 l 979 95 l 965 95 l 965 68 m 911 68 q 892 76 904 76 q 875 68 882 76 q 867 47 867 60 q 873 28 867 36 q 894 19 880 19 q 909 24 903 19 q 917 35 914 28 l 903 38 q 899 32 902 34 q 894 30 897 30 q 886 33 889 30 q 882 43 882 37 l 918 43 q 911 68 918 60 m 843 20 l 857 20 l 857 95 l 843 95 l 843 20 m 814 82 l 828 82 l 828 95 l 814 95 l 814 82 m 814 20 l 828 20 l 828 75 l 814 75 l 814 20 m 780 76 q 770 73 774 76 q 763 66 766 71 l 763 75 l 750 75 l 750 0 l 764 0 l 764 27 q 772 21 768 23 q 780 19 775 19 q 796 27 789 19 q 802 47 802 35 q 796 68 802 61 q 780 76 789 76 m 728 73 q 718 76 724 76 q 709 73 713 76 q 702 67 705 71 q 696 73 699 71 q 687 76 692 76 q 670 67 677 76 l 670 75 l 656 75 l 656 20 l 671 20 l 671 47 q 672 58 671 54 q 676 63 673 61 q 682 65 679 65 q 686 64 685 65 q 688 60 688 62 q 689 50 689 58 l 689 20 l 704 20 l 704 46 q 705 58 704 54 q 709 63 706 61 q 714 65 711 65 q 720 62 718 65 q 722 52 722 60 l 722 20 l 736 20 l 736 55 q 734 66 736 63 q 728 73 732 71 m 618 76 q 604 72 611 76 q 595 62 598 68 q 591 48 591 56 q 595 33 591 39 q 605 22 598 26 q 619 19 612 19 q 639 27 631 19 q 646 47 646 35 q 639 68 646 60 q 618 76 631 76 m 561 36 q 551 32 556 32 q 537 38 543 32 q 532 58 532 44 q 537 77 532 71 q 551 83 543 83 q 561 80 557 83 q 566 71 565 77 l 581 75 q 574 88 578 83 q 551 96 565 96 q 526 86 536 96 q 517 57 517 76 q 526 29 517 39 q 551 19 536 19 q 570 25 562 19 q 581 43 578 31 l 567 48 q 561 36 565 40 m 1466 134 l 1466 278 l 1518 278 l 1518 308 l 1379 308 l 1379 278 l 1431 278 l 1431 134 l 1466 134 m 1669 278 l 1669 308 l 1540 308 l 1540 134 l 1672 134 l 1672 163 l 1575 163 l 1575 210 l 1662 210 l 1662 240 l 1575 240 l 1575 278 l 1669 278 m 1171 212 q 1170 182 1171 191 q 1161 167 1168 173 q 1138 161 1153 161 q 1115 168 1124 161 q 1104 184 1107 174 q 1103 214 1103 191 l 1103 308 l 1068 308 l 1068 215 q 1072 171 1068 186 q 1081 152 1074 161 q 1101 137 1088 142 q 1139 131 1114 131 q 1173 136 1160 131 q 1193 151 1185 142 q 1204 172 1201 159 q 1206 216 1206 185 l 1206 308 l 1171 308 l 1171 212 m 1282 134 l 1318 134 l 1318 278 l 1369 278 l 1369 308 l 1231 308 l 1231 278 l 1282 278 l 1282 134 m 1980 210 l 2067 210 l 2067 240 l 1980 240 l 1980 278 l 2074 278 l 2074 308 l 1945 308 l 1945 134 l 2077 134 l 2077 163 l 1980 163 l 1980 210 m 2233 212 q 2213 230 2225 224 q 2175 242 2201 237 q 2143 254 2150 248 q 2138 264 2138 258 q 2143 275 2138 271 q 2167 281 2152 281 q 2190 276 2182 281 q 2199 256 2197 270 l 2235 258 q 2217 296 2233 282 q 2167 311 2201 311 q 2134 304 2148 311 q 2112 287 2119 298 q 2104 262 2104 275 q 2120 227 2104 241 q 2160 210 2131 217 q 2188 203 2182 205 q 2201 195 2197 199 q 2204 184 2204 191 q 2195 168 2204 175 q 2170 161 2187 161 q 2144 169 2154 161 q 2132 194 2135 176 l 2098 191 q 2119 146 2102 161 q 2169 131 2137 131 q 2207 137 2193 131 q 2231 157 2222 144 q 2239 184 2239 170 q 2233 212 2239 201 m 1877 134 l 1910 134 l 1910 168 l 1877 168 l 1877 134 m 1817 196 q 1799 211 1810 204 q 1833 227 1822 214 q 1845 259 1845 239 q 1836 286 1845 275 q 1817 303 1829 298 q 1776 308 1804 308 l 1702 308 l 1702 134 l 1737 134 l 1737 206 l 1744 206 q 1762 205 1756 206 q 1773 197 1767 203 q 1791 172 1777 192 l 1816 134 l 1858 134 l 1837 168 q 1817 196 1825 188 m 1004 198 q 989 170 1000 179 q 966 161 979 161 q 935 175 947 161 q 923 222 923 189 q 935 267 923 253 q 966 281 947 281 q 990 273 980 281 q 1003 252 1000 265 l 1038 260 q 1020 292 1031 281 q 968 311 1000 311 q 909 287 932 311 q 887 219 887 262 q 909 155 887 178 q 966 131 931 131 q 1012 144 994 131 q 1038 187 1030 159 l 1004 198 m 260 186 l 229 308 l 188 308 l 156 189 l 130 308 l 94 308 l 136 134 l 174 134 l 208 264 l 243 134 l 280 134 l 322 308 l 287 308 l 260 186 m 417 311 q 379 304 395 311 q 357 288 367 298 q 340 264 347 277 q 333 220 333 246 q 355 155 333 178 q 417 131 378 131 q 479 155 456 131 q 501 220 501 178 q 478 287 501 263 q 417 311 455 311 m 568 304 q 546 288 556 298 q 530 264 536 277 q 522 220 522 246 q 545 155 522 178 q 606 131 568 131 q 667 155 644 131 q 690 220 690 178 q 667 287 690 263 q 606 311 644 311 q 568 304 585 311 m 841 288 q 814 304 830 300 q 781 308 803 308 l 718 308 l 718 134 l 783 134 q 814 138 803 134 q 839 151 830 142 q 858 182 851 163 q 863 219 863 198 q 857 260 863 243 q 841 288 852 277 m 1282 336 q 1413 406 1335 330 q 1519 559 1457 448 q 1622 721 1589 682 q 1663 728 1648 713 q 1676 761 1676 740 q 1663 789 1675 781 q 1631 781 1650 798 q 1636 761 1627 770 q 1643 755 1643 755 q 1643 748 1645 751 q 1602 749 1630 747 q 1565 748 1578 751 q 1550 715 1553 736 q 1511 656 1539 700 q 1469 593 1486 616 q 1432 547 1439 554 q 1382 536 1407 524 q 1491 718 1396 575 q 1518 724 1506 715 q 1531 746 1529 732 q 1528 768 1535 760 q 1506 775 1522 778 q 1506 760 1499 770 q 1510 752 1509 754 q 1506 745 1510 748 q 1453 753 1501 745 q 1413 739 1420 759 q 1426 729 1415 729 q 1435 730 1430 728 q 1441 730 1440 730 q 1404 683 1429 711 q 1368 636 1378 650 q 1323 515 1327 578 q 1391 463 1352 469 q 1367 435 1380 454 q 1346 404 1350 408 q 1273 372 1319 369 q 1260 430 1258 385 q 1271 422 1261 430 q 1285 418 1277 417 q 1305 431 1298 420 q 1313 452 1312 439 q 1308 472 1313 463 q 1292 485 1301 481 q 1247 471 1263 492 q 1233 421 1233 454 q 1245 366 1233 390 q 1282 336 1259 339 m 1011 739 q 1046 749 1033 739 q 1065 775 1057 758 q 1071 790 1065 778 q 1078 804 1075 799 q 1098 825 1086 819 q 1071 711 1088 781 q 1043 597 1048 615 q 1005 361 1011 462 q 1050 363 1023 353 q 1096 384 1052 363 q 1194 472 1157 413 q 1230 587 1227 526 q 1213 667 1232 637 q 1163 684 1197 694 q 1116 655 1138 677 q 1143 762 1118 667 q 1154 873 1161 828 q 1074 834 1105 869 q 1051 802 1064 823 q 1030 771 1036 778 q 1011 808 1026 805 q 988 792 999 810 q 981 758 977 774 q 1011 739 986 739 m 886 441 q 901 458 897 454 q 935 486 918 478 q 945 470 944 482 q 930 462 945 469 q 918 450 920 457 q 925 426 922 433 q 937 414 929 418 q 967 425 956 407 q 976 468 977 441 q 961 511 974 495 q 920 523 945 530 q 897 498 910 520 q 876 465 878 467 q 849 436 858 444 q 818 422 833 425 q 866 524 831 468 q 924 617 918 608 q 954 635 943 623 q 960 667 964 649 q 942 685 955 683 q 921 678 931 686 q 911 660 910 670 q 932 642 913 648 q 881 633 913 632 q 826 631 841 635 q 715 564 770 617 q 651 450 656 507 q 662 398 647 412 q 699 395 675 387 q 743 416 720 401 q 770 442 762 431 q 770 416 766 429 q 781 395 773 403 q 836 397 812 387 q 871 423 854 404 q 886 441 878 429 m 589 460 q 627 541 621 496 q 614 627 634 587 q 543 689 591 669 q 610 726 582 697 q 648 791 637 753 q 648 865 658 829 q 607 928 638 903 q 418 954 540 983 q 235 854 306 927 q 210 817 223 843 q 190 783 197 791 q 132 744 167 758 q 63 744 91 728 q 64 755 64 747 q 65 767 64 763 q 76 785 67 781 q 78 757 69 771 q 99 742 87 743 q 133 756 121 741 q 142 788 144 769 q 127 819 140 807 q 89 827 112 832 q 43 787 58 822 q 44 726 30 754 q 79 703 52 710 q 122 699 101 695 q 195 736 161 706 q 254 799 210 749 q 321 863 290 842 q 422 901 365 893 q 391 797 406 865 q 363 693 372 718 q 314 526 322 573 q 314 508 313 521 q 313 490 314 496 q 254 397 300 438 q 142 373 198 349 q 146 422 144 429 q 121 441 142 435 q 83 431 98 448 q 80 382 69 414 q 107 342 90 353 q 163 336 125 331 q 284 381 224 342 q 367 454 335 413 q 427 413 389 425 q 506 412 465 402 q 589 460 556 423 m 1933 342 q 1940 338 1935 341 q 1946 334 1944 335 q 1960 337 1952 332 q 1933 370 1960 363 q 1879 376 1931 371 q 1862 440 1863 410 q 2026 551 1905 459 q 2124 389 2055 459 q 2123 370 2121 382 q 2121 352 2126 359 q 2138 355 2131 350 q 2148 364 2148 364 q 2195 359 2157 364 q 2235 364 2220 355 l 2235 372 q 2215 384 2230 379 q 2193 394 2198 389 q 2171 437 2181 404 q 2153 487 2160 477 q 2136 507 2149 494 q 2119 528 2124 520 q 2095 581 2108 548 q 2075 631 2080 621 q 2090 645 2074 630 q 2089 666 2098 652 q 2131 695 2085 665 q 2127 739 2121 713 q 2136 808 2138 799 q 2070 885 2129 854 q 1955 901 2011 916 q 1887 854 1911 890 q 1872 759 1859 813 q 1883 736 1873 753 q 1889 713 1890 723 q 1817 671 1868 696 q 1717 637 1761 643 q 1579 492 1605 620 q 1567 509 1573 495 q 1552 522 1563 521 q 1525 490 1539 522 q 1499 452 1510 456 l 1499 428 q 1518 389 1518 383 q 1527 388 1523 386 q 1535 391 1534 391 q 1544 374 1537 384 q 1552 359 1551 363 q 1600 348 1571 343 q 1625 355 1609 349 q 1651 361 1644 360 q 1663 383 1657 368 q 1673 406 1670 401 q 1701 389 1683 401 q 1730 371 1721 376 q 1801 367 1767 352 q 1836 336 1806 345 q 1889 320 1891 319 q 1893 335 1896 336 q 1930 330 1891 334 q 1933 334 1933 330 q 1933 342 1933 341 z "},"":{"ha":439,"x_min":0,"x_max":0,"o":""},"":{"ha":640,"x_min":0,"x_max":0,"o":""},"":{"ha":688,"x_min":0,"x_max":0,"o":""},"":{"ha":2283,"x_min":30,"x_max":2239,"o":"m 1728 68 q 1712 76 1721 76 q 1696 68 1702 76 q 1689 47 1689 62 q 1696 27 1689 35 q 1712 19 1703 19 q 1721 22 1716 19 q 1729 28 1726 24 l 1729 20 l 1742 20 l 1742 95 l 1728 95 l 1728 68 m 1674 68 q 1655 76 1668 76 q 1638 68 1645 76 q 1631 47 1631 60 q 1636 28 1631 36 q 1657 19 1643 19 q 1672 24 1666 19 q 1681 35 1678 28 l 1666 38 q 1663 32 1665 34 q 1657 30 1660 30 q 1649 33 1652 30 q 1645 43 1645 37 l 1681 43 q 1674 68 1681 60 m 1603 41 l 1624 64 l 1624 75 l 1579 75 l 1579 62 l 1598 63 q 1605 63 1603 63 q 1597 55 1603 60 l 1577 32 l 1577 20 l 1626 20 l 1626 33 l 1603 33 q 1596 33 1602 33 l 1603 41 m 1554 20 l 1569 20 l 1569 75 l 1554 75 l 1554 20 m 1554 82 l 1569 82 l 1569 95 l 1554 95 l 1554 82 m 1532 74 q 1526 67 1529 73 l 1526 75 l 1513 75 l 1513 20 l 1527 20 l 1527 37 q 1529 56 1527 51 q 1532 61 1529 60 q 1537 63 1534 63 q 1544 60 1540 63 l 1548 73 q 1539 76 1544 76 q 1532 74 1535 76 m 1474 76 q 1460 72 1466 76 q 1450 62 1454 68 q 1447 48 1447 56 q 1450 33 1447 39 q 1460 22 1454 26 q 1474 19 1467 19 q 1495 27 1487 19 q 1502 47 1502 35 q 1495 68 1502 60 q 1474 76 1487 76 m 1434 31 q 1432 32 1433 31 q 1430 34 1431 33 q 1430 41 1430 35 l 1430 63 l 1440 63 l 1440 75 l 1430 75 l 1430 94 l 1416 85 l 1416 75 l 1409 75 l 1409 63 l 1416 63 l 1416 39 q 1417 30 1416 32 q 1419 24 1417 26 q 1423 20 1420 22 q 1430 19 1426 19 q 1441 22 1436 19 l 1440 33 q 1434 31 1436 31 m 1388 33 q 1381 31 1385 31 q 1372 35 1375 31 q 1369 48 1369 39 q 1372 61 1369 57 q 1381 64 1375 64 q 1387 62 1385 64 q 1390 56 1390 60 l 1404 58 q 1396 71 1402 67 q 1381 76 1390 76 q 1361 68 1369 76 q 1354 47 1354 61 q 1361 26 1354 34 q 1380 19 1369 19 q 1397 24 1391 19 q 1405 39 1403 29 l 1391 41 q 1388 33 1390 35 m 1339 68 q 1320 76 1332 76 q 1302 68 1310 76 q 1295 47 1295 60 q 1301 28 1295 36 q 1322 19 1308 19 q 1337 24 1331 19 q 1345 35 1342 28 l 1331 38 q 1327 32 1330 34 q 1322 30 1325 30 q 1314 33 1317 30 q 1310 43 1310 37 l 1345 43 q 1339 68 1346 60 m 1282 95 l 1263 40 l 1244 95 l 1228 95 l 1255 20 l 1271 20 l 1298 95 l 1282 95 m 1179 68 q 1163 76 1172 76 q 1147 68 1153 76 q 1140 47 1140 62 q 1147 27 1140 35 q 1163 19 1154 19 q 1172 22 1167 19 q 1179 28 1177 24 l 1179 20 l 1193 20 l 1193 95 l 1179 95 l 1179 68 m 1125 70 q 1120 74 1123 73 q 1111 76 1116 76 q 1093 66 1100 76 l 1093 75 l 1080 75 l 1080 20 l 1094 20 l 1094 45 q 1095 58 1094 54 q 1099 63 1097 61 q 1106 65 1102 65 q 1111 63 1109 65 q 1114 60 1113 62 q 1115 48 1115 57 l 1115 20 l 1129 20 l 1129 54 q 1128 64 1129 60 q 1125 70 1127 67 m 1066 55 q 1064 68 1066 64 q 1057 73 1062 71 q 1043 76 1053 76 q 1027 72 1033 76 q 1020 60 1022 68 l 1033 58 q 1036 63 1034 62 q 1042 65 1038 65 q 1050 63 1048 65 q 1052 57 1052 61 l 1052 56 q 1038 52 1048 54 q 1027 49 1031 51 q 1021 43 1023 47 q 1018 35 1018 40 q 1023 24 1018 28 q 1036 19 1028 19 q 1045 21 1041 19 q 1053 26 1049 23 q 1053 24 1053 26 q 1055 20 1055 22 l 1069 20 q 1066 28 1067 24 q 1065 38 1065 31 l 1066 55 m 965 68 q 949 76 958 76 q 932 68 939 76 q 926 47 926 62 q 933 27 926 35 q 949 19 940 19 q 958 22 954 19 q 966 28 962 24 l 966 20 l 979 20 l 979 95 l 965 95 l 965 68 m 911 68 q 892 76 904 76 q 875 68 882 76 q 867 47 867 60 q 873 28 867 36 q 894 19 880 19 q 909 24 903 19 q 917 35 914 28 l 903 38 q 899 32 902 34 q 894 30 897 30 q 886 33 889 30 q 882 43 882 37 l 918 43 q 911 68 918 60 m 843 20 l 857 20 l 857 95 l 843 95 l 843 20 m 814 82 l 828 82 l 828 95 l 814 95 l 814 82 m 814 20 l 828 20 l 828 75 l 814 75 l 814 20 m 780 76 q 770 73 774 76 q 763 66 766 71 l 763 75 l 750 75 l 750 0 l 764 0 l 764 27 q 772 21 768 23 q 780 19 775 19 q 796 27 789 19 q 802 47 802 35 q 796 68 802 61 q 780 76 789 76 m 728 73 q 718 76 724 76 q 709 73 713 76 q 702 67 705 71 q 696 73 699 71 q 687 76 692 76 q 670 67 677 76 l 670 75 l 656 75 l 656 20 l 671 20 l 671 47 q 672 58 671 54 q 676 63 673 61 q 682 65 679 65 q 686 64 685 65 q 688 60 688 62 q 689 50 689 58 l 689 20 l 704 20 l 704 46 q 705 58 704 54 q 709 63 706 61 q 714 65 711 65 q 720 62 718 65 q 722 52 722 60 l 722 20 l 736 20 l 736 55 q 734 66 736 63 q 728 73 732 71 m 618 76 q 604 72 611 76 q 595 62 598 68 q 591 48 591 56 q 595 33 591 39 q 605 22 598 26 q 619 19 612 19 q 639 27 631 19 q 646 47 646 35 q 639 68 646 60 q 618 76 631 76 m 561 36 q 551 32 556 32 q 537 38 543 32 q 532 58 532 44 q 537 77 532 71 q 551 83 543 83 q 561 80 557 83 q 566 71 565 77 l 581 75 q 574 88 578 83 q 551 96 565 96 q 526 86 536 96 q 517 57 517 76 q 526 29 517 39 q 551 19 536 19 q 570 25 562 19 q 581 43 578 31 l 567 48 q 561 36 565 40 m 1466 134 l 1466 278 l 1518 278 l 1518 308 l 1379 308 l 1379 278 l 1431 278 l 1431 134 l 1466 134 m 1669 278 l 1669 308 l 1540 308 l 1540 134 l 1672 134 l 1672 163 l 1575 163 l 1575 210 l 1662 210 l 1662 240 l 1575 240 l 1575 278 l 1669 278 m 1171 212 q 1170 182 1171 191 q 1161 167 1168 173 q 1138 161 1153 161 q 1115 168 1124 161 q 1104 184 1107 174 q 1103 214 1103 191 l 1103 308 l 1068 308 l 1068 215 q 1072 171 1068 186 q 1081 152 1074 161 q 1101 137 1088 142 q 1139 131 1114 131 q 1173 136 1160 131 q 1193 151 1185 142 q 1204 172 1201 159 q 1206 216 1206 185 l 1206 308 l 1171 308 l 1171 212 m 1282 134 l 1318 134 l 1318 278 l 1369 278 l 1369 308 l 1231 308 l 1231 278 l 1282 278 l 1282 134 m 1980 210 l 2067 210 l 2067 240 l 1980 240 l 1980 278 l 2074 278 l 2074 308 l 1945 308 l 1945 134 l 2077 134 l 2077 163 l 1980 163 l 1980 210 m 2233 212 q 2213 230 2225 224 q 2175 242 2201 237 q 2143 254 2150 248 q 2138 264 2138 258 q 2143 275 2138 271 q 2167 281 2152 281 q 2190 276 2182 281 q 2199 256 2197 270 l 2235 258 q 2217 296 2233 282 q 2167 311 2201 311 q 2134 304 2148 311 q 2112 287 2119 298 q 2104 262 2104 275 q 2120 227 2104 241 q 2160 210 2131 217 q 2188 203 2182 205 q 2201 195 2197 199 q 2204 184 2204 191 q 2195 168 2204 175 q 2170 161 2187 161 q 2144 169 2154 161 q 2132 194 2135 176 l 2098 191 q 2119 146 2102 161 q 2169 131 2137 131 q 2207 137 2193 131 q 2231 157 2222 144 q 2239 184 2239 170 q 2233 212 2239 201 m 1877 134 l 1910 134 l 1910 168 l 1877 168 l 1877 134 m 1817 196 q 1799 211 1810 204 q 1833 227 1822 214 q 1845 259 1845 239 q 1836 286 1845 275 q 1817 303 1829 298 q 1776 308 1804 308 l 1702 308 l 1702 134 l 1737 134 l 1737 206 l 1744 206 q 1762 205 1756 206 q 1773 197 1767 203 q 1791 172 1777 192 l 1816 134 l 1858 134 l 1837 168 q 1817 196 1825 188 m 1004 198 q 989 170 1000 179 q 966 161 979 161 q 935 175 947 161 q 923 222 923 189 q 935 267 923 253 q 966 281 947 281 q 990 273 980 281 q 1003 252 1000 265 l 1038 260 q 1020 292 1031 281 q 968 311 1000 311 q 909 287 932 311 q 887 219 887 262 q 909 155 887 178 q 966 131 931 131 q 1012 144 994 131 q 1038 187 1030 159 l 1004 198 m 260 186 l 229 308 l 188 308 l 156 189 l 130 308 l 94 308 l 136 134 l 174 134 l 208 264 l 243 134 l 280 134 l 322 308 l 287 308 l 260 186 m 417 311 q 379 304 395 311 q 357 288 367 298 q 340 264 347 277 q 333 220 333 246 q 355 155 333 178 q 417 131 378 131 q 479 155 456 131 q 501 220 501 178 q 478 287 501 263 q 417 311 455 311 m 568 304 q 546 288 556 298 q 530 264 536 277 q 522 220 522 246 q 545 155 522 178 q 606 131 568 131 q 667 155 644 131 q 690 220 690 178 q 667 287 690 263 q 606 311 644 311 q 568 304 585 311 m 841 288 q 814 304 830 300 q 781 308 803 308 l 718 308 l 718 134 l 783 134 q 814 138 803 134 q 839 151 830 142 q 858 182 851 163 q 863 219 863 198 q 857 260 863 243 q 841 288 852 277 m 1282 336 q 1413 406 1335 330 q 1519 559 1457 448 q 1622 721 1589 682 q 1663 728 1648 713 q 1676 761 1676 740 q 1663 789 1675 781 q 1631 781 1650 798 q 1636 761 1627 770 q 1643 755 1643 755 q 1643 748 1645 751 q 1602 749 1630 747 q 1565 748 1578 751 q 1550 715 1553 736 q 1511 656 1539 700 q 1469 593 1486 616 q 1432 547 1439 554 q 1382 536 1407 524 q 1491 718 1396 575 q 1518 724 1506 715 q 1531 746 1529 732 q 1528 768 1535 760 q 1506 775 1522 778 q 1506 760 1499 770 q 1510 752 1509 754 q 1506 745 1510 748 q 1453 753 1501 745 q 1413 739 1420 759 q 1426 729 1415 729 q 1435 730 1430 728 q 1441 730 1440 730 q 1404 683 1429 711 q 1368 636 1378 650 q 1323 515 1327 578 q 1391 463 1352 469 q 1367 435 1380 454 q 1346 404 1350 408 q 1273 372 1319 369 q 1260 430 1258 385 q 1271 422 1261 430 q 1285 418 1277 417 q 1305 431 1298 420 q 1313 452 1312 439 q 1308 472 1313 463 q 1292 485 1301 481 q 1247 471 1263 492 q 1233 421 1233 454 q 1245 366 1233 390 q 1282 336 1259 339 m 1011 739 q 1046 749 1033 739 q 1065 775 1057 758 q 1071 790 1065 778 q 1078 804 1075 799 q 1098 825 1086 819 q 1071 711 1088 781 q 1043 597 1048 615 q 1005 361 1011 462 q 1050 363 1023 353 q 1096 384 1052 363 q 1194 472 1157 413 q 1230 587 1227 526 q 1213 667 1232 637 q 1163 684 1197 694 q 1116 655 1138 677 q 1143 762 1118 667 q 1154 873 1161 828 q 1074 834 1105 869 q 1051 802 1064 823 q 1030 771 1036 778 q 1011 808 1026 805 q 988 792 999 810 q 981 758 977 774 q 1011 739 986 739 m 886 441 q 901 458 897 454 q 935 486 918 478 q 945 470 944 482 q 930 462 945 469 q 918 450 920 457 q 925 426 922 433 q 937 414 929 418 q 967 425 956 407 q 976 468 977 441 q 961 511 974 495 q 920 523 945 530 q 897 498 910 520 q 876 465 878 467 q 849 436 858 444 q 818 422 833 425 q 866 524 831 468 q 924 617 918 608 q 954 635 943 623 q 960 667 964 649 q 942 685 955 683 q 921 678 931 686 q 911 660 910 670 q 932 642 913 648 q 881 633 913 632 q 826 631 841 635 q 715 564 770 617 q 651 450 656 507 q 662 398 647 412 q 699 395 675 387 q 743 416 720 401 q 770 442 762 431 q 770 416 766 429 q 781 395 773 403 q 836 397 812 387 q 871 423 854 404 q 886 441 878 429 m 589 460 q 627 541 621 496 q 614 627 634 587 q 543 689 591 669 q 610 726 582 697 q 648 791 637 753 q 648 865 658 829 q 607 928 638 903 q 418 954 540 983 q 235 854 306 927 q 210 817 223 843 q 190 783 197 791 q 132 744 167 758 q 63 744 91 728 q 64 755 64 747 q 65 767 64 763 q 76 785 67 781 q 78 757 69 771 q 99 742 87 743 q 133 756 121 741 q 142 788 144 769 q 127 819 140 807 q 89 827 112 832 q 43 787 58 822 q 44 726 30 754 q 79 703 52 710 q 122 699 101 695 q 195 736 161 706 q 254 799 210 749 q 321 863 290 842 q 422 901 365 893 q 391 797 406 865 q 363 693 372 718 q 314 526 322 573 q 314 508 313 521 q 313 490 314 496 q 254 397 300 438 q 142 373 198 349 q 146 422 144 429 q 121 441 142 435 q 83 431 98 448 q 80 382 69 414 q 107 342 90 353 q 163 336 125 331 q 284 381 224 342 q 367 454 335 413 q 427 413 389 425 q 506 412 465 402 q 589 460 556 423 m 1933 342 q 1940 338 1935 341 q 1946 334 1944 335 q 1960 337 1952 332 q 1933 370 1960 363 q 1879 376 1931 371 q 1862 440 1863 410 q 2026 551 1905 459 q 2124 389 2055 459 q 2123 370 2121 382 q 2121 352 2126 359 q 2138 355 2131 350 q 2148 364 2148 364 q 2195 359 2157 364 q 2235 364 2220 355 l 2235 372 q 2215 384 2230 379 q 2193 394 2198 389 q 2171 437 2181 404 q 2153 487 2160 477 q 2136 507 2149 494 q 2119 528 2124 520 q 2095 581 2108 548 q 2075 631 2080 621 q 2090 645 2074 630 q 2089 666 2098 652 q 2131 695 2085 665 q 2127 739 2121 713 q 2136 808 2138 799 q 2070 885 2129 854 q 1955 901 2011 916 q 1887 854 1911 890 q 1872 759 1859 813 q 1883 736 1873 753 q 1889 713 1890 723 q 1817 671 1868 696 q 1717 637 1761 643 q 1579 492 1605 620 q 1567 509 1573 495 q 1552 522 1563 521 q 1525 490 1539 522 q 1499 452 1510 456 l 1499 428 q 1518 389 1518 383 q 1527 388 1523 386 q 1535 391 1534 391 q 1544 374 1537 384 q 1552 359 1551 363 q 1600 348 1571 343 q 1625 355 1609 349 q 1651 361 1644 360 q 1663 383 1657 368 q 1673 406 1670 401 q 1701 389 1683 401 q 1730 371 1721 376 q 1801 367 1767 352 q 1836 336 1806 345 q 1889 320 1891 319 q 1893 335 1896 336 q 1930 330 1891 334 q 1933 334 1933 330 q 1933 342 1933 341 z "},"":{"ha":454,"x_min":0,"x_max":0,"o":""},"":{"ha":457,"x_min":0,"x_max":0,"o":""},"":{"ha":688,"x_min":0,"x_max":0,"o":""},"":{"ha":688,"x_min":0,"x_max":0,"o":""},"":{"ha":688,"x_min":0,"x_max":0,"o":""},"":{"ha":694,"x_min":0,"x_max":0,"o":""},"":{"ha":800,"x_min":0,"x_max":0,"o":""}}}
